M48
;DRILL file {KiCad 5.0.2-bee76a0~70~ubuntu18.04.1} date Thu 30 May 2019 11:23:10 AM JST
;FORMAT={-:-/ absolute / inch / decimal}
FMAT,2
INCH,TZ
T1C0.0118
T2C0.0157
T3C0.0236
T4C0.0315
T5C0.0335
T6C0.0394
T7C0.0400
T8C0.0512
%
G90
G05
T1
X4.2096Y-1.9744
X4.2096Y-2.0217
X4.253Y-1.9744
X4.253Y-2.0217
X4.3041Y-1.9744
X4.3041Y-2.0217
X4.3514Y-1.9744
X4.3514Y-2.0217
T2
X2.Y-1.9748
X2.0055Y-1.8791
X2.0055Y-2.0681
X2.0472Y-3.1311
X2.0504Y-3.0488
X2.09Y-1.57
X2.1094Y-2.3555
X2.13Y-1.64
X2.1323Y-3.0929
X2.1945Y-2.4429
X2.1972Y-2.276
X2.2028Y-2.3555
X2.2705Y-3.5362
X2.2874Y-3.8465
X2.3114Y-3.6858
X2.3583Y-3.8465
X2.3614Y-3.5421
X2.3642Y-3.6886
X2.4336Y-3.4154
X2.4992Y-2.6619
X2.5157Y-3.8031
X2.5675Y-4.0505
X2.5709Y-3.9134
X2.5827Y-3.698
X2.6303Y-5.2138
X2.6654Y-4.1378
X2.6803Y-2.6719
X2.6831Y-5.2138
X2.6843Y-2.1689
X2.7358Y-5.2138
X2.752Y-4.3937
X2.7614Y-4.6335
X2.7638Y-4.3268
X2.7638Y-2.816
X2.7665Y-4.8929
X2.8004Y-1.7591
X2.8004Y-1.822
X2.8016Y-1.8772
X2.8127Y-4.6447
X2.8524Y-2.9311
X2.8543Y-4.7791
X2.865Y-1.8154
X2.8657Y-1.8831
X2.8661Y-1.7563
X2.8693Y-3.4244
X2.8728Y-4.8913
X2.928Y-3.5272
X2.9291Y-1.7543
X2.9315Y-1.8154
X2.9331Y-1.8843
X2.9378Y-3.4335
X2.9491Y-4.8083
X3.0387Y-4.0415
X3.0407Y-4.2349
X3.0503Y-4.3478
X3.0721Y-5.0031
X3.0979Y-3.8821
X3.1075Y-2.6009
X3.111Y-4.0246
X3.1187Y-4.2305
X3.1791Y-1.5772
X3.203Y-4.0531
X3.2161Y-4.0134
X3.2185Y-3.6516
X3.2228Y-3.6008
X3.2233Y-4.3457
X3.2276Y-3.7969
X3.2709Y-3.7614
X3.3015Y-3.3179
X3.3018Y-2.5256
X3.3028Y-1.6827
X3.3185Y-1.7531
X3.3274Y-4.0509
X3.3348Y-3.6779
X3.348Y-4.176
X3.3988Y-3.7064
X3.4402Y-2.3693
X3.4419Y-4.1328
X3.4701Y-3.5736
X3.4832Y-4.089
X3.5039Y-1.5276
X3.511Y-2.5799
X3.5189Y-5.2031
X3.524Y-3.9406
X3.5248Y-3.5764
X3.5369Y-4.7681
X3.56Y-2.3948
X3.5705Y-2.9438
X3.5862Y-5.2157
X3.598Y-2.5783
X3.6311Y-3.5657
X3.6319Y-2.3791
X3.6449Y-3.3909
X3.6705Y-5.2094
X3.6745Y-2.171
X3.6756Y-3.7969
X3.6898Y-3.0823
X3.6921Y-3.9023
X3.6933Y-4.0051
X3.6933Y-4.3232
X3.7218Y-4.6839
X3.7311Y-2.3673
X3.735Y-1.989
X3.7362Y-3.126
X3.7384Y-4.8226
X3.739Y-4.7748
X3.7402Y-2.4616
X3.7412Y-3.3415
X3.7524Y-3.7591
X3.7654Y-4.1173
X3.7681Y-1.6874
X3.7689Y-1.8323
X3.7772Y-1.9728
X3.7803Y-3.1398
X3.7913Y-2.878
X3.8093Y-2.3673
X3.8161Y-3.3945
X3.8233Y-4.8944
X3.828Y-4.7319
X3.8378Y-4.3224
X3.8425Y-2.9449
X3.861Y-3.232
X3.9055Y-2.4646
X3.9072Y-3.6229
X3.9098Y-4.0566
X3.9157Y-1.8516
X3.9185Y-4.9238
X3.9276Y-1.7209
X3.9406Y-2.2583
X3.9665Y-3.0512
X3.9665Y-4.1898
X3.9783Y-2.674
X3.9961Y-2.811
X4.0216Y-3.6797
X4.0362Y-3.9803
X4.0433Y-4.1142
X4.0434Y-3.5674
X4.0559Y-1.6874
X4.0563Y-3.8106
X4.0807Y-2.6713
X4.0827Y-2.2874
X4.0855Y-2.2019
X4.0984Y-3.626
X4.1535Y-2.8209
X4.1583Y-2.1291
X4.1661Y-3.9224
X4.1831Y-2.4528
X4.2047Y-2.6299
X4.2382Y-2.8091
X4.252Y-3.3984
X4.2575Y-3.5075
X4.2606Y-3.2843
X4.261Y-4.5256
X4.2874Y-3.4488
X4.2925Y-3.3398
X4.2969Y-3.2201
X4.3161Y-3.3965
X4.3217Y-3.5067
X4.328Y-3.2732
X4.3361Y-4.7836
X4.3504Y-3.3323
X4.3579Y-3.4457
X4.3622Y-2.4173
X4.363Y-2.5185
X4.3634Y-3.2189
X4.376Y-5.2008
X4.3785Y-4.5422
X4.389Y-3.2799
X4.3933Y-3.5031
X4.3941Y-3.3933
X4.4209Y-3.3343
X4.4252Y-1.7301
X4.4339Y-3.2209
X4.4339Y-3.4433
X4.4559Y-5.2031
X4.4571Y-4.5303
X4.465Y-3.2787
X4.4713Y-3.5031
X4.4819Y-3.3866
X4.4921Y-2.6102
X4.5035Y-3.3343
X4.513Y-3.2209
X4.5173Y-3.4394
X4.5287Y-2.1217
X4.5449Y-3.5031
X4.5472Y-3.2768
X4.5524Y-3.3902
X4.5626Y-4.0681
X4.5626Y-4.1508
X4.5626Y-4.2299
X4.5677Y-5.1988
X4.5772Y-3.2157
X4.5866Y-3.3268
X4.5976Y-3.4413
X4.6035Y-4.1925
X4.6087Y-4.1102
X4.6181Y-3.689
X4.6189Y-3.7689
X4.622Y-3.8583
X4.6232Y-3.2807
X4.6283Y-3.5024
X4.6339Y-2.6181
X4.6358Y-3.3941
X4.6362Y-2.1409
X4.6378Y-2.5394
X4.6417Y-4.2287
X4.6437Y-4.0697
X4.6437Y-4.1508
X4.6547Y-3.2197
X4.6583Y-3.7256
X4.6583Y-3.8177
X4.6705Y-3.3299
X4.6724Y-3.4441
X4.6811Y-4.1898
X4.6839Y-4.1087
X4.6945Y-3.7732
X4.6972Y-3.6878
X4.6972Y-3.8606
X4.7189Y-4.0669
X4.7189Y-4.2287
X4.7224Y-4.1488
X4.7346Y-3.7268
X4.7374Y-3.8197
X4.7461Y-2.5138
X4.7516Y-4.1031
X4.752Y-4.1921
X4.7594Y-1.5555
X4.7701Y-3.6858
X4.7709Y-2.1413
X4.7799Y-3.7724
X4.7819Y-3.8571
X4.7953Y-2.6083
X4.7953Y-4.2244
X4.7965Y-4.0669
X4.7972Y-4.148
X4.813Y-1.9205
X4.8154Y-3.8205
X4.848Y-3.774
X4.8528Y-3.8606
X4.8933Y-3.8228
X4.9327Y-3.7732
X4.9539Y-1.9441
X4.9665Y-2.6181
X4.9783Y-2.0949
X5.0118Y-2.4882
X5.0154Y-2.0409
X5.0638Y-3.7835
X5.0846Y-2.5571
X5.1437Y-2.5177
X5.1693Y-1.9173
X5.298Y-2.2079
X5.3169Y-3.0189
X5.3169Y-3.4311
X5.3177Y-3.0913
X5.3189Y-5.0244
X5.3197Y-3.2213
X5.3197Y-3.5327
X5.3197Y-3.6567
X5.3209Y-3.3142
X5.3228Y-3.7528
X5.3425Y-4.9508
X5.3677Y-4.7259
X5.3996Y-4.8976
X5.4984Y-1.9807
X5.6142Y-4.2512
X5.6142Y-4.3185
X5.6142Y-4.3752
T3
X1.8346Y-4.7087
X2.6732Y-4.8425
X2.7362Y-4.7445
X3.5197Y-4.8504
X3.5878Y-4.7846
X4.0535Y-3.8563
X4.1693Y-3.9685
X4.178Y-3.8705
X4.3701Y-4.8425
X4.4252Y-4.7441
X4.4488Y-4.8465
X5.3957Y-2.2008
X5.3976Y-2.313
X5.4622Y-2.1673
X5.5465Y-2.2569
X5.5472Y-2.1654
X5.6056Y-2.502
X5.6057Y-2.3181
X5.6072Y-2.4126
X5.6417Y-2.1831
T4
X2.82Y-4.46
X2.82Y-4.96
X2.92Y-4.46
X2.92Y-4.96
X3.02Y-4.46
X3.02Y-4.96
X3.12Y-4.46
X3.12Y-4.96
X3.22Y-4.46
X3.22Y-4.96
X3.32Y-4.46
X3.32Y-4.96
X3.42Y-4.46
X3.42Y-4.96
X3.52Y-4.46
X3.52Y-4.96
X1.97Y-4.46
X1.97Y-4.96
X2.07Y-4.46
X2.07Y-4.96
X2.17Y-4.46
X2.17Y-4.96
X2.27Y-4.46
X2.27Y-4.96
X2.37Y-4.46
X2.37Y-4.96
X2.47Y-4.46
X2.47Y-4.96
X2.57Y-4.46
X2.57Y-4.96
X2.67Y-4.46
X2.67Y-4.96
X3.67Y-4.46
X3.67Y-4.96
X3.77Y-4.46
X3.77Y-4.96
X3.87Y-4.46
X3.87Y-4.96
X3.97Y-4.46
X3.97Y-4.96
X4.07Y-4.46
X4.07Y-4.96
X4.17Y-4.46
X4.17Y-4.96
X4.27Y-4.46
X4.27Y-4.96
X4.37Y-4.46
X4.37Y-4.96
X4.51Y-4.46
X4.51Y-4.96
X4.61Y-4.46
X4.61Y-4.96
X4.71Y-4.46
X4.71Y-4.96
X4.81Y-4.46
X4.81Y-4.96
X4.91Y-4.46
X4.91Y-4.96
X5.01Y-4.46
X5.01Y-4.96
X5.11Y-4.46
X5.11Y-4.96
X5.21Y-4.46
X5.21Y-4.96
T5
X3.7288Y-1.6276
X3.9257Y-1.6276
T6
X3.16Y-3.48
X3.26Y-3.48
X3.36Y-3.48
X3.46Y-3.48
X3.4386Y-1.5424
X3.4386Y-1.6424
X3.4386Y-1.7424
X3.4386Y-1.8424
X3.4386Y-1.9424
X3.4386Y-2.0424
X3.4386Y-2.1424
X3.4386Y-2.2424
X1.9055Y-3.7835
X1.9055Y-3.8835
X5.1102Y-4.6071
X5.1102Y-4.7071
X5.1102Y-4.8071
X4.91Y-4.6076
X4.91Y-4.7076
X4.91Y-4.8076
X3.119Y-4.61
X3.119Y-4.71
X3.119Y-4.81
X2.2569Y-4.1566
X2.3569Y-4.1566
X2.4569Y-4.1566
X2.47Y-4.61
X2.47Y-4.71
X2.47Y-4.81
X5.6152Y-4.8553
X5.6152Y-4.9553
X4.81Y-4.6076
X4.81Y-4.7076
X4.81Y-4.8076
X3.42Y-4.61
X3.42Y-4.71
X3.42Y-4.81
X2.3912Y-1.5424
X2.3912Y-1.6424
X2.3912Y-1.7424
X2.3912Y-1.8424
X2.3912Y-1.9424
X2.3912Y-2.0424
X2.3912Y-2.1424
X2.3912Y-2.2424
X2.3912Y-2.3424
X2.3912Y-2.4424
X3.25Y-4.27
X3.35Y-4.27
X3.45Y-4.27
X3.55Y-4.27
X2.6053Y-2.4482
X2.7053Y-2.4482
X2.8053Y-2.4482
X2.9053Y-2.4482
X3.0053Y-2.4482
X3.1053Y-2.4482
X3.2053Y-2.4482
X3.3053Y-2.4482
X3.4053Y-2.4482
X3.5053Y-2.4482
X2.2569Y-4.2566
X2.3569Y-4.2566
X2.4569Y-4.2566
X3.959Y-4.61
X3.959Y-4.71
X3.959Y-4.81
X5.215Y-5.2008
X5.315Y-5.2008
X3.32Y-4.61
X3.32Y-4.71
X3.32Y-4.81
X1.9055Y-3.5787
X1.9055Y-3.6787
X4.06Y-4.61
X4.06Y-4.71
X4.06Y-4.81
X4.71Y-5.2
X4.81Y-5.2
X4.91Y-5.2
X5.01Y-5.2
X4.16Y-4.61
X4.16Y-4.71
X4.16Y-4.81
X2.269Y-4.6097
X2.269Y-4.7097
X2.269Y-4.8097
X2.2569Y-3.9566
X2.3569Y-3.9566
X2.4569Y-3.9566
X4.26Y-4.61
X4.26Y-4.71
X4.26Y-4.81
X3.02Y-5.2
X3.12Y-5.2
X3.22Y-5.2
X3.32Y-5.2
X3.87Y-5.2
X3.97Y-5.2
X4.07Y-5.2
X4.17Y-5.2
X5.01Y-4.6071
X5.01Y-4.7071
X5.01Y-4.8071
X3.22Y-4.61
X3.22Y-4.71
X3.22Y-4.81
X5.6142Y-4.5531
X5.6142Y-4.6531
X2.37Y-4.61
X2.37Y-4.71
X2.37Y-4.81
X2.2569Y-4.0566
X2.3569Y-4.0566
X2.4569Y-4.0566
X1.92Y-2.23
X1.92Y-2.33
X1.92Y-2.43
X1.92Y-2.53
X1.92Y-2.63
X1.92Y-2.73
X1.92Y-2.83
X1.92Y-2.93
X2.17Y-5.2
X2.27Y-5.2
X2.37Y-5.2
X2.47Y-5.2
X2.57Y-4.61
X2.57Y-4.71
X2.57Y-4.81
T7
X2.94Y-2.78
X2.94Y-2.88
X2.94Y-2.98
X2.94Y-3.08
X2.94Y-3.18
X3.04Y-2.78
X3.04Y-2.88
X3.04Y-2.98
X3.04Y-3.08
X3.04Y-3.18
X3.38Y-2.85
X3.38Y-2.95
X3.38Y-3.05
X3.38Y-3.15
X3.48Y-2.85
X3.48Y-2.95
X3.48Y-3.05
X3.48Y-3.15
T8
X5.4281Y-2.6752
X5.4281Y-2.8752
X5.4281Y-3.0752
X5.4281Y-3.2752
X5.4281Y-3.9203
X5.4281Y-4.1203
X5.4281Y-3.498
X5.4281Y-3.698
T3
X3.6894Y-1.5351G85X3.6894Y-1.5075
G05
X3.965Y-1.5075G85X3.965Y-1.5351
G05
T0
M30
