G04 #@! TF.GenerationSoftware,KiCad,Pcbnew,5.0.2-bee76a0~70~ubuntu18.04.1*
G04 #@! TF.CreationDate,2019-11-03T09:41:24+09:00*
G04 #@! TF.ProjectId,MRR_ESPE,4d52525f-4553-4504-952e-6b696361645f,v0.5*
G04 #@! TF.SameCoordinates,Original*
G04 #@! TF.FileFunction,Paste,Bot*
G04 #@! TF.FilePolarity,Positive*
%FSLAX46Y46*%
G04 Gerber Fmt 4.6, Leading zero omitted, Abs format (unit mm)*
G04 Created by KiCad (PCBNEW 5.0.2-bee76a0~70~ubuntu18.04.1) date Sun 03 Nov 2019 09:41:24 AM JST*
%MOMM*%
%LPD*%
G01*
G04 APERTURE LIST*
%ADD10C,0.254000*%
G04 APERTURE END LIST*
D10*
G36*
X52959000Y-67183000D02*
X44577000Y-67183000D01*
X44577000Y-59309000D01*
X52959000Y-59309000D01*
X52959000Y-67183000D01*
X52959000Y-67183000D01*
G37*
X52959000Y-67183000D02*
X44577000Y-67183000D01*
X44577000Y-59309000D01*
X52959000Y-59309000D01*
X52959000Y-67183000D01*
G36*
X136779000Y-99187000D02*
X130302000Y-99187000D01*
X130253399Y-99196667D01*
X130212197Y-99224197D01*
X128471394Y-100965000D01*
X126746000Y-100965000D01*
X126697399Y-100974667D01*
X126656197Y-101002197D01*
X125894197Y-101764197D01*
X125866667Y-101805399D01*
X125857000Y-101854000D01*
X125857000Y-103251000D01*
X118237000Y-103251000D01*
X118237000Y-96901000D01*
X127000000Y-96901000D01*
X127048601Y-96891333D01*
X127089803Y-96863803D01*
X129084606Y-94869000D01*
X136779000Y-94869000D01*
X136779000Y-99187000D01*
X136779000Y-99187000D01*
G37*
X136779000Y-99187000D02*
X130302000Y-99187000D01*
X130253399Y-99196667D01*
X130212197Y-99224197D01*
X128471394Y-100965000D01*
X126746000Y-100965000D01*
X126697399Y-100974667D01*
X126656197Y-101002197D01*
X125894197Y-101764197D01*
X125866667Y-101805399D01*
X125857000Y-101854000D01*
X125857000Y-103251000D01*
X118237000Y-103251000D01*
X118237000Y-96901000D01*
X127000000Y-96901000D01*
X127048601Y-96891333D01*
X127089803Y-96863803D01*
X129084606Y-94869000D01*
X136779000Y-94869000D01*
X136779000Y-99187000D01*
G36*
X137033000Y-62103000D02*
X128905000Y-62103000D01*
X128905000Y-57531000D01*
X137033000Y-57531000D01*
X137033000Y-62103000D01*
X137033000Y-62103000D01*
G37*
X137033000Y-62103000D02*
X128905000Y-62103000D01*
X128905000Y-57531000D01*
X137033000Y-57531000D01*
X137033000Y-62103000D01*
G36*
X137033000Y-67183000D02*
X128905000Y-67183000D01*
X128905000Y-63119000D01*
X137033000Y-63119000D01*
X137033000Y-67183000D01*
X137033000Y-67183000D01*
G37*
X137033000Y-67183000D02*
X128905000Y-67183000D01*
X128905000Y-63119000D01*
X137033000Y-63119000D01*
X137033000Y-67183000D01*
G36*
X136779000Y-77597000D02*
X125730000Y-77597000D01*
X125681399Y-77606667D01*
X125640197Y-77634197D01*
X122375394Y-80899000D01*
X118745000Y-80899000D01*
X118745000Y-73279000D01*
X136779000Y-73279000D01*
X136779000Y-77597000D01*
X136779000Y-77597000D01*
G37*
X136779000Y-77597000D02*
X125730000Y-77597000D01*
X125681399Y-77606667D01*
X125640197Y-77634197D01*
X122375394Y-80899000D01*
X118745000Y-80899000D01*
X118745000Y-73279000D01*
X136779000Y-73279000D01*
X136779000Y-77597000D01*
G36*
X117729000Y-81026000D02*
X117738667Y-81074601D01*
X117766197Y-81115803D01*
X118528197Y-81877803D01*
X118569399Y-81905333D01*
X118618000Y-81915000D01*
X122936000Y-81915000D01*
X122984601Y-81905333D01*
X123025803Y-81877803D01*
X126290606Y-78613000D01*
X136779000Y-78613000D01*
X136779000Y-83185000D01*
X128016000Y-83185000D01*
X127967399Y-83194667D01*
X127926197Y-83222197D01*
X123391394Y-87757000D01*
X116892606Y-87757000D01*
X112649000Y-83513394D01*
X112649000Y-81026000D01*
X112639333Y-80977399D01*
X112611803Y-80936197D01*
X112570601Y-80908667D01*
X112522000Y-80899000D01*
X109855000Y-80899000D01*
X109855000Y-75311000D01*
X111760000Y-75311000D01*
X111808601Y-75301333D01*
X111849803Y-75273803D01*
X111877333Y-75232601D01*
X111887000Y-75184000D01*
X111887000Y-73279000D01*
X117729000Y-73279000D01*
X117729000Y-81026000D01*
X117729000Y-81026000D01*
G37*
X117729000Y-81026000D02*
X117738667Y-81074601D01*
X117766197Y-81115803D01*
X118528197Y-81877803D01*
X118569399Y-81905333D01*
X118618000Y-81915000D01*
X122936000Y-81915000D01*
X122984601Y-81905333D01*
X123025803Y-81877803D01*
X126290606Y-78613000D01*
X136779000Y-78613000D01*
X136779000Y-83185000D01*
X128016000Y-83185000D01*
X127967399Y-83194667D01*
X127926197Y-83222197D01*
X123391394Y-87757000D01*
X116892606Y-87757000D01*
X112649000Y-83513394D01*
X112649000Y-81026000D01*
X112639333Y-80977399D01*
X112611803Y-80936197D01*
X112570601Y-80908667D01*
X112522000Y-80899000D01*
X109855000Y-80899000D01*
X109855000Y-75311000D01*
X111760000Y-75311000D01*
X111808601Y-75301333D01*
X111849803Y-75273803D01*
X111877333Y-75232601D01*
X111887000Y-75184000D01*
X111887000Y-73279000D01*
X117729000Y-73279000D01*
X117729000Y-81026000D01*
G36*
X109088276Y-81534000D02*
X109097943Y-81582601D01*
X109125473Y-81623803D01*
X109166675Y-81651333D01*
X109215276Y-81661000D01*
X109596276Y-81661000D01*
X109596276Y-84582000D01*
X109605943Y-84630601D01*
X109633473Y-84671803D01*
X110649473Y-85687803D01*
X110690675Y-85715333D01*
X110739276Y-85725000D01*
X113226670Y-85725000D01*
X116237473Y-88735803D01*
X116278675Y-88763333D01*
X116327276Y-88773000D01*
X123693276Y-88773000D01*
X123741877Y-88763333D01*
X123783079Y-88735803D01*
X128317882Y-84201000D01*
X136774276Y-84201000D01*
X136774276Y-89027000D01*
X129535276Y-89027000D01*
X129486675Y-89036667D01*
X129445473Y-89064197D01*
X125164670Y-93345000D01*
X118359276Y-93345000D01*
X118310675Y-93354667D01*
X118269473Y-93382197D01*
X117036670Y-94615000D01*
X97658276Y-94615000D01*
X97658276Y-81407000D01*
X105405276Y-81407000D01*
X105453877Y-81397333D01*
X105495079Y-81369803D01*
X105522609Y-81328601D01*
X105532276Y-81280000D01*
X105532276Y-75490606D01*
X107743882Y-73279000D01*
X109088276Y-73279000D01*
X109088276Y-81534000D01*
X109088276Y-81534000D01*
G37*
X109088276Y-81534000D02*
X109097943Y-81582601D01*
X109125473Y-81623803D01*
X109166675Y-81651333D01*
X109215276Y-81661000D01*
X109596276Y-81661000D01*
X109596276Y-84582000D01*
X109605943Y-84630601D01*
X109633473Y-84671803D01*
X110649473Y-85687803D01*
X110690675Y-85715333D01*
X110739276Y-85725000D01*
X113226670Y-85725000D01*
X116237473Y-88735803D01*
X116278675Y-88763333D01*
X116327276Y-88773000D01*
X123693276Y-88773000D01*
X123741877Y-88763333D01*
X123783079Y-88735803D01*
X128317882Y-84201000D01*
X136774276Y-84201000D01*
X136774276Y-89027000D01*
X129535276Y-89027000D01*
X129486675Y-89036667D01*
X129445473Y-89064197D01*
X125164670Y-93345000D01*
X118359276Y-93345000D01*
X118310675Y-93354667D01*
X118269473Y-93382197D01*
X117036670Y-94615000D01*
X97658276Y-94615000D01*
X97658276Y-81407000D01*
X105405276Y-81407000D01*
X105453877Y-81397333D01*
X105495079Y-81369803D01*
X105522609Y-81328601D01*
X105532276Y-81280000D01*
X105532276Y-75490606D01*
X107743882Y-73279000D01*
X109088276Y-73279000D01*
X109088276Y-81534000D01*
G36*
X136779000Y-93853000D02*
X128778000Y-93853000D01*
X128729399Y-93862667D01*
X128688197Y-93890197D01*
X126693394Y-95885000D01*
X118999000Y-95885000D01*
X118999000Y-94361000D01*
X125476000Y-94361000D01*
X125524601Y-94351333D01*
X125565803Y-94323803D01*
X130100606Y-89789000D01*
X136779000Y-89789000D01*
X136779000Y-93853000D01*
X136779000Y-93853000D01*
G37*
X136779000Y-93853000D02*
X128778000Y-93853000D01*
X128729399Y-93862667D01*
X128688197Y-93890197D01*
X126693394Y-95885000D01*
X118999000Y-95885000D01*
X118999000Y-94361000D01*
X125476000Y-94361000D01*
X125524601Y-94351333D01*
X125565803Y-94323803D01*
X130100606Y-89789000D01*
X136779000Y-89789000D01*
X136779000Y-93853000D01*
G36*
X136779000Y-72517000D02*
X107442000Y-72517000D01*
X107393399Y-72526667D01*
X107352197Y-72554197D01*
X104812197Y-75094197D01*
X104784667Y-75135399D01*
X104775000Y-75184000D01*
X104775000Y-80645000D01*
X100457000Y-80645000D01*
X100457000Y-71934606D01*
X104192606Y-68199000D01*
X136779000Y-68199000D01*
X136779000Y-72517000D01*
X136779000Y-72517000D01*
G37*
X136779000Y-72517000D02*
X107442000Y-72517000D01*
X107393399Y-72526667D01*
X107352197Y-72554197D01*
X104812197Y-75094197D01*
X104784667Y-75135399D01*
X104775000Y-75184000D01*
X104775000Y-80645000D01*
X100457000Y-80645000D01*
X100457000Y-71934606D01*
X104192606Y-68199000D01*
X136779000Y-68199000D01*
X136779000Y-72517000D01*
M02*
