M48
;DRILL file {KiCad 5.0.2-bee76a0~70~ubuntu18.04.1} date Sun 03 Nov 2019 09:41:22 AM JST
;FORMAT={-:-/ absolute / inch / decimal}
FMAT,2
INCH,TZ
T1C0.0118
T2C0.0157
T3C0.0236
T4C0.0315
T5C0.0335
T6C0.0374
T7C0.0394
T8C0.0400
T9C0.0512
%
G90
G05
T1
X4.1591Y-1.7664
X4.1591Y-1.8136
X4.2024Y-1.7664
X4.2024Y-1.8136
X4.2536Y-1.7664
X4.2536Y-1.8136
X4.3009Y-1.7664
X4.3009Y-1.8136
T2
X1.62Y-2.91
X1.63Y-1.82
X1.63Y-3.01
X1.65Y-5.27
X1.67Y-1.9
X1.69Y-4.63
X1.69Y-4.96
X1.69Y-5.06
X1.76Y-4.31
X1.77Y-1.97
X1.82Y-4.25
X1.83Y-1.64
X1.8302Y-2.0402
X1.85Y-1.76
X1.8583Y-2.4409
X1.8583Y-2.5079
X1.8583Y-2.5669
X1.86Y-1.86
X1.9Y-2.06
X1.9252Y-2.4409
X1.9252Y-2.5079
X1.9252Y-2.5709
X1.95Y-1.95
X1.96Y-1.86
X1.96Y-3.19
X1.96Y-3.45
X1.99Y-2.05
X1.99Y-4.82
X1.9921Y-2.4409
X1.9921Y-2.5079
X1.9921Y-2.5709
X2.01Y-1.72
X2.04Y-2.05
X2.0569Y-3.7126
X2.1Y-3.22
X2.1Y-3.52
X2.18Y-2.01
X2.2Y-2.2
X2.2047Y-3.7126
X2.22Y-2.24
X2.24Y-2.69
X2.25Y-3.26
X2.26Y-3.57
X2.26Y-4.12
X2.28Y-3.48
X2.31Y-4.35
X2.32Y-3.81
X2.33Y-2.75
X2.33Y-4.03
X2.33Y-4.17
X2.3337Y-4.506
X2.3377Y-4.4
X2.34Y-2.79
X2.3585Y-4.92
X2.36Y-3.35
X2.37Y-4.76
X2.39Y-2.38
X2.3948Y-4.3
X2.4Y-2.27
X2.41Y-2.8
X2.41Y-5.46
X2.42Y-2.13
X2.4233Y-4.27
X2.4291Y-5.5433
X2.4298Y-4.2202
X2.43Y-3.38
X2.44Y-4.38
X2.4449Y-3.6496
X2.4449Y-5.3976
X2.4502Y-4.3302
X2.4528Y-3.9094
X2.4567Y-2.4252
X2.4646Y-2.19
X2.47Y-3.07
X2.5Y-4.3
X2.51Y-2.85
X2.5157Y-2.4291
X2.52Y-3.19
X2.53Y-2.02
X2.53Y-2.59
X2.54Y-2.48
X2.54Y-4.13
X2.58Y-2.01
X2.58Y-2.5457
X2.58Y-2.68
X2.5998Y-4.1902
X2.6Y-1.91
X2.6Y-2.19
X2.6024Y-2.4646
X2.62Y-1.8
X2.68Y-2.04
X2.68Y-2.37
X2.69Y-2.43
X2.69Y-3.63
X2.6929Y-3.4921
X2.71Y-2.6936
X2.7385Y-2.4646
X2.76Y-2.04
X2.77Y-3.3
X2.7717Y-3.4331
X2.7795Y-4.0748
X2.78Y-2.75
X2.7835Y-4.1299
X2.7874Y-3.3583
X2.81Y-2.4886
X2.8189Y-4.2215
X2.82Y-1.98
X2.8268Y-2.4291
X2.8346Y-3.6969
X2.84Y-3.19
X2.85Y-2.52
X2.8583Y-1.7874
X2.86Y-2.04
X2.86Y-2.75
X2.86Y-4.3
X2.8661Y-1.85
X2.8701Y-4.14
X2.9055Y-1.937
X2.9094Y-3.4213
X2.9094Y-3.4764
X2.9094Y-3.6024
X2.9134Y-4.
X2.94Y-4.3
X2.95Y-2.04
X2.9606Y-1.8
X2.9606Y-3.9035
X2.97Y-5.43
X2.97Y-5.53
X2.98Y-3.31
X2.99Y-4.65
X2.9952Y-4.4148
X3.0039Y-3.9567
X3.01Y-2.06
X3.01Y-3.03
X3.02Y-4.8
X3.02Y-4.92
X3.0222Y-4.34
X3.0315Y-1.89
X3.04Y-5.47
X3.0401Y-3.1654
X3.0512Y-3.6063
X3.0551Y-3.9331
X3.06Y-2.92
X3.0645Y-3.7505
X3.09Y-3.47
X3.09Y-4.33
X3.0972Y-3.1772
X3.126Y-3.874
X3.1299Y-2.0512
X3.1299Y-3.5276
X3.13Y-4.34
X3.1339Y-3.9715
X3.1457Y-3.6063
X3.1575Y-3.4134
X3.16Y-1.94
X3.16Y-3.03
X3.17Y-2.64
X3.18Y-2.47
X3.189Y-4.07
X3.1929Y-4.
X3.2008Y-3.4843
X3.23Y-2.56
X3.23Y-2.66
X3.23Y-2.81
X3.2323Y-3.2992
X3.2559Y-2.0787
X3.2559Y-3.7717
X3.27Y-1.81
X3.2717Y-3.8543
X3.2802Y-3.0715
X3.2874Y-3.4291
X3.2887Y-3.5787
X3.29Y-3.2363
X3.2909Y-1.9409
X3.2953Y-2.0433
X3.3198Y-3.2998
X3.3237Y-3.3956
X3.3523Y-3.3677
X3.3596Y-3.82
X3.3622Y-2.0709
X3.3808Y-3.62
X3.4098Y-3.8702
X3.4189Y-3.5108
X3.42Y-2.2
X3.42Y-2.3185
X3.42Y-3.35
X3.43Y-1.77
X3.43Y-2.91
X3.4352Y-3.2652
X3.45Y-3.61
X3.46Y-3.3
X3.47Y-2.18
X3.48Y-2.88
X3.49Y-2.56
X3.49Y-2.67
X3.497Y-3.5358
X3.5Y-3.41
X3.51Y-3.65
X3.5342Y-2.56
X3.563Y-1.8661
X3.59Y-2.3
X3.5928Y-3.1445
X3.6Y-2.72
X3.62Y-5.45
X3.65Y-2.71
X3.65Y-5.54
X3.6515Y-4.65
X3.6523Y-3.24
X3.66Y-2.88
X3.68Y-3.18
X3.68Y-4.78
X3.68Y-4.91
X3.69Y-2.58
X3.69Y-5.43
X3.7085Y-4.39
X3.71Y-5.05
X3.72Y-3.84
X3.745Y-3.248
X3.75Y-2.8
X3.75Y-4.29
X3.75Y-5.5
X3.7597Y-3.8303
X3.76Y-3.99
X3.78Y-2.39
X3.78Y-2.61
X3.78Y-4.04
X3.78Y-4.4
X3.7815Y-3.28
X3.7998Y-3.8302
X3.81Y-3.25
X3.84Y-3.83
X3.85Y-4.27
X3.86Y-3.79
X3.8701Y-3.1614
X3.8734Y-4.0066
X3.89Y-3.44
X3.89Y-3.55
X3.8937Y-1.9409
X3.9Y-3.33
X3.92Y-3.49
X3.92Y-3.61
X3.93Y-3.29
X3.93Y-3.38
X3.94Y-3.68
X3.95Y-3.55
X3.96Y-3.33
X3.96Y-3.44
X3.96Y-4.33
X3.97Y-2.62
X3.98Y-3.61
X3.99Y-3.29
X3.99Y-3.49
X3.9921Y-2.8858
X4.Y-3.38
X4.Y-3.55
X4.Y-4.32
X4.01Y-3.07
X4.01Y-4.08
X4.0157Y-2.6772
X4.02Y-3.01
X4.02Y-3.11
X4.02Y-3.33
X4.02Y-3.68
X4.02Y-3.9563
X4.03Y-3.16
X4.03Y-3.44
X4.03Y-3.61
X4.0315Y-3.8307
X4.0394Y-2.9646
X4.05Y-3.29
X4.05Y-3.49
X4.0591Y-2.7874
X4.06Y-2.36
X4.06Y-3.38
X4.06Y-3.55
X4.0698Y-3.9402
X4.07Y-1.84
X4.08Y-3.02
X4.08Y-3.1
X4.08Y-3.33
X4.08Y-3.68
X4.08Y-4.28
X4.0827Y-2.8976
X4.09Y-3.15
X4.09Y-3.44
X4.09Y-3.61
X4.1Y-2.96
X4.1Y-3.29
X4.1Y-4.04
X4.11Y-3.55
X4.12Y-3.38
X4.12Y-3.49
X4.126Y-2.7756
X4.13Y-3.68
X4.14Y-3.33
X4.14Y-3.61
X4.1457Y-2.5118
X4.16Y-3.44
X4.1654Y-2.7126
X4.17Y-3.29
X4.17Y-3.49
X4.17Y-3.55
X4.18Y-3.38
X4.19Y-3.61
X4.19Y-3.68
X4.21Y-3.33
X4.21Y-3.44
X4.22Y-3.55
X4.23Y-2.35
X4.23Y-3.49
X4.24Y-3.29
X4.24Y-3.38
X4.25Y-2.3
X4.25Y-3.61
X4.25Y-4.21
X4.26Y-3.68
X4.27Y-3.33
X4.27Y-3.44
X4.28Y-3.55
X4.31Y-2.72
X4.31Y-3.68
X4.31Y-5.41
X4.3152Y-4.3848
X4.32Y-3.39
X4.33Y-5.04
X4.34Y-3.47
X4.3402Y-4.4398
X4.35Y-1.9
X4.35Y-2.77
X4.35Y-2.98
X4.35Y-3.15
X4.35Y-5.51
X4.36Y-3.55
X4.36Y-3.62
X4.36Y-4.81
X4.36Y-4.89
X4.36Y-5.23
X4.37Y-4.15
X4.37Y-5.43
X4.38Y-3.68
X4.38Y-4.11
X4.3928Y-3.04
X4.3976Y-2.5
X4.41Y-2.13
X4.43Y-3.52
X4.43Y-3.61
X4.43Y-5.51
X4.44Y-2.73
X4.44Y-3.47
X4.4409Y-4.0709
X4.4488Y-3.8031
X4.45Y-3.07
X4.45Y-3.41
X4.45Y-3.68
X4.4569Y-3.1769
X4.46Y-2.32
X4.46Y-4.39
X4.47Y-2.96
X4.48Y-1.69
X4.49Y-3.55
X4.5Y-3.02
X4.5Y-3.67
X4.5Y-4.19
X4.51Y-1.93
X4.51Y-2.5
X4.51Y-3.11
X4.51Y-3.48
X4.52Y-4.07
X4.53Y-3.18
X4.54Y-3.34
X4.55Y-3.62
X4.5512Y-2.9409
X4.56Y-2.72
X4.57Y-3.54
X4.5709Y-3.0315
X4.5787Y-3.0984
X4.58Y-3.69
X4.59Y-1.91
X4.5906Y-3.2205
X4.6Y-2.77
X4.61Y-3.29
X4.62Y-1.64
X4.62Y-2.26
X4.62Y-3.6043
X4.64Y-3.39
X4.64Y-3.55
X4.65Y-3.64
X4.66Y-1.93
X4.67Y-2.74
X4.68Y-2.81
X4.69Y-3.6043
X4.71Y-3.33
X4.71Y-3.85
X4.71Y-3.95
X4.7165Y-3.063
X4.7165Y-3.1417
X4.73Y-1.63
X4.73Y-3.
X4.74Y-2.93
X4.74Y-3.54
X4.74Y-3.9
X4.74Y-4.02
X4.76Y-2.74
X4.76Y-3.1
X4.76Y-3.43
X4.77Y-3.6043
X4.77Y-3.85
X4.77Y-3.95
X4.7835Y-3.0354
X4.8Y-1.99
X4.8Y-3.28
X4.8Y-3.9
X4.8031Y-3.1457
X4.81Y-2.8
X4.81Y-3.54
X4.81Y-4.02
X4.815Y-3.3661
X4.82Y-2.73
X4.82Y-3.65
X4.83Y-2.57
X4.83Y-3.08
X4.83Y-3.6043
X4.83Y-3.85
X4.83Y-3.95
X4.84Y-2.92
X4.85Y-3.02
X4.8593Y-4.3141
X4.86Y-3.9
X4.87Y-3.54
X4.87Y-4.02
X4.88Y-1.65
X4.88Y-2.28
X4.89Y-3.6043
X4.9Y-3.85
X4.9Y-3.95
X4.91Y-2.33
X4.91Y-2.5652
X4.91Y-2.72
X4.91Y-3.06
X4.91Y-3.34
X4.9134Y-2.9409
X4.93Y-3.26
X4.94Y-3.48
X4.95Y-2.2
X4.95Y-2.5652
X4.95Y-3.55
X4.95Y-3.62
X4.96Y-1.74
X4.96Y-1.99
X4.96Y-5.42
X4.96Y-5.51
X4.97Y-2.98
X4.98Y-2.44
X4.99Y-1.66
X4.99Y-2.3
X4.99Y-2.75
X4.99Y-3.29
X4.99Y-3.72
X4.99Y-3.94
X5.Y-2.5652
X5.Y-3.43
X5.Y-3.5
X5.01Y-2.8
X5.01Y-3.2
X5.03Y-3.86
X5.04Y-2.
X5.04Y-2.92
X5.04Y-4.77
X5.05Y-3.02
X5.05Y-3.36
X5.05Y-3.51
X5.05Y-3.67
X5.06Y-3.79
X5.07Y-3.43
X5.08Y-2.83
X5.08Y-3.61
X5.09Y-3.9
X5.1Y-2.22
X5.12Y-3.47
X5.15Y-2.13
X5.17Y-4.6
X5.18Y-4.09
X5.18Y-4.16
X5.2Y-2.22
X5.21Y-4.34
X5.22Y-4.04
X5.22Y-4.3
X5.23Y-2.11
X5.23Y-4.87
X5.24Y-3.33
X5.24Y-4.59
X5.25Y-2.3
X5.25Y-2.72
X5.25Y-2.83
X5.25Y-3.45
X5.26Y-3.55
X5.26Y-3.68
X5.26Y-4.01
X5.26Y-4.92
X5.27Y-2.42
X5.27Y-2.53
X5.27Y-2.61
X5.27Y-3.02
X5.27Y-3.14
X5.27Y-3.39
X5.27Y-3.87
X5.28Y-2.93
X5.29Y-2.78
X5.29Y-3.23
X5.29Y-3.79
X5.3Y-2.36
X5.31Y-1.62
X5.31Y-2.57
X5.31Y-4.
X5.32Y-2.3
X5.32Y-3.36
X5.32Y-3.6103
X5.32Y-4.92
X5.33Y-1.88
X5.33Y-3.44
X5.34Y-2.73
X5.34Y-3.
X5.35Y-2.23
X5.35Y-2.82
X5.35Y-2.92
X5.35Y-3.16
X5.35Y-3.55
X5.35Y-3.68
X5.35Y-3.86
X5.36Y-2.14
X5.36Y-2.42
X5.36Y-2.52
X5.36Y-2.61
X5.36Y-5.28
X5.37Y-2.34
X5.4449Y-4.6732
X5.5157Y-4.3543
X5.52Y-2.04
X5.52Y-2.09
X5.52Y-2.18
X5.52Y-2.24
X5.52Y-2.65
X5.52Y-2.72
X5.52Y-3.05
X5.52Y-3.42
X5.52Y-3.51
X5.52Y-3.87
X5.52Y-3.93
X5.52Y-4.13
X5.52Y-4.69
X5.52Y-4.8
X5.52Y-4.9
X5.52Y-5.3
X5.55Y-1.86
T4
X4.44Y-4.5
X4.44Y-4.6
X4.44Y-4.7
X4.44Y-4.8
X4.44Y-4.9
X4.44Y-5.
X4.44Y-5.1
X4.44Y-5.2
X4.94Y-4.5
X4.94Y-4.6
X4.94Y-4.7
X4.94Y-4.8
X4.94Y-4.9
X4.94Y-5.
X4.94Y-5.1
X4.94Y-5.2
X1.76Y-4.5
X1.76Y-4.6
X1.76Y-4.7
X1.76Y-4.8
X1.76Y-4.9
X1.76Y-5.
X1.76Y-5.1
X1.76Y-5.2
X2.26Y-4.5
X2.26Y-4.6
X2.26Y-4.7
X2.26Y-4.8
X2.26Y-4.9
X2.26Y-5.
X2.26Y-5.1
X2.26Y-5.2
X3.77Y-4.5
X3.77Y-4.6
X3.77Y-4.7
X3.77Y-4.8
X3.77Y-4.9
X3.77Y-5.
X3.77Y-5.1
X3.77Y-5.2
X4.27Y-4.5
X4.27Y-4.6
X4.27Y-4.7
X4.27Y-4.8
X4.27Y-4.9
X4.27Y-5.
X4.27Y-5.1
X4.27Y-5.2
X3.1Y-4.5
X3.1Y-4.6
X3.1Y-4.7
X3.1Y-4.8
X3.1Y-4.9
X3.1Y-5.
X3.1Y-5.1
X3.1Y-5.2
X3.6Y-4.5
X3.6Y-4.6
X3.6Y-4.7
X3.6Y-4.8
X3.6Y-4.9
X3.6Y-5.
X3.6Y-5.1
X3.6Y-5.2
X2.43Y-4.5
X2.43Y-4.6
X2.43Y-4.7
X2.43Y-4.8
X2.43Y-4.9
X2.43Y-5.
X2.43Y-5.1
X2.43Y-5.2
X2.93Y-4.5
X2.93Y-4.6
X2.93Y-4.7
X2.93Y-4.8
X2.93Y-4.9
X2.93Y-5.
X2.93Y-5.1
X2.93Y-5.2
T5
X3.7047Y-1.7662
X3.9016Y-1.7662
T6
X2.2362Y-3.811
X2.2362Y-3.9094
X2.2362Y-4.0079
X1.9921Y-3.811
X1.9921Y-3.9094
X1.9921Y-4.0079
X2.6654Y-3.811
X2.6654Y-3.9094
X2.6654Y-4.0079
X1.748Y-3.811
X1.748Y-3.9094
X1.748Y-4.0079
T7
X2.594Y-4.6021
X2.694Y-4.6021
X2.794Y-4.6021
X5.25Y-4.74
X5.35Y-4.74
X3.9369Y-4.3961
X4.0369Y-4.3961
X4.1369Y-4.3961
X3.87Y-5.46
X3.97Y-5.46
X4.07Y-5.46
X4.17Y-5.46
X3.9374Y-4.5961
X4.0374Y-4.5961
X4.1374Y-4.5961
X5.09Y-4.47
X5.19Y-4.47
X5.4Y-5.06
X5.4Y-5.16
X3.8701Y-2.737
X3.8701Y-2.837
X3.8701Y-2.937
X2.0236Y-5.46
X2.1236Y-5.46
X2.2236Y-5.46
X2.3236Y-5.46
X2.594Y-4.4011
X2.694Y-4.4011
X2.794Y-4.4011
X2.14Y-1.75
X2.14Y-1.85
X2.24Y-1.75
X2.24Y-1.85
X2.34Y-1.75
X2.34Y-1.85
X2.44Y-1.75
X2.44Y-1.85
X2.54Y-1.75
X2.54Y-1.85
X2.594Y-4.5021
X2.694Y-4.5021
X2.794Y-4.5021
X4.65Y-4.16
X4.75Y-4.16
X4.85Y-4.16
X1.9241Y-4.5022
X2.0241Y-4.5022
X2.1241Y-4.5022
X1.9241Y-4.6022
X2.0241Y-4.6022
X2.1241Y-4.6022
X4.6018Y-4.4041
X4.7018Y-4.4041
X4.8018Y-4.4041
X3.2Y-5.42
X3.2Y-5.52
X3.3Y-5.42
X3.3Y-5.52
X3.4Y-5.42
X3.4Y-5.52
X3.5Y-5.42
X3.5Y-5.52
X2.71Y-2.88
X2.71Y-2.98
X1.7Y-3.62
X1.8Y-3.62
X3.2659Y-4.6972
X3.3659Y-4.6972
X3.4659Y-4.6972
X5.4016Y-4.4606
X5.4016Y-4.5606
X3.57Y-3.3
X3.57Y-3.4
X3.57Y-3.5
X3.57Y-3.6
X3.57Y-3.7
X3.67Y-3.3
X3.67Y-3.4
X3.67Y-3.5
X3.67Y-3.6
X3.67Y-3.7
X4.6018Y-4.6041
X4.7018Y-4.6041
X4.8018Y-4.6041
X2.594Y-4.7021
X2.694Y-4.7021
X2.794Y-4.7021
X2.5906Y-5.46
X2.6906Y-5.46
X2.7906Y-5.46
X2.8906Y-5.46
X3.2659Y-4.3962
X3.3659Y-4.3962
X3.4659Y-4.3962
X3.27Y-4.
X3.37Y-4.
X3.47Y-4.
X3.57Y-4.
X3.67Y-4.
X3.9374Y-4.6964
X4.0374Y-4.6964
X4.1374Y-4.6964
X3.9369Y-4.4961
X4.0369Y-4.4961
X4.1369Y-4.4961
X4.29Y-3.83
X4.29Y-3.93
X4.29Y-4.03
X1.7Y-3.22
X1.8Y-3.22
X5.08Y-5.08
X5.08Y-5.18
X3.2659Y-4.5972
X3.3659Y-4.5972
X3.4659Y-4.5972
X1.9244Y-4.4012
X2.0244Y-4.4012
X2.1244Y-4.4012
X4.6018Y-4.7041
X4.7018Y-4.7041
X4.8018Y-4.7041
X2.7283Y-1.7031
X2.7283Y-1.8031
X3.2659Y-4.4972
X3.3659Y-4.4972
X3.4659Y-4.4972
X4.54Y-5.46
X4.64Y-5.46
X4.74Y-5.46
X4.84Y-5.46
X5.115Y-5.4014
X5.215Y-5.4014
X5.4Y-4.09
X5.4Y-4.19
X3.7717Y-2.122
X3.8717Y-2.122
X3.9717Y-2.122
X1.9241Y-4.7022
X2.0241Y-4.7022
X2.1241Y-4.7022
X3.44Y-3.11
X3.54Y-3.11
X3.64Y-3.11
X1.7Y-3.42
X1.8Y-3.42
X4.6018Y-4.5041
X4.7018Y-4.5041
X4.8018Y-4.5041
T8
X3.31Y-2.46
X3.31Y-2.56
X3.31Y-2.66
X3.31Y-2.76
X3.41Y-2.46
X3.41Y-2.56
X3.41Y-2.66
X3.41Y-2.76
X2.93Y-2.46
X2.93Y-2.56
X2.93Y-2.66
X2.93Y-2.76
X2.93Y-2.86
X3.03Y-2.46
X3.03Y-2.56
X3.03Y-2.66
X3.03Y-2.76
X3.03Y-2.86
T9
X5.1581Y-3.6103
X5.1581Y-3.8103
X5.1581Y-2.3652
X5.1581Y-2.5652
X5.1581Y-2.7652
X5.1581Y-2.9652
X5.1581Y-3.188
X5.1581Y-3.388
T3
X3.6654Y-1.6737G85X3.6654Y-1.6462
G05
X3.9409Y-1.6462G85X3.9409Y-1.6737
G05
T0
M30
