G04 #@! TF.GenerationSoftware,KiCad,Pcbnew,5.0.2-bee76a0~70~ubuntu18.04.1*
G04 #@! TF.CreationDate,2019-12-09T23:25:51+09:00*
G04 #@! TF.ProjectId,LCD_adapter,4c43445f-6164-4617-9074-65722e6b6963,rev?*
G04 #@! TF.SameCoordinates,Original*
G04 #@! TF.FileFunction,Soldermask,Bot*
G04 #@! TF.FilePolarity,Negative*
%FSLAX46Y46*%
G04 Gerber Fmt 4.6, Leading zero omitted, Abs format (unit mm)*
G04 Created by KiCad (PCBNEW 5.0.2-bee76a0~70~ubuntu18.04.1) date Mon 09 Dec 2019 11:25:51 PM JST*
%MOMM*%
%LPD*%
G01*
G04 APERTURE LIST*
%ADD10C,0.100000*%
G04 APERTURE END LIST*
D10*
G36*
X92119294Y-121308633D02*
X92291694Y-121360931D01*
X92291696Y-121360932D01*
X92450583Y-121445859D01*
X92450585Y-121445860D01*
X92450584Y-121445860D01*
X92589849Y-121560151D01*
X92704140Y-121699416D01*
X92789069Y-121858306D01*
X92841367Y-122030706D01*
X92859025Y-122210000D01*
X92841367Y-122389294D01*
X92803843Y-122512991D01*
X92789068Y-122561696D01*
X92704141Y-122720583D01*
X92589849Y-122859849D01*
X92450583Y-122974141D01*
X92291696Y-123059068D01*
X92291694Y-123059069D01*
X92119294Y-123111367D01*
X91984931Y-123124600D01*
X91895069Y-123124600D01*
X91760706Y-123111367D01*
X91588306Y-123059069D01*
X91588304Y-123059068D01*
X91429417Y-122974141D01*
X91290151Y-122859849D01*
X91175859Y-122720583D01*
X91090932Y-122561696D01*
X91076157Y-122512991D01*
X91038633Y-122389294D01*
X91020975Y-122210000D01*
X91038633Y-122030706D01*
X91090931Y-121858306D01*
X91175860Y-121699416D01*
X91290151Y-121560151D01*
X91429416Y-121445860D01*
X91429415Y-121445860D01*
X91429417Y-121445859D01*
X91588304Y-121360932D01*
X91588306Y-121360931D01*
X91760706Y-121308633D01*
X91895069Y-121295400D01*
X91984931Y-121295400D01*
X92119294Y-121308633D01*
X92119294Y-121308633D01*
G37*
G36*
X89579294Y-121308633D02*
X89751694Y-121360931D01*
X89751696Y-121360932D01*
X89910583Y-121445859D01*
X89910585Y-121445860D01*
X89910584Y-121445860D01*
X90049849Y-121560151D01*
X90164140Y-121699416D01*
X90249069Y-121858306D01*
X90301367Y-122030706D01*
X90319025Y-122210000D01*
X90301367Y-122389294D01*
X90263843Y-122512991D01*
X90249068Y-122561696D01*
X90164141Y-122720583D01*
X90049849Y-122859849D01*
X89910583Y-122974141D01*
X89751696Y-123059068D01*
X89751694Y-123059069D01*
X89579294Y-123111367D01*
X89444931Y-123124600D01*
X89355069Y-123124600D01*
X89220706Y-123111367D01*
X89048306Y-123059069D01*
X89048304Y-123059068D01*
X88889417Y-122974141D01*
X88750151Y-122859849D01*
X88635859Y-122720583D01*
X88550932Y-122561696D01*
X88536157Y-122512991D01*
X88498633Y-122389294D01*
X88480975Y-122210000D01*
X88498633Y-122030706D01*
X88550931Y-121858306D01*
X88635860Y-121699416D01*
X88750151Y-121560151D01*
X88889416Y-121445860D01*
X88889415Y-121445860D01*
X88889417Y-121445859D01*
X89048304Y-121360932D01*
X89048306Y-121360931D01*
X89220706Y-121308633D01*
X89355069Y-121295400D01*
X89444931Y-121295400D01*
X89579294Y-121308633D01*
X89579294Y-121308633D01*
G37*
G36*
X100910443Y-121115519D02*
X100976627Y-121122037D01*
X101089853Y-121156384D01*
X101146467Y-121173557D01*
X101285087Y-121247652D01*
X101302991Y-121257222D01*
X101338729Y-121286552D01*
X101440186Y-121369814D01*
X101502594Y-121445860D01*
X101552778Y-121507009D01*
X101552779Y-121507011D01*
X101636443Y-121663533D01*
X101636443Y-121663534D01*
X101687963Y-121833373D01*
X101705359Y-122010000D01*
X101687963Y-122186627D01*
X101653616Y-122299853D01*
X101636443Y-122356467D01*
X101618896Y-122389294D01*
X101552778Y-122512991D01*
X101523448Y-122548729D01*
X101440186Y-122650186D01*
X101338729Y-122733448D01*
X101302991Y-122762778D01*
X101302989Y-122762779D01*
X101146467Y-122846443D01*
X101102272Y-122859849D01*
X100976627Y-122897963D01*
X100910443Y-122904481D01*
X100844260Y-122911000D01*
X100755740Y-122911000D01*
X100689557Y-122904481D01*
X100623373Y-122897963D01*
X100497728Y-122859849D01*
X100453533Y-122846443D01*
X100297011Y-122762779D01*
X100297009Y-122762778D01*
X100261271Y-122733448D01*
X100159814Y-122650186D01*
X100076552Y-122548729D01*
X100047222Y-122512991D01*
X99981104Y-122389294D01*
X99963557Y-122356467D01*
X99946384Y-122299853D01*
X99912037Y-122186627D01*
X99894641Y-122010000D01*
X99912037Y-121833373D01*
X99963557Y-121663534D01*
X99963557Y-121663533D01*
X100047221Y-121507011D01*
X100047222Y-121507009D01*
X100097406Y-121445860D01*
X100159814Y-121369814D01*
X100261271Y-121286552D01*
X100297009Y-121257222D01*
X100314913Y-121247652D01*
X100453533Y-121173557D01*
X100510147Y-121156384D01*
X100623373Y-121122037D01*
X100689557Y-121115519D01*
X100755740Y-121109000D01*
X100844260Y-121109000D01*
X100910443Y-121115519D01*
X100910443Y-121115519D01*
G37*
G36*
X103450443Y-121115519D02*
X103516627Y-121122037D01*
X103629853Y-121156384D01*
X103686467Y-121173557D01*
X103825087Y-121247652D01*
X103842991Y-121257222D01*
X103878729Y-121286552D01*
X103980186Y-121369814D01*
X104042594Y-121445860D01*
X104092778Y-121507009D01*
X104092779Y-121507011D01*
X104176443Y-121663533D01*
X104176443Y-121663534D01*
X104227963Y-121833373D01*
X104245359Y-122010000D01*
X104227963Y-122186627D01*
X104193616Y-122299853D01*
X104176443Y-122356467D01*
X104158896Y-122389294D01*
X104092778Y-122512991D01*
X104063448Y-122548729D01*
X103980186Y-122650186D01*
X103878729Y-122733448D01*
X103842991Y-122762778D01*
X103842989Y-122762779D01*
X103686467Y-122846443D01*
X103642272Y-122859849D01*
X103516627Y-122897963D01*
X103450443Y-122904481D01*
X103384260Y-122911000D01*
X103295740Y-122911000D01*
X103229557Y-122904481D01*
X103163373Y-122897963D01*
X103037728Y-122859849D01*
X102993533Y-122846443D01*
X102837011Y-122762779D01*
X102837009Y-122762778D01*
X102801271Y-122733448D01*
X102699814Y-122650186D01*
X102616552Y-122548729D01*
X102587222Y-122512991D01*
X102521104Y-122389294D01*
X102503557Y-122356467D01*
X102486384Y-122299853D01*
X102452037Y-122186627D01*
X102434641Y-122010000D01*
X102452037Y-121833373D01*
X102503557Y-121663534D01*
X102503557Y-121663533D01*
X102587221Y-121507011D01*
X102587222Y-121507009D01*
X102637406Y-121445860D01*
X102699814Y-121369814D01*
X102801271Y-121286552D01*
X102837009Y-121257222D01*
X102854913Y-121247652D01*
X102993533Y-121173557D01*
X103050147Y-121156384D01*
X103163373Y-121122037D01*
X103229557Y-121115519D01*
X103295740Y-121109000D01*
X103384260Y-121109000D01*
X103450443Y-121115519D01*
X103450443Y-121115519D01*
G37*
G36*
X89579294Y-118768633D02*
X89751694Y-118820931D01*
X89751696Y-118820932D01*
X89910583Y-118905859D01*
X89910585Y-118905860D01*
X89910584Y-118905860D01*
X90049849Y-119020151D01*
X90164140Y-119159416D01*
X90249069Y-119318306D01*
X90301367Y-119490706D01*
X90319025Y-119670000D01*
X90301367Y-119849294D01*
X90263843Y-119972991D01*
X90249068Y-120021696D01*
X90164141Y-120180583D01*
X90049849Y-120319849D01*
X89910583Y-120434141D01*
X89751696Y-120519068D01*
X89751694Y-120519069D01*
X89579294Y-120571367D01*
X89444931Y-120584600D01*
X89355069Y-120584600D01*
X89220706Y-120571367D01*
X89048306Y-120519069D01*
X89048304Y-120519068D01*
X88889417Y-120434141D01*
X88750151Y-120319849D01*
X88635859Y-120180583D01*
X88550932Y-120021696D01*
X88536157Y-119972991D01*
X88498633Y-119849294D01*
X88480975Y-119670000D01*
X88498633Y-119490706D01*
X88550931Y-119318306D01*
X88635860Y-119159416D01*
X88750151Y-119020151D01*
X88889416Y-118905860D01*
X88889415Y-118905860D01*
X88889417Y-118905859D01*
X89048304Y-118820932D01*
X89048306Y-118820931D01*
X89220706Y-118768633D01*
X89355069Y-118755400D01*
X89444931Y-118755400D01*
X89579294Y-118768633D01*
X89579294Y-118768633D01*
G37*
G36*
X92119294Y-118768633D02*
X92291694Y-118820931D01*
X92291696Y-118820932D01*
X92450583Y-118905859D01*
X92450585Y-118905860D01*
X92450584Y-118905860D01*
X92589849Y-119020151D01*
X92704140Y-119159416D01*
X92789069Y-119318306D01*
X92841367Y-119490706D01*
X92859025Y-119670000D01*
X92841367Y-119849294D01*
X92803843Y-119972991D01*
X92789068Y-120021696D01*
X92704141Y-120180583D01*
X92589849Y-120319849D01*
X92450583Y-120434141D01*
X92291696Y-120519068D01*
X92291694Y-120519069D01*
X92119294Y-120571367D01*
X91984931Y-120584600D01*
X91895069Y-120584600D01*
X91760706Y-120571367D01*
X91588306Y-120519069D01*
X91588304Y-120519068D01*
X91429417Y-120434141D01*
X91290151Y-120319849D01*
X91175859Y-120180583D01*
X91090932Y-120021696D01*
X91076157Y-119972991D01*
X91038633Y-119849294D01*
X91020975Y-119670000D01*
X91038633Y-119490706D01*
X91090931Y-119318306D01*
X91175860Y-119159416D01*
X91290151Y-119020151D01*
X91429416Y-118905860D01*
X91429415Y-118905860D01*
X91429417Y-118905859D01*
X91588304Y-118820932D01*
X91588306Y-118820931D01*
X91760706Y-118768633D01*
X91895069Y-118755400D01*
X91984931Y-118755400D01*
X92119294Y-118768633D01*
X92119294Y-118768633D01*
G37*
G36*
X100910443Y-118575519D02*
X100976627Y-118582037D01*
X101089853Y-118616384D01*
X101146467Y-118633557D01*
X101285087Y-118707652D01*
X101302991Y-118717222D01*
X101338729Y-118746552D01*
X101440186Y-118829814D01*
X101502594Y-118905860D01*
X101552778Y-118967009D01*
X101552779Y-118967011D01*
X101636443Y-119123533D01*
X101636443Y-119123534D01*
X101687963Y-119293373D01*
X101705359Y-119470000D01*
X101687963Y-119646627D01*
X101653616Y-119759853D01*
X101636443Y-119816467D01*
X101618896Y-119849294D01*
X101552778Y-119972991D01*
X101523448Y-120008729D01*
X101440186Y-120110186D01*
X101338729Y-120193448D01*
X101302991Y-120222778D01*
X101302989Y-120222779D01*
X101146467Y-120306443D01*
X101102272Y-120319849D01*
X100976627Y-120357963D01*
X100910443Y-120364481D01*
X100844260Y-120371000D01*
X100755740Y-120371000D01*
X100689557Y-120364481D01*
X100623373Y-120357963D01*
X100497728Y-120319849D01*
X100453533Y-120306443D01*
X100297011Y-120222779D01*
X100297009Y-120222778D01*
X100261271Y-120193448D01*
X100159814Y-120110186D01*
X100076552Y-120008729D01*
X100047222Y-119972991D01*
X99981104Y-119849294D01*
X99963557Y-119816467D01*
X99946384Y-119759853D01*
X99912037Y-119646627D01*
X99894641Y-119470000D01*
X99912037Y-119293373D01*
X99963557Y-119123534D01*
X99963557Y-119123533D01*
X100047221Y-118967011D01*
X100047222Y-118967009D01*
X100097406Y-118905860D01*
X100159814Y-118829814D01*
X100261271Y-118746552D01*
X100297009Y-118717222D01*
X100314913Y-118707652D01*
X100453533Y-118633557D01*
X100510147Y-118616384D01*
X100623373Y-118582037D01*
X100689557Y-118575519D01*
X100755740Y-118569000D01*
X100844260Y-118569000D01*
X100910443Y-118575519D01*
X100910443Y-118575519D01*
G37*
G36*
X103450443Y-118575519D02*
X103516627Y-118582037D01*
X103629853Y-118616384D01*
X103686467Y-118633557D01*
X103825087Y-118707652D01*
X103842991Y-118717222D01*
X103878729Y-118746552D01*
X103980186Y-118829814D01*
X104042594Y-118905860D01*
X104092778Y-118967009D01*
X104092779Y-118967011D01*
X104176443Y-119123533D01*
X104176443Y-119123534D01*
X104227963Y-119293373D01*
X104245359Y-119470000D01*
X104227963Y-119646627D01*
X104193616Y-119759853D01*
X104176443Y-119816467D01*
X104158896Y-119849294D01*
X104092778Y-119972991D01*
X104063448Y-120008729D01*
X103980186Y-120110186D01*
X103878729Y-120193448D01*
X103842991Y-120222778D01*
X103842989Y-120222779D01*
X103686467Y-120306443D01*
X103642272Y-120319849D01*
X103516627Y-120357963D01*
X103450443Y-120364481D01*
X103384260Y-120371000D01*
X103295740Y-120371000D01*
X103229557Y-120364481D01*
X103163373Y-120357963D01*
X103037728Y-120319849D01*
X102993533Y-120306443D01*
X102837011Y-120222779D01*
X102837009Y-120222778D01*
X102801271Y-120193448D01*
X102699814Y-120110186D01*
X102616552Y-120008729D01*
X102587222Y-119972991D01*
X102521104Y-119849294D01*
X102503557Y-119816467D01*
X102486384Y-119759853D01*
X102452037Y-119646627D01*
X102434641Y-119470000D01*
X102452037Y-119293373D01*
X102503557Y-119123534D01*
X102503557Y-119123533D01*
X102587221Y-118967011D01*
X102587222Y-118967009D01*
X102637406Y-118905860D01*
X102699814Y-118829814D01*
X102801271Y-118746552D01*
X102837009Y-118717222D01*
X102854913Y-118707652D01*
X102993533Y-118633557D01*
X103050147Y-118616384D01*
X103163373Y-118582037D01*
X103229557Y-118575519D01*
X103295740Y-118569000D01*
X103384260Y-118569000D01*
X103450443Y-118575519D01*
X103450443Y-118575519D01*
G37*
G36*
X92119294Y-116228633D02*
X92291694Y-116280931D01*
X92291696Y-116280932D01*
X92450583Y-116365859D01*
X92450585Y-116365860D01*
X92450584Y-116365860D01*
X92589849Y-116480151D01*
X92704140Y-116619416D01*
X92789069Y-116778306D01*
X92841367Y-116950706D01*
X92859025Y-117130000D01*
X92841367Y-117309294D01*
X92803843Y-117432991D01*
X92789068Y-117481696D01*
X92704141Y-117640583D01*
X92589849Y-117779849D01*
X92450583Y-117894141D01*
X92291696Y-117979068D01*
X92291694Y-117979069D01*
X92119294Y-118031367D01*
X91984931Y-118044600D01*
X91895069Y-118044600D01*
X91760706Y-118031367D01*
X91588306Y-117979069D01*
X91588304Y-117979068D01*
X91429417Y-117894141D01*
X91290151Y-117779849D01*
X91175859Y-117640583D01*
X91090932Y-117481696D01*
X91076157Y-117432991D01*
X91038633Y-117309294D01*
X91020975Y-117130000D01*
X91038633Y-116950706D01*
X91090931Y-116778306D01*
X91175860Y-116619416D01*
X91290151Y-116480151D01*
X91429416Y-116365860D01*
X91429415Y-116365860D01*
X91429417Y-116365859D01*
X91588304Y-116280932D01*
X91588306Y-116280931D01*
X91760706Y-116228633D01*
X91895069Y-116215400D01*
X91984931Y-116215400D01*
X92119294Y-116228633D01*
X92119294Y-116228633D01*
G37*
G36*
X89579294Y-116228633D02*
X89751694Y-116280931D01*
X89751696Y-116280932D01*
X89910583Y-116365859D01*
X89910585Y-116365860D01*
X89910584Y-116365860D01*
X90049849Y-116480151D01*
X90164140Y-116619416D01*
X90249069Y-116778306D01*
X90301367Y-116950706D01*
X90319025Y-117130000D01*
X90301367Y-117309294D01*
X90263843Y-117432991D01*
X90249068Y-117481696D01*
X90164141Y-117640583D01*
X90049849Y-117779849D01*
X89910583Y-117894141D01*
X89751696Y-117979068D01*
X89751694Y-117979069D01*
X89579294Y-118031367D01*
X89444931Y-118044600D01*
X89355069Y-118044600D01*
X89220706Y-118031367D01*
X89048306Y-117979069D01*
X89048304Y-117979068D01*
X88889417Y-117894141D01*
X88750151Y-117779849D01*
X88635859Y-117640583D01*
X88550932Y-117481696D01*
X88536157Y-117432991D01*
X88498633Y-117309294D01*
X88480975Y-117130000D01*
X88498633Y-116950706D01*
X88550931Y-116778306D01*
X88635860Y-116619416D01*
X88750151Y-116480151D01*
X88889416Y-116365860D01*
X88889415Y-116365860D01*
X88889417Y-116365859D01*
X89048304Y-116280932D01*
X89048306Y-116280931D01*
X89220706Y-116228633D01*
X89355069Y-116215400D01*
X89444931Y-116215400D01*
X89579294Y-116228633D01*
X89579294Y-116228633D01*
G37*
G36*
X100910442Y-116035518D02*
X100976627Y-116042037D01*
X101089853Y-116076384D01*
X101146467Y-116093557D01*
X101285087Y-116167652D01*
X101302991Y-116177222D01*
X101338729Y-116206552D01*
X101440186Y-116289814D01*
X101502594Y-116365860D01*
X101552778Y-116427009D01*
X101552779Y-116427011D01*
X101636443Y-116583533D01*
X101636443Y-116583534D01*
X101687963Y-116753373D01*
X101705359Y-116930000D01*
X101687963Y-117106627D01*
X101653616Y-117219853D01*
X101636443Y-117276467D01*
X101618896Y-117309294D01*
X101552778Y-117432991D01*
X101523448Y-117468729D01*
X101440186Y-117570186D01*
X101338729Y-117653448D01*
X101302991Y-117682778D01*
X101302989Y-117682779D01*
X101146467Y-117766443D01*
X101102272Y-117779849D01*
X100976627Y-117817963D01*
X100910443Y-117824481D01*
X100844260Y-117831000D01*
X100755740Y-117831000D01*
X100689557Y-117824481D01*
X100623373Y-117817963D01*
X100497728Y-117779849D01*
X100453533Y-117766443D01*
X100297011Y-117682779D01*
X100297009Y-117682778D01*
X100261271Y-117653448D01*
X100159814Y-117570186D01*
X100076552Y-117468729D01*
X100047222Y-117432991D01*
X99981104Y-117309294D01*
X99963557Y-117276467D01*
X99946384Y-117219853D01*
X99912037Y-117106627D01*
X99894641Y-116930000D01*
X99912037Y-116753373D01*
X99963557Y-116583534D01*
X99963557Y-116583533D01*
X100047221Y-116427011D01*
X100047222Y-116427009D01*
X100097406Y-116365860D01*
X100159814Y-116289814D01*
X100261271Y-116206552D01*
X100297009Y-116177222D01*
X100314913Y-116167652D01*
X100453533Y-116093557D01*
X100510147Y-116076384D01*
X100623373Y-116042037D01*
X100689558Y-116035518D01*
X100755740Y-116029000D01*
X100844260Y-116029000D01*
X100910442Y-116035518D01*
X100910442Y-116035518D01*
G37*
G36*
X103450442Y-116035518D02*
X103516627Y-116042037D01*
X103629853Y-116076384D01*
X103686467Y-116093557D01*
X103825087Y-116167652D01*
X103842991Y-116177222D01*
X103878729Y-116206552D01*
X103980186Y-116289814D01*
X104042594Y-116365860D01*
X104092778Y-116427009D01*
X104092779Y-116427011D01*
X104176443Y-116583533D01*
X104176443Y-116583534D01*
X104227963Y-116753373D01*
X104245359Y-116930000D01*
X104227963Y-117106627D01*
X104193616Y-117219853D01*
X104176443Y-117276467D01*
X104158896Y-117309294D01*
X104092778Y-117432991D01*
X104063448Y-117468729D01*
X103980186Y-117570186D01*
X103878729Y-117653448D01*
X103842991Y-117682778D01*
X103842989Y-117682779D01*
X103686467Y-117766443D01*
X103642272Y-117779849D01*
X103516627Y-117817963D01*
X103450443Y-117824481D01*
X103384260Y-117831000D01*
X103295740Y-117831000D01*
X103229557Y-117824481D01*
X103163373Y-117817963D01*
X103037728Y-117779849D01*
X102993533Y-117766443D01*
X102837011Y-117682779D01*
X102837009Y-117682778D01*
X102801271Y-117653448D01*
X102699814Y-117570186D01*
X102616552Y-117468729D01*
X102587222Y-117432991D01*
X102521104Y-117309294D01*
X102503557Y-117276467D01*
X102486384Y-117219853D01*
X102452037Y-117106627D01*
X102434641Y-116930000D01*
X102452037Y-116753373D01*
X102503557Y-116583534D01*
X102503557Y-116583533D01*
X102587221Y-116427011D01*
X102587222Y-116427009D01*
X102637406Y-116365860D01*
X102699814Y-116289814D01*
X102801271Y-116206552D01*
X102837009Y-116177222D01*
X102854913Y-116167652D01*
X102993533Y-116093557D01*
X103050147Y-116076384D01*
X103163373Y-116042037D01*
X103229558Y-116035518D01*
X103295740Y-116029000D01*
X103384260Y-116029000D01*
X103450442Y-116035518D01*
X103450442Y-116035518D01*
G37*
G36*
X89579294Y-113688633D02*
X89751694Y-113740931D01*
X89751696Y-113740932D01*
X89910583Y-113825859D01*
X89910585Y-113825860D01*
X89910584Y-113825860D01*
X90049849Y-113940151D01*
X90164140Y-114079416D01*
X90249069Y-114238306D01*
X90301367Y-114410706D01*
X90319025Y-114590000D01*
X90301367Y-114769294D01*
X90263843Y-114892991D01*
X90249068Y-114941696D01*
X90164141Y-115100583D01*
X90049849Y-115239849D01*
X89910583Y-115354141D01*
X89751696Y-115439068D01*
X89751694Y-115439069D01*
X89579294Y-115491367D01*
X89444931Y-115504600D01*
X89355069Y-115504600D01*
X89220706Y-115491367D01*
X89048306Y-115439069D01*
X89048304Y-115439068D01*
X88889417Y-115354141D01*
X88750151Y-115239849D01*
X88635859Y-115100583D01*
X88550932Y-114941696D01*
X88536157Y-114892991D01*
X88498633Y-114769294D01*
X88480975Y-114590000D01*
X88498633Y-114410706D01*
X88550931Y-114238306D01*
X88635860Y-114079416D01*
X88750151Y-113940151D01*
X88889416Y-113825860D01*
X88889415Y-113825860D01*
X88889417Y-113825859D01*
X89048304Y-113740932D01*
X89048306Y-113740931D01*
X89220706Y-113688633D01*
X89355069Y-113675400D01*
X89444931Y-113675400D01*
X89579294Y-113688633D01*
X89579294Y-113688633D01*
G37*
G36*
X92119294Y-113688633D02*
X92291694Y-113740931D01*
X92291696Y-113740932D01*
X92450583Y-113825859D01*
X92450585Y-113825860D01*
X92450584Y-113825860D01*
X92589849Y-113940151D01*
X92704140Y-114079416D01*
X92789069Y-114238306D01*
X92841367Y-114410706D01*
X92859025Y-114590000D01*
X92841367Y-114769294D01*
X92803843Y-114892991D01*
X92789068Y-114941696D01*
X92704141Y-115100583D01*
X92589849Y-115239849D01*
X92450583Y-115354141D01*
X92291696Y-115439068D01*
X92291694Y-115439069D01*
X92119294Y-115491367D01*
X91984931Y-115504600D01*
X91895069Y-115504600D01*
X91760706Y-115491367D01*
X91588306Y-115439069D01*
X91588304Y-115439068D01*
X91429417Y-115354141D01*
X91290151Y-115239849D01*
X91175859Y-115100583D01*
X91090932Y-114941696D01*
X91076157Y-114892991D01*
X91038633Y-114769294D01*
X91020975Y-114590000D01*
X91038633Y-114410706D01*
X91090931Y-114238306D01*
X91175860Y-114079416D01*
X91290151Y-113940151D01*
X91429416Y-113825860D01*
X91429415Y-113825860D01*
X91429417Y-113825859D01*
X91588304Y-113740932D01*
X91588306Y-113740931D01*
X91760706Y-113688633D01*
X91895069Y-113675400D01*
X91984931Y-113675400D01*
X92119294Y-113688633D01*
X92119294Y-113688633D01*
G37*
G36*
X100910442Y-113495518D02*
X100976627Y-113502037D01*
X101089853Y-113536384D01*
X101146467Y-113553557D01*
X101285087Y-113627652D01*
X101302991Y-113637222D01*
X101338729Y-113666552D01*
X101440186Y-113749814D01*
X101502594Y-113825860D01*
X101552778Y-113887009D01*
X101552779Y-113887011D01*
X101636443Y-114043533D01*
X101636443Y-114043534D01*
X101687963Y-114213373D01*
X101705359Y-114390000D01*
X101687963Y-114566627D01*
X101653616Y-114679853D01*
X101636443Y-114736467D01*
X101618896Y-114769294D01*
X101552778Y-114892991D01*
X101523448Y-114928729D01*
X101440186Y-115030186D01*
X101338729Y-115113448D01*
X101302991Y-115142778D01*
X101302989Y-115142779D01*
X101146467Y-115226443D01*
X101102272Y-115239849D01*
X100976627Y-115277963D01*
X100910442Y-115284482D01*
X100844260Y-115291000D01*
X100755740Y-115291000D01*
X100689558Y-115284482D01*
X100623373Y-115277963D01*
X100497728Y-115239849D01*
X100453533Y-115226443D01*
X100297011Y-115142779D01*
X100297009Y-115142778D01*
X100261271Y-115113448D01*
X100159814Y-115030186D01*
X100076552Y-114928729D01*
X100047222Y-114892991D01*
X99981104Y-114769294D01*
X99963557Y-114736467D01*
X99946384Y-114679853D01*
X99912037Y-114566627D01*
X99894641Y-114390000D01*
X99912037Y-114213373D01*
X99963557Y-114043534D01*
X99963557Y-114043533D01*
X100047221Y-113887011D01*
X100047222Y-113887009D01*
X100097406Y-113825860D01*
X100159814Y-113749814D01*
X100261271Y-113666552D01*
X100297009Y-113637222D01*
X100314913Y-113627652D01*
X100453533Y-113553557D01*
X100510147Y-113536384D01*
X100623373Y-113502037D01*
X100689558Y-113495518D01*
X100755740Y-113489000D01*
X100844260Y-113489000D01*
X100910442Y-113495518D01*
X100910442Y-113495518D01*
G37*
G36*
X103450442Y-113495518D02*
X103516627Y-113502037D01*
X103629853Y-113536384D01*
X103686467Y-113553557D01*
X103825087Y-113627652D01*
X103842991Y-113637222D01*
X103878729Y-113666552D01*
X103980186Y-113749814D01*
X104042594Y-113825860D01*
X104092778Y-113887009D01*
X104092779Y-113887011D01*
X104176443Y-114043533D01*
X104176443Y-114043534D01*
X104227963Y-114213373D01*
X104245359Y-114390000D01*
X104227963Y-114566627D01*
X104193616Y-114679853D01*
X104176443Y-114736467D01*
X104158896Y-114769294D01*
X104092778Y-114892991D01*
X104063448Y-114928729D01*
X103980186Y-115030186D01*
X103878729Y-115113448D01*
X103842991Y-115142778D01*
X103842989Y-115142779D01*
X103686467Y-115226443D01*
X103642272Y-115239849D01*
X103516627Y-115277963D01*
X103450442Y-115284482D01*
X103384260Y-115291000D01*
X103295740Y-115291000D01*
X103229558Y-115284482D01*
X103163373Y-115277963D01*
X103037728Y-115239849D01*
X102993533Y-115226443D01*
X102837011Y-115142779D01*
X102837009Y-115142778D01*
X102801271Y-115113448D01*
X102699814Y-115030186D01*
X102616552Y-114928729D01*
X102587222Y-114892991D01*
X102521104Y-114769294D01*
X102503557Y-114736467D01*
X102486384Y-114679853D01*
X102452037Y-114566627D01*
X102434641Y-114390000D01*
X102452037Y-114213373D01*
X102503557Y-114043534D01*
X102503557Y-114043533D01*
X102587221Y-113887011D01*
X102587222Y-113887009D01*
X102637406Y-113825860D01*
X102699814Y-113749814D01*
X102801271Y-113666552D01*
X102837009Y-113637222D01*
X102854913Y-113627652D01*
X102993533Y-113553557D01*
X103050147Y-113536384D01*
X103163373Y-113502037D01*
X103229558Y-113495518D01*
X103295740Y-113489000D01*
X103384260Y-113489000D01*
X103450442Y-113495518D01*
X103450442Y-113495518D01*
G37*
G36*
X92119294Y-111148633D02*
X92291694Y-111200931D01*
X92291696Y-111200932D01*
X92450583Y-111285859D01*
X92450585Y-111285860D01*
X92450584Y-111285860D01*
X92589849Y-111400151D01*
X92704140Y-111539416D01*
X92789069Y-111698306D01*
X92841367Y-111870706D01*
X92859025Y-112050000D01*
X92841367Y-112229294D01*
X92803843Y-112352991D01*
X92789068Y-112401696D01*
X92704141Y-112560583D01*
X92589849Y-112699849D01*
X92450583Y-112814141D01*
X92291696Y-112899068D01*
X92291694Y-112899069D01*
X92119294Y-112951367D01*
X91984931Y-112964600D01*
X91895069Y-112964600D01*
X91760706Y-112951367D01*
X91588306Y-112899069D01*
X91588304Y-112899068D01*
X91429417Y-112814141D01*
X91290151Y-112699849D01*
X91175859Y-112560583D01*
X91090932Y-112401696D01*
X91076157Y-112352991D01*
X91038633Y-112229294D01*
X91020975Y-112050000D01*
X91038633Y-111870706D01*
X91090931Y-111698306D01*
X91175860Y-111539416D01*
X91290151Y-111400151D01*
X91429416Y-111285860D01*
X91429415Y-111285860D01*
X91429417Y-111285859D01*
X91588304Y-111200932D01*
X91588306Y-111200931D01*
X91760706Y-111148633D01*
X91895069Y-111135400D01*
X91984931Y-111135400D01*
X92119294Y-111148633D01*
X92119294Y-111148633D01*
G37*
G36*
X90314600Y-112964600D02*
X88485400Y-112964600D01*
X88485400Y-111135400D01*
X90314600Y-111135400D01*
X90314600Y-112964600D01*
X90314600Y-112964600D01*
G37*
G36*
X103450443Y-110955519D02*
X103516627Y-110962037D01*
X103629853Y-110996384D01*
X103686467Y-111013557D01*
X103825087Y-111087652D01*
X103842991Y-111097222D01*
X103878729Y-111126552D01*
X103980186Y-111209814D01*
X104042594Y-111285860D01*
X104092778Y-111347009D01*
X104092779Y-111347011D01*
X104176443Y-111503533D01*
X104176443Y-111503534D01*
X104227963Y-111673373D01*
X104245359Y-111850000D01*
X104227963Y-112026627D01*
X104193616Y-112139853D01*
X104176443Y-112196467D01*
X104158896Y-112229294D01*
X104092778Y-112352991D01*
X104063448Y-112388729D01*
X103980186Y-112490186D01*
X103878729Y-112573448D01*
X103842991Y-112602778D01*
X103842989Y-112602779D01*
X103686467Y-112686443D01*
X103642272Y-112699849D01*
X103516627Y-112737963D01*
X103450443Y-112744481D01*
X103384260Y-112751000D01*
X103295740Y-112751000D01*
X103229557Y-112744481D01*
X103163373Y-112737963D01*
X103037728Y-112699849D01*
X102993533Y-112686443D01*
X102837011Y-112602779D01*
X102837009Y-112602778D01*
X102801271Y-112573448D01*
X102699814Y-112490186D01*
X102616552Y-112388729D01*
X102587222Y-112352991D01*
X102521104Y-112229294D01*
X102503557Y-112196467D01*
X102486384Y-112139853D01*
X102452037Y-112026627D01*
X102434641Y-111850000D01*
X102452037Y-111673373D01*
X102503557Y-111503534D01*
X102503557Y-111503533D01*
X102587221Y-111347011D01*
X102587222Y-111347009D01*
X102637406Y-111285860D01*
X102699814Y-111209814D01*
X102801271Y-111126552D01*
X102837009Y-111097222D01*
X102854913Y-111087652D01*
X102993533Y-111013557D01*
X103050147Y-110996384D01*
X103163373Y-110962037D01*
X103229557Y-110955519D01*
X103295740Y-110949000D01*
X103384260Y-110949000D01*
X103450443Y-110955519D01*
X103450443Y-110955519D01*
G37*
G36*
X101701000Y-112751000D02*
X99899000Y-112751000D01*
X99899000Y-110949000D01*
X101701000Y-110949000D01*
X101701000Y-112751000D01*
X101701000Y-112751000D01*
G37*
G36*
X103114600Y-99814600D02*
X101285400Y-99814600D01*
X101285400Y-97985400D01*
X103114600Y-97985400D01*
X103114600Y-99814600D01*
X103114600Y-99814600D01*
G37*
G36*
X99839294Y-97998633D02*
X100011694Y-98050931D01*
X100011696Y-98050932D01*
X100170583Y-98135859D01*
X100309849Y-98250151D01*
X100424141Y-98389417D01*
X100509068Y-98548304D01*
X100509069Y-98548306D01*
X100561367Y-98720706D01*
X100579025Y-98900000D01*
X100561367Y-99079294D01*
X100509069Y-99251694D01*
X100509068Y-99251696D01*
X100424141Y-99410583D01*
X100309849Y-99549849D01*
X100170583Y-99664141D01*
X100011696Y-99749068D01*
X100011694Y-99749069D01*
X99839294Y-99801367D01*
X99704931Y-99814600D01*
X99615069Y-99814600D01*
X99480706Y-99801367D01*
X99308306Y-99749069D01*
X99308304Y-99749068D01*
X99149417Y-99664141D01*
X99010151Y-99549849D01*
X98895859Y-99410583D01*
X98810932Y-99251696D01*
X98810931Y-99251694D01*
X98758633Y-99079294D01*
X98740975Y-98900000D01*
X98758633Y-98720706D01*
X98810931Y-98548306D01*
X98810932Y-98548304D01*
X98895859Y-98389417D01*
X99010151Y-98250151D01*
X99149417Y-98135859D01*
X99308304Y-98050932D01*
X99308306Y-98050931D01*
X99480706Y-97998633D01*
X99615069Y-97985400D01*
X99704931Y-97985400D01*
X99839294Y-97998633D01*
X99839294Y-97998633D01*
G37*
G36*
X92019294Y-97958633D02*
X92191694Y-98010931D01*
X92191696Y-98010932D01*
X92350583Y-98095859D01*
X92489849Y-98210151D01*
X92604140Y-98349416D01*
X92689069Y-98508306D01*
X92741367Y-98680706D01*
X92759025Y-98860000D01*
X92741367Y-99039294D01*
X92689069Y-99211694D01*
X92689068Y-99211696D01*
X92604141Y-99370583D01*
X92489849Y-99509849D01*
X92350583Y-99624141D01*
X92275750Y-99664140D01*
X92191694Y-99709069D01*
X92019294Y-99761367D01*
X91884931Y-99774600D01*
X91795069Y-99774600D01*
X91660706Y-99761367D01*
X91488306Y-99709069D01*
X91404250Y-99664140D01*
X91329417Y-99624141D01*
X91190151Y-99509849D01*
X91075859Y-99370583D01*
X90990932Y-99211696D01*
X90990931Y-99211694D01*
X90938633Y-99039294D01*
X90920975Y-98860000D01*
X90938633Y-98680706D01*
X90990931Y-98508306D01*
X91075860Y-98349416D01*
X91190151Y-98210151D01*
X91329417Y-98095859D01*
X91488304Y-98010932D01*
X91488306Y-98010931D01*
X91660706Y-97958633D01*
X91795069Y-97945400D01*
X91884931Y-97945400D01*
X92019294Y-97958633D01*
X92019294Y-97958633D01*
G37*
G36*
X89479294Y-97958633D02*
X89651694Y-98010931D01*
X89651696Y-98010932D01*
X89810583Y-98095859D01*
X89949849Y-98210151D01*
X90064140Y-98349416D01*
X90149069Y-98508306D01*
X90201367Y-98680706D01*
X90219025Y-98860000D01*
X90201367Y-99039294D01*
X90149069Y-99211694D01*
X90149068Y-99211696D01*
X90064141Y-99370583D01*
X89949849Y-99509849D01*
X89810583Y-99624141D01*
X89735750Y-99664140D01*
X89651694Y-99709069D01*
X89479294Y-99761367D01*
X89344931Y-99774600D01*
X89255069Y-99774600D01*
X89120706Y-99761367D01*
X88948306Y-99709069D01*
X88864250Y-99664140D01*
X88789417Y-99624141D01*
X88650151Y-99509849D01*
X88535859Y-99370583D01*
X88450932Y-99211696D01*
X88450931Y-99211694D01*
X88398633Y-99039294D01*
X88380975Y-98860000D01*
X88398633Y-98680706D01*
X88450931Y-98508306D01*
X88535860Y-98349416D01*
X88650151Y-98210151D01*
X88789417Y-98095859D01*
X88948304Y-98010932D01*
X88948306Y-98010931D01*
X89120706Y-97958633D01*
X89255069Y-97945400D01*
X89344931Y-97945400D01*
X89479294Y-97958633D01*
X89479294Y-97958633D01*
G37*
G36*
X102379294Y-95458633D02*
X102551694Y-95510931D01*
X102551696Y-95510932D01*
X102710583Y-95595859D01*
X102849849Y-95710151D01*
X102964141Y-95849417D01*
X103049068Y-96008304D01*
X103049069Y-96008306D01*
X103101367Y-96180706D01*
X103119025Y-96360000D01*
X103101367Y-96539294D01*
X103049069Y-96711694D01*
X103049068Y-96711696D01*
X102964141Y-96870583D01*
X102849849Y-97009849D01*
X102710583Y-97124141D01*
X102551696Y-97209068D01*
X102551694Y-97209069D01*
X102379294Y-97261367D01*
X102244931Y-97274600D01*
X102155069Y-97274600D01*
X102020706Y-97261367D01*
X101848306Y-97209069D01*
X101848304Y-97209068D01*
X101689417Y-97124141D01*
X101550151Y-97009849D01*
X101435859Y-96870583D01*
X101350932Y-96711696D01*
X101350931Y-96711694D01*
X101298633Y-96539294D01*
X101280975Y-96360000D01*
X101298633Y-96180706D01*
X101350931Y-96008306D01*
X101350932Y-96008304D01*
X101435859Y-95849417D01*
X101550151Y-95710151D01*
X101689417Y-95595859D01*
X101848304Y-95510932D01*
X101848306Y-95510931D01*
X102020706Y-95458633D01*
X102155069Y-95445400D01*
X102244931Y-95445400D01*
X102379294Y-95458633D01*
X102379294Y-95458633D01*
G37*
G36*
X99839294Y-95458633D02*
X100011694Y-95510931D01*
X100011696Y-95510932D01*
X100170583Y-95595859D01*
X100309849Y-95710151D01*
X100424141Y-95849417D01*
X100509068Y-96008304D01*
X100509069Y-96008306D01*
X100561367Y-96180706D01*
X100579025Y-96360000D01*
X100561367Y-96539294D01*
X100509069Y-96711694D01*
X100509068Y-96711696D01*
X100424141Y-96870583D01*
X100309849Y-97009849D01*
X100170583Y-97124141D01*
X100011696Y-97209068D01*
X100011694Y-97209069D01*
X99839294Y-97261367D01*
X99704931Y-97274600D01*
X99615069Y-97274600D01*
X99480706Y-97261367D01*
X99308306Y-97209069D01*
X99308304Y-97209068D01*
X99149417Y-97124141D01*
X99010151Y-97009849D01*
X98895859Y-96870583D01*
X98810932Y-96711696D01*
X98810931Y-96711694D01*
X98758633Y-96539294D01*
X98740975Y-96360000D01*
X98758633Y-96180706D01*
X98810931Y-96008306D01*
X98810932Y-96008304D01*
X98895859Y-95849417D01*
X99010151Y-95710151D01*
X99149417Y-95595859D01*
X99308304Y-95510932D01*
X99308306Y-95510931D01*
X99480706Y-95458633D01*
X99615069Y-95445400D01*
X99704931Y-95445400D01*
X99839294Y-95458633D01*
X99839294Y-95458633D01*
G37*
G36*
X89479294Y-95418633D02*
X89651694Y-95470931D01*
X89651696Y-95470932D01*
X89810583Y-95555859D01*
X89949849Y-95670151D01*
X90064140Y-95809416D01*
X90149069Y-95968306D01*
X90201367Y-96140706D01*
X90219025Y-96320000D01*
X90201367Y-96499294D01*
X90149069Y-96671694D01*
X90149068Y-96671696D01*
X90064141Y-96830583D01*
X89949849Y-96969849D01*
X89810583Y-97084141D01*
X89735750Y-97124140D01*
X89651694Y-97169069D01*
X89479294Y-97221367D01*
X89344931Y-97234600D01*
X89255069Y-97234600D01*
X89120706Y-97221367D01*
X88948306Y-97169069D01*
X88864250Y-97124140D01*
X88789417Y-97084141D01*
X88650151Y-96969849D01*
X88535859Y-96830583D01*
X88450932Y-96671696D01*
X88450931Y-96671694D01*
X88398633Y-96499294D01*
X88380975Y-96320000D01*
X88398633Y-96140706D01*
X88450931Y-95968306D01*
X88535860Y-95809416D01*
X88650151Y-95670151D01*
X88789417Y-95555859D01*
X88948304Y-95470932D01*
X88948306Y-95470931D01*
X89120706Y-95418633D01*
X89255069Y-95405400D01*
X89344931Y-95405400D01*
X89479294Y-95418633D01*
X89479294Y-95418633D01*
G37*
G36*
X92019294Y-95418633D02*
X92191694Y-95470931D01*
X92191696Y-95470932D01*
X92350583Y-95555859D01*
X92489849Y-95670151D01*
X92604140Y-95809416D01*
X92689069Y-95968306D01*
X92741367Y-96140706D01*
X92759025Y-96320000D01*
X92741367Y-96499294D01*
X92689069Y-96671694D01*
X92689068Y-96671696D01*
X92604141Y-96830583D01*
X92489849Y-96969849D01*
X92350583Y-97084141D01*
X92275750Y-97124140D01*
X92191694Y-97169069D01*
X92019294Y-97221367D01*
X91884931Y-97234600D01*
X91795069Y-97234600D01*
X91660706Y-97221367D01*
X91488306Y-97169069D01*
X91404250Y-97124140D01*
X91329417Y-97084141D01*
X91190151Y-96969849D01*
X91075859Y-96830583D01*
X90990932Y-96671696D01*
X90990931Y-96671694D01*
X90938633Y-96499294D01*
X90920975Y-96320000D01*
X90938633Y-96140706D01*
X90990931Y-95968306D01*
X91075860Y-95809416D01*
X91190151Y-95670151D01*
X91329417Y-95555859D01*
X91488304Y-95470932D01*
X91488306Y-95470931D01*
X91660706Y-95418633D01*
X91795069Y-95405400D01*
X91884931Y-95405400D01*
X92019294Y-95418633D01*
X92019294Y-95418633D01*
G37*
G36*
X99839294Y-92918633D02*
X100011694Y-92970931D01*
X100011696Y-92970932D01*
X100170583Y-93055859D01*
X100309849Y-93170151D01*
X100424141Y-93309417D01*
X100509068Y-93468304D01*
X100509069Y-93468306D01*
X100561367Y-93640706D01*
X100579025Y-93820000D01*
X100561367Y-93999294D01*
X100509069Y-94171694D01*
X100509068Y-94171696D01*
X100424141Y-94330583D01*
X100309849Y-94469849D01*
X100170583Y-94584141D01*
X100011696Y-94669068D01*
X100011694Y-94669069D01*
X99839294Y-94721367D01*
X99704931Y-94734600D01*
X99615069Y-94734600D01*
X99480706Y-94721367D01*
X99308306Y-94669069D01*
X99308304Y-94669068D01*
X99149417Y-94584141D01*
X99010151Y-94469849D01*
X98895859Y-94330583D01*
X98810932Y-94171696D01*
X98810931Y-94171694D01*
X98758633Y-93999294D01*
X98740975Y-93820000D01*
X98758633Y-93640706D01*
X98810931Y-93468306D01*
X98810932Y-93468304D01*
X98895859Y-93309417D01*
X99010151Y-93170151D01*
X99149417Y-93055859D01*
X99308304Y-92970932D01*
X99308306Y-92970931D01*
X99480706Y-92918633D01*
X99615069Y-92905400D01*
X99704931Y-92905400D01*
X99839294Y-92918633D01*
X99839294Y-92918633D01*
G37*
G36*
X102379294Y-92918633D02*
X102551694Y-92970931D01*
X102551696Y-92970932D01*
X102710583Y-93055859D01*
X102849849Y-93170151D01*
X102964141Y-93309417D01*
X103049068Y-93468304D01*
X103049069Y-93468306D01*
X103101367Y-93640706D01*
X103119025Y-93820000D01*
X103101367Y-93999294D01*
X103049069Y-94171694D01*
X103049068Y-94171696D01*
X102964141Y-94330583D01*
X102849849Y-94469849D01*
X102710583Y-94584141D01*
X102551696Y-94669068D01*
X102551694Y-94669069D01*
X102379294Y-94721367D01*
X102244931Y-94734600D01*
X102155069Y-94734600D01*
X102020706Y-94721367D01*
X101848306Y-94669069D01*
X101848304Y-94669068D01*
X101689417Y-94584141D01*
X101550151Y-94469849D01*
X101435859Y-94330583D01*
X101350932Y-94171696D01*
X101350931Y-94171694D01*
X101298633Y-93999294D01*
X101280975Y-93820000D01*
X101298633Y-93640706D01*
X101350931Y-93468306D01*
X101350932Y-93468304D01*
X101435859Y-93309417D01*
X101550151Y-93170151D01*
X101689417Y-93055859D01*
X101848304Y-92970932D01*
X101848306Y-92970931D01*
X102020706Y-92918633D01*
X102155069Y-92905400D01*
X102244931Y-92905400D01*
X102379294Y-92918633D01*
X102379294Y-92918633D01*
G37*
G36*
X89479294Y-92878633D02*
X89651694Y-92930931D01*
X89651696Y-92930932D01*
X89810583Y-93015859D01*
X89949849Y-93130151D01*
X90064140Y-93269416D01*
X90149069Y-93428306D01*
X90201367Y-93600706D01*
X90219025Y-93780000D01*
X90201367Y-93959294D01*
X90149069Y-94131694D01*
X90149068Y-94131696D01*
X90064141Y-94290583D01*
X89949849Y-94429849D01*
X89810583Y-94544141D01*
X89735750Y-94584140D01*
X89651694Y-94629069D01*
X89479294Y-94681367D01*
X89344931Y-94694600D01*
X89255069Y-94694600D01*
X89120706Y-94681367D01*
X88948306Y-94629069D01*
X88864250Y-94584140D01*
X88789417Y-94544141D01*
X88650151Y-94429849D01*
X88535859Y-94290583D01*
X88450932Y-94131696D01*
X88450931Y-94131694D01*
X88398633Y-93959294D01*
X88380975Y-93780000D01*
X88398633Y-93600706D01*
X88450931Y-93428306D01*
X88535860Y-93269416D01*
X88650151Y-93130151D01*
X88789417Y-93015859D01*
X88948304Y-92930932D01*
X88948306Y-92930931D01*
X89120706Y-92878633D01*
X89255069Y-92865400D01*
X89344931Y-92865400D01*
X89479294Y-92878633D01*
X89479294Y-92878633D01*
G37*
G36*
X92019294Y-92878633D02*
X92191694Y-92930931D01*
X92191696Y-92930932D01*
X92350583Y-93015859D01*
X92489849Y-93130151D01*
X92604140Y-93269416D01*
X92689069Y-93428306D01*
X92741367Y-93600706D01*
X92759025Y-93780000D01*
X92741367Y-93959294D01*
X92689069Y-94131694D01*
X92689068Y-94131696D01*
X92604141Y-94290583D01*
X92489849Y-94429849D01*
X92350583Y-94544141D01*
X92275750Y-94584140D01*
X92191694Y-94629069D01*
X92019294Y-94681367D01*
X91884931Y-94694600D01*
X91795069Y-94694600D01*
X91660706Y-94681367D01*
X91488306Y-94629069D01*
X91404250Y-94584140D01*
X91329417Y-94544141D01*
X91190151Y-94429849D01*
X91075859Y-94290583D01*
X90990932Y-94131696D01*
X90990931Y-94131694D01*
X90938633Y-93959294D01*
X90920975Y-93780000D01*
X90938633Y-93600706D01*
X90990931Y-93428306D01*
X91075860Y-93269416D01*
X91190151Y-93130151D01*
X91329417Y-93015859D01*
X91488304Y-92930932D01*
X91488306Y-92930931D01*
X91660706Y-92878633D01*
X91795069Y-92865400D01*
X91884931Y-92865400D01*
X92019294Y-92878633D01*
X92019294Y-92878633D01*
G37*
G36*
X99839294Y-90378633D02*
X100011694Y-90430931D01*
X100011696Y-90430932D01*
X100170583Y-90515859D01*
X100309849Y-90630151D01*
X100424141Y-90769417D01*
X100509068Y-90928304D01*
X100509069Y-90928306D01*
X100561367Y-91100706D01*
X100579025Y-91280000D01*
X100561367Y-91459294D01*
X100509069Y-91631694D01*
X100509068Y-91631696D01*
X100424141Y-91790583D01*
X100309849Y-91929849D01*
X100170583Y-92044141D01*
X100011696Y-92129068D01*
X100011694Y-92129069D01*
X99839294Y-92181367D01*
X99704931Y-92194600D01*
X99615069Y-92194600D01*
X99480706Y-92181367D01*
X99308306Y-92129069D01*
X99308304Y-92129068D01*
X99149417Y-92044141D01*
X99010151Y-91929849D01*
X98895859Y-91790583D01*
X98810932Y-91631696D01*
X98810931Y-91631694D01*
X98758633Y-91459294D01*
X98740975Y-91280000D01*
X98758633Y-91100706D01*
X98810931Y-90928306D01*
X98810932Y-90928304D01*
X98895859Y-90769417D01*
X99010151Y-90630151D01*
X99149417Y-90515859D01*
X99308304Y-90430932D01*
X99308306Y-90430931D01*
X99480706Y-90378633D01*
X99615069Y-90365400D01*
X99704931Y-90365400D01*
X99839294Y-90378633D01*
X99839294Y-90378633D01*
G37*
G36*
X102379294Y-90378633D02*
X102551694Y-90430931D01*
X102551696Y-90430932D01*
X102710583Y-90515859D01*
X102849849Y-90630151D01*
X102964141Y-90769417D01*
X103049068Y-90928304D01*
X103049069Y-90928306D01*
X103101367Y-91100706D01*
X103119025Y-91280000D01*
X103101367Y-91459294D01*
X103049069Y-91631694D01*
X103049068Y-91631696D01*
X102964141Y-91790583D01*
X102849849Y-91929849D01*
X102710583Y-92044141D01*
X102551696Y-92129068D01*
X102551694Y-92129069D01*
X102379294Y-92181367D01*
X102244931Y-92194600D01*
X102155069Y-92194600D01*
X102020706Y-92181367D01*
X101848306Y-92129069D01*
X101848304Y-92129068D01*
X101689417Y-92044141D01*
X101550151Y-91929849D01*
X101435859Y-91790583D01*
X101350932Y-91631696D01*
X101350931Y-91631694D01*
X101298633Y-91459294D01*
X101280975Y-91280000D01*
X101298633Y-91100706D01*
X101350931Y-90928306D01*
X101350932Y-90928304D01*
X101435859Y-90769417D01*
X101550151Y-90630151D01*
X101689417Y-90515859D01*
X101848304Y-90430932D01*
X101848306Y-90430931D01*
X102020706Y-90378633D01*
X102155069Y-90365400D01*
X102244931Y-90365400D01*
X102379294Y-90378633D01*
X102379294Y-90378633D01*
G37*
G36*
X92019294Y-90338633D02*
X92191694Y-90390931D01*
X92191696Y-90390932D01*
X92350583Y-90475859D01*
X92489849Y-90590151D01*
X92604140Y-90729416D01*
X92689069Y-90888306D01*
X92741367Y-91060706D01*
X92759025Y-91240000D01*
X92741367Y-91419294D01*
X92689069Y-91591694D01*
X92689068Y-91591696D01*
X92604141Y-91750583D01*
X92489849Y-91889849D01*
X92350583Y-92004141D01*
X92275750Y-92044140D01*
X92191694Y-92089069D01*
X92019294Y-92141367D01*
X91884931Y-92154600D01*
X91795069Y-92154600D01*
X91660706Y-92141367D01*
X91488306Y-92089069D01*
X91404250Y-92044140D01*
X91329417Y-92004141D01*
X91190151Y-91889849D01*
X91075859Y-91750583D01*
X90990932Y-91591696D01*
X90990931Y-91591694D01*
X90938633Y-91419294D01*
X90920975Y-91240000D01*
X90938633Y-91060706D01*
X90990931Y-90888306D01*
X91075860Y-90729416D01*
X91190151Y-90590151D01*
X91329417Y-90475859D01*
X91488304Y-90390932D01*
X91488306Y-90390931D01*
X91660706Y-90338633D01*
X91795069Y-90325400D01*
X91884931Y-90325400D01*
X92019294Y-90338633D01*
X92019294Y-90338633D01*
G37*
G36*
X89479294Y-90338633D02*
X89651694Y-90390931D01*
X89651696Y-90390932D01*
X89810583Y-90475859D01*
X89949849Y-90590151D01*
X90064140Y-90729416D01*
X90149069Y-90888306D01*
X90201367Y-91060706D01*
X90219025Y-91240000D01*
X90201367Y-91419294D01*
X90149069Y-91591694D01*
X90149068Y-91591696D01*
X90064141Y-91750583D01*
X89949849Y-91889849D01*
X89810583Y-92004141D01*
X89735750Y-92044140D01*
X89651694Y-92089069D01*
X89479294Y-92141367D01*
X89344931Y-92154600D01*
X89255069Y-92154600D01*
X89120706Y-92141367D01*
X88948306Y-92089069D01*
X88864250Y-92044140D01*
X88789417Y-92004141D01*
X88650151Y-91889849D01*
X88535859Y-91750583D01*
X88450932Y-91591696D01*
X88450931Y-91591694D01*
X88398633Y-91419294D01*
X88380975Y-91240000D01*
X88398633Y-91060706D01*
X88450931Y-90888306D01*
X88535860Y-90729416D01*
X88650151Y-90590151D01*
X88789417Y-90475859D01*
X88948304Y-90390932D01*
X88948306Y-90390931D01*
X89120706Y-90338633D01*
X89255069Y-90325400D01*
X89344931Y-90325400D01*
X89479294Y-90338633D01*
X89479294Y-90338633D01*
G37*
G36*
X102379294Y-87838633D02*
X102551694Y-87890931D01*
X102551696Y-87890932D01*
X102710583Y-87975859D01*
X102849849Y-88090151D01*
X102964141Y-88229417D01*
X103049068Y-88388304D01*
X103049069Y-88388306D01*
X103101367Y-88560706D01*
X103119025Y-88740000D01*
X103101367Y-88919294D01*
X103049069Y-89091694D01*
X103049068Y-89091696D01*
X102964141Y-89250583D01*
X102849849Y-89389849D01*
X102710583Y-89504141D01*
X102551696Y-89589068D01*
X102551694Y-89589069D01*
X102379294Y-89641367D01*
X102244931Y-89654600D01*
X102155069Y-89654600D01*
X102020706Y-89641367D01*
X101848306Y-89589069D01*
X101848304Y-89589068D01*
X101689417Y-89504141D01*
X101550151Y-89389849D01*
X101435859Y-89250583D01*
X101350932Y-89091696D01*
X101350931Y-89091694D01*
X101298633Y-88919294D01*
X101280975Y-88740000D01*
X101298633Y-88560706D01*
X101350931Y-88388306D01*
X101350932Y-88388304D01*
X101435859Y-88229417D01*
X101550151Y-88090151D01*
X101689417Y-87975859D01*
X101848304Y-87890932D01*
X101848306Y-87890931D01*
X102020706Y-87838633D01*
X102155069Y-87825400D01*
X102244931Y-87825400D01*
X102379294Y-87838633D01*
X102379294Y-87838633D01*
G37*
G36*
X99839294Y-87838633D02*
X100011694Y-87890931D01*
X100011696Y-87890932D01*
X100170583Y-87975859D01*
X100309849Y-88090151D01*
X100424141Y-88229417D01*
X100509068Y-88388304D01*
X100509069Y-88388306D01*
X100561367Y-88560706D01*
X100579025Y-88740000D01*
X100561367Y-88919294D01*
X100509069Y-89091694D01*
X100509068Y-89091696D01*
X100424141Y-89250583D01*
X100309849Y-89389849D01*
X100170583Y-89504141D01*
X100011696Y-89589068D01*
X100011694Y-89589069D01*
X99839294Y-89641367D01*
X99704931Y-89654600D01*
X99615069Y-89654600D01*
X99480706Y-89641367D01*
X99308306Y-89589069D01*
X99308304Y-89589068D01*
X99149417Y-89504141D01*
X99010151Y-89389849D01*
X98895859Y-89250583D01*
X98810932Y-89091696D01*
X98810931Y-89091694D01*
X98758633Y-88919294D01*
X98740975Y-88740000D01*
X98758633Y-88560706D01*
X98810931Y-88388306D01*
X98810932Y-88388304D01*
X98895859Y-88229417D01*
X99010151Y-88090151D01*
X99149417Y-87975859D01*
X99308304Y-87890932D01*
X99308306Y-87890931D01*
X99480706Y-87838633D01*
X99615069Y-87825400D01*
X99704931Y-87825400D01*
X99839294Y-87838633D01*
X99839294Y-87838633D01*
G37*
G36*
X92019294Y-87798633D02*
X92191694Y-87850931D01*
X92191696Y-87850932D01*
X92350583Y-87935859D01*
X92489849Y-88050151D01*
X92604140Y-88189416D01*
X92689069Y-88348306D01*
X92741367Y-88520706D01*
X92759025Y-88700000D01*
X92741367Y-88879294D01*
X92689069Y-89051694D01*
X92689068Y-89051696D01*
X92604141Y-89210583D01*
X92489849Y-89349849D01*
X92350583Y-89464141D01*
X92275750Y-89504140D01*
X92191694Y-89549069D01*
X92019294Y-89601367D01*
X91884931Y-89614600D01*
X91795069Y-89614600D01*
X91660706Y-89601367D01*
X91488306Y-89549069D01*
X91404250Y-89504140D01*
X91329417Y-89464141D01*
X91190151Y-89349849D01*
X91075859Y-89210583D01*
X90990932Y-89051696D01*
X90990931Y-89051694D01*
X90938633Y-88879294D01*
X90920975Y-88700000D01*
X90938633Y-88520706D01*
X90990931Y-88348306D01*
X91075860Y-88189416D01*
X91190151Y-88050151D01*
X91329417Y-87935859D01*
X91488304Y-87850932D01*
X91488306Y-87850931D01*
X91660706Y-87798633D01*
X91795069Y-87785400D01*
X91884931Y-87785400D01*
X92019294Y-87798633D01*
X92019294Y-87798633D01*
G37*
G36*
X90214600Y-89614600D02*
X88385400Y-89614600D01*
X88385400Y-87785400D01*
X90214600Y-87785400D01*
X90214600Y-89614600D01*
X90214600Y-89614600D01*
G37*
M02*
