G04 #@! TF.GenerationSoftware,KiCad,Pcbnew,5.0.2-bee76a0~70~ubuntu18.04.1*
G04 #@! TF.CreationDate,2019-12-09T23:25:51+09:00*
G04 #@! TF.ProjectId,LCD_adapter,4c43445f-6164-4617-9074-65722e6b6963,rev?*
G04 #@! TF.SameCoordinates,Original*
G04 #@! TF.FileFunction,Legend,Top*
G04 #@! TF.FilePolarity,Positive*
%FSLAX46Y46*%
G04 Gerber Fmt 4.6, Leading zero omitted, Abs format (unit mm)*
G04 Created by KiCad (PCBNEW 5.0.2-bee76a0~70~ubuntu18.04.1) date Mon 09 Dec 2019 11:25:51 PM JST*
%MOMM*%
%LPD*%
G01*
G04 APERTURE LIST*
%ADD10C,0.300000*%
%ADD11C,0.200000*%
%ADD12C,0.120000*%
%ADD13C,0.150000*%
G04 APERTURE END LIST*
D10*
X84107142Y-114750000D02*
X84107142Y-115250000D01*
X83321428Y-115464285D02*
X83321428Y-114750000D01*
X84821428Y-114750000D01*
X84821428Y-115464285D01*
X84821428Y-115964285D02*
X83321428Y-116964285D01*
X84821428Y-116964285D02*
X83321428Y-115964285D01*
X83321428Y-117535714D02*
X84821428Y-117535714D01*
X84821428Y-118107142D01*
X84750000Y-118250000D01*
X84678571Y-118321428D01*
X84535714Y-118392857D01*
X84321428Y-118392857D01*
X84178571Y-118321428D01*
X84107142Y-118250000D01*
X84035714Y-118107142D01*
X84035714Y-117535714D01*
X84678571Y-118964285D02*
X84750000Y-119035714D01*
X84821428Y-119178571D01*
X84821428Y-119535714D01*
X84750000Y-119678571D01*
X84678571Y-119750000D01*
X84535714Y-119821428D01*
X84392857Y-119821428D01*
X84178571Y-119750000D01*
X83321428Y-118892857D01*
X83321428Y-119821428D01*
X84007142Y-91450000D02*
X84007142Y-91950000D01*
X83221428Y-92164285D02*
X83221428Y-91450000D01*
X84721428Y-91450000D01*
X84721428Y-92164285D01*
X84721428Y-92664285D02*
X83221428Y-93664285D01*
X84721428Y-93664285D02*
X83221428Y-92664285D01*
X83221428Y-94235714D02*
X84721428Y-94235714D01*
X84721428Y-94807142D01*
X84650000Y-94950000D01*
X84578571Y-95021428D01*
X84435714Y-95092857D01*
X84221428Y-95092857D01*
X84078571Y-95021428D01*
X84007142Y-94950000D01*
X83935714Y-94807142D01*
X83935714Y-94235714D01*
X83221428Y-96521428D02*
X83221428Y-95664285D01*
X83221428Y-96092857D02*
X84721428Y-96092857D01*
X84507142Y-95950000D01*
X84364285Y-95807142D01*
X84292857Y-95664285D01*
X107342857Y-99421428D02*
X107342857Y-98921428D01*
X108128571Y-98707142D02*
X108128571Y-99421428D01*
X106628571Y-99421428D01*
X106628571Y-98707142D01*
X106628571Y-98207142D02*
X108128571Y-97207142D01*
X106628571Y-97207142D02*
X108128571Y-98207142D01*
X108128571Y-96635714D02*
X106628571Y-96635714D01*
X106628571Y-96064285D01*
X106700000Y-95921428D01*
X106771428Y-95850000D01*
X106914285Y-95778571D01*
X107128571Y-95778571D01*
X107271428Y-95850000D01*
X107342857Y-95921428D01*
X107414285Y-96064285D01*
X107414285Y-96635714D01*
X106628571Y-95278571D02*
X106628571Y-94350000D01*
X107200000Y-94850000D01*
X107200000Y-94635714D01*
X107271428Y-94492857D01*
X107342857Y-94421428D01*
X107485714Y-94350000D01*
X107842857Y-94350000D01*
X107985714Y-94421428D01*
X108057142Y-94492857D01*
X108128571Y-94635714D01*
X108128571Y-95064285D01*
X108057142Y-95207142D01*
X107985714Y-95278571D01*
X108271428Y-94064285D02*
X108271428Y-92921428D01*
X107342857Y-92064285D02*
X107414285Y-91850000D01*
X107485714Y-91778571D01*
X107628571Y-91707142D01*
X107842857Y-91707142D01*
X107985714Y-91778571D01*
X108057142Y-91850000D01*
X108128571Y-91992857D01*
X108128571Y-92564285D01*
X106628571Y-92564285D01*
X106628571Y-92064285D01*
X106700000Y-91921428D01*
X106771428Y-91850000D01*
X106914285Y-91778571D01*
X107057142Y-91778571D01*
X107200000Y-91850000D01*
X107271428Y-91921428D01*
X107342857Y-92064285D01*
X107342857Y-92564285D01*
X108128571Y-90207142D02*
X107414285Y-90707142D01*
X108128571Y-91064285D02*
X106628571Y-91064285D01*
X106628571Y-90492857D01*
X106700000Y-90350000D01*
X106771428Y-90278571D01*
X106914285Y-90207142D01*
X107128571Y-90207142D01*
X107271428Y-90278571D01*
X107342857Y-90350000D01*
X107414285Y-90492857D01*
X107414285Y-91064285D01*
X108128571Y-89564285D02*
X106628571Y-89564285D01*
X106628571Y-89207142D01*
X106700000Y-88992857D01*
X106842857Y-88850000D01*
X106985714Y-88778571D01*
X107271428Y-88707142D01*
X107485714Y-88707142D01*
X107771428Y-88778571D01*
X107914285Y-88850000D01*
X108057142Y-88992857D01*
X108128571Y-89207142D01*
X108128571Y-89564285D01*
D11*
X105814285Y-112252380D02*
X105814285Y-111252380D01*
X106385714Y-112252380D01*
X106385714Y-111252380D01*
X107433333Y-112157142D02*
X107385714Y-112204761D01*
X107242857Y-112252380D01*
X107147619Y-112252380D01*
X107004761Y-112204761D01*
X106909523Y-112109523D01*
X106861904Y-112014285D01*
X106814285Y-111823809D01*
X106814285Y-111680952D01*
X106861904Y-111490476D01*
X106909523Y-111395238D01*
X107004761Y-111300000D01*
X107147619Y-111252380D01*
X107242857Y-111252380D01*
X107385714Y-111300000D01*
X107433333Y-111347619D01*
X95828571Y-112302380D02*
X95828571Y-111302380D01*
X96161904Y-112016666D01*
X96495238Y-111302380D01*
X96495238Y-112302380D01*
X97161904Y-111302380D02*
X97352380Y-111302380D01*
X97447619Y-111350000D01*
X97542857Y-111445238D01*
X97590476Y-111635714D01*
X97590476Y-111969047D01*
X97542857Y-112159523D01*
X97447619Y-112254761D01*
X97352380Y-112302380D01*
X97161904Y-112302380D01*
X97066666Y-112254761D01*
X96971428Y-112159523D01*
X96923809Y-111969047D01*
X96923809Y-111635714D01*
X96971428Y-111445238D01*
X97066666Y-111350000D01*
X97161904Y-111302380D01*
X97971428Y-112254761D02*
X98114285Y-112302380D01*
X98352380Y-112302380D01*
X98447619Y-112254761D01*
X98495238Y-112207142D01*
X98542857Y-112111904D01*
X98542857Y-112016666D01*
X98495238Y-111921428D01*
X98447619Y-111873809D01*
X98352380Y-111826190D01*
X98161904Y-111778571D01*
X98066666Y-111730952D01*
X98019047Y-111683333D01*
X97971428Y-111588095D01*
X97971428Y-111492857D01*
X98019047Y-111397619D01*
X98066666Y-111350000D01*
X98161904Y-111302380D01*
X98400000Y-111302380D01*
X98542857Y-111350000D01*
X98971428Y-112302380D02*
X98971428Y-111302380D01*
X96704761Y-122502380D02*
X96704761Y-121502380D01*
X96942857Y-121502380D01*
X97085714Y-121550000D01*
X97180952Y-121645238D01*
X97228571Y-121740476D01*
X97276190Y-121930952D01*
X97276190Y-122073809D01*
X97228571Y-122264285D01*
X97180952Y-122359523D01*
X97085714Y-122454761D01*
X96942857Y-122502380D01*
X96704761Y-122502380D01*
X97704761Y-121978571D02*
X98038095Y-121978571D01*
X98180952Y-122502380D02*
X97704761Y-122502380D01*
X97704761Y-121502380D01*
X98180952Y-121502380D01*
X98466666Y-121502380D02*
X99038095Y-121502380D01*
X98752380Y-122502380D02*
X98752380Y-121502380D01*
X97338095Y-120004761D02*
X97480952Y-120052380D01*
X97719047Y-120052380D01*
X97814285Y-120004761D01*
X97861904Y-119957142D01*
X97909523Y-119861904D01*
X97909523Y-119766666D01*
X97861904Y-119671428D01*
X97814285Y-119623809D01*
X97719047Y-119576190D01*
X97528571Y-119528571D01*
X97433333Y-119480952D01*
X97385714Y-119433333D01*
X97338095Y-119338095D01*
X97338095Y-119242857D01*
X97385714Y-119147619D01*
X97433333Y-119100000D01*
X97528571Y-119052380D01*
X97766666Y-119052380D01*
X97909523Y-119100000D01*
X98290476Y-120004761D02*
X98433333Y-120052380D01*
X98671428Y-120052380D01*
X98766666Y-120004761D01*
X98814285Y-119957142D01*
X98861904Y-119861904D01*
X98861904Y-119766666D01*
X98814285Y-119671428D01*
X98766666Y-119623809D01*
X98671428Y-119576190D01*
X98480952Y-119528571D01*
X98385714Y-119480952D01*
X98338095Y-119433333D01*
X98290476Y-119338095D01*
X98290476Y-119242857D01*
X98338095Y-119147619D01*
X98385714Y-119100000D01*
X98480952Y-119052380D01*
X98719047Y-119052380D01*
X98861904Y-119100000D01*
X96264285Y-117304761D02*
X96407142Y-117352380D01*
X96645238Y-117352380D01*
X96740476Y-117304761D01*
X96788095Y-117257142D01*
X96835714Y-117161904D01*
X96835714Y-117066666D01*
X96788095Y-116971428D01*
X96740476Y-116923809D01*
X96645238Y-116876190D01*
X96454761Y-116828571D01*
X96359523Y-116780952D01*
X96311904Y-116733333D01*
X96264285Y-116638095D01*
X96264285Y-116542857D01*
X96311904Y-116447619D01*
X96359523Y-116400000D01*
X96454761Y-116352380D01*
X96692857Y-116352380D01*
X96835714Y-116400000D01*
X97835714Y-117257142D02*
X97788095Y-117304761D01*
X97645238Y-117352380D01*
X97550000Y-117352380D01*
X97407142Y-117304761D01*
X97311904Y-117209523D01*
X97264285Y-117114285D01*
X97216666Y-116923809D01*
X97216666Y-116780952D01*
X97264285Y-116590476D01*
X97311904Y-116495238D01*
X97407142Y-116400000D01*
X97550000Y-116352380D01*
X97645238Y-116352380D01*
X97788095Y-116400000D01*
X97835714Y-116447619D01*
X98264285Y-117352380D02*
X98264285Y-116352380D01*
X98835714Y-117352380D02*
X98407142Y-116780952D01*
X98835714Y-116352380D02*
X98264285Y-116923809D01*
X95828571Y-114802380D02*
X95828571Y-113802380D01*
X96161904Y-114516666D01*
X96495238Y-113802380D01*
X96495238Y-114802380D01*
X96971428Y-114802380D02*
X96971428Y-113802380D01*
X97400000Y-114754761D02*
X97542857Y-114802380D01*
X97780952Y-114802380D01*
X97876190Y-114754761D01*
X97923809Y-114707142D01*
X97971428Y-114611904D01*
X97971428Y-114516666D01*
X97923809Y-114421428D01*
X97876190Y-114373809D01*
X97780952Y-114326190D01*
X97590476Y-114278571D01*
X97495238Y-114230952D01*
X97447619Y-114183333D01*
X97400000Y-114088095D01*
X97400000Y-113992857D01*
X97447619Y-113897619D01*
X97495238Y-113850000D01*
X97590476Y-113802380D01*
X97828571Y-113802380D01*
X97971428Y-113850000D01*
X98590476Y-113802380D02*
X98780952Y-113802380D01*
X98876190Y-113850000D01*
X98971428Y-113945238D01*
X99019047Y-114135714D01*
X99019047Y-114469047D01*
X98971428Y-114659523D01*
X98876190Y-114754761D01*
X98780952Y-114802380D01*
X98590476Y-114802380D01*
X98495238Y-114754761D01*
X98400000Y-114659523D01*
X98352380Y-114469047D01*
X98352380Y-114135714D01*
X98400000Y-113945238D01*
X98495238Y-113850000D01*
X98590476Y-113802380D01*
X105290476Y-114952380D02*
X105290476Y-113952380D01*
X105861904Y-114952380D02*
X105433333Y-114380952D01*
X105861904Y-113952380D02*
X105290476Y-114523809D01*
X106290476Y-114952380D02*
X106290476Y-113952380D01*
X107242857Y-114952380D02*
X106766666Y-114952380D01*
X106766666Y-113952380D01*
X108052380Y-114952380D02*
X107576190Y-114952380D01*
X107576190Y-113952380D01*
X105502380Y-122602380D02*
X105026190Y-122602380D01*
X105026190Y-121602380D01*
X105597619Y-122697619D02*
X106359523Y-122697619D01*
X106597619Y-122602380D02*
X106597619Y-121602380D01*
X106835714Y-121602380D01*
X106978571Y-121650000D01*
X107073809Y-121745238D01*
X107121428Y-121840476D01*
X107169047Y-122030952D01*
X107169047Y-122173809D01*
X107121428Y-122364285D01*
X107073809Y-122459523D01*
X106978571Y-122554761D01*
X106835714Y-122602380D01*
X106597619Y-122602380D01*
X107502380Y-121602380D02*
X108169047Y-121602380D01*
X107740476Y-122602380D01*
X105502380Y-119802380D02*
X105026190Y-119802380D01*
X105026190Y-118802380D01*
X105597619Y-119897619D02*
X106359523Y-119897619D01*
X106597619Y-119802380D02*
X106597619Y-118802380D01*
X106835714Y-118802380D01*
X106978571Y-118850000D01*
X107073809Y-118945238D01*
X107121428Y-119040476D01*
X107169047Y-119230952D01*
X107169047Y-119373809D01*
X107121428Y-119564285D01*
X107073809Y-119659523D01*
X106978571Y-119754761D01*
X106835714Y-119802380D01*
X106597619Y-119802380D01*
X108026190Y-118802380D02*
X107835714Y-118802380D01*
X107740476Y-118850000D01*
X107692857Y-118897619D01*
X107597619Y-119040476D01*
X107550000Y-119230952D01*
X107550000Y-119611904D01*
X107597619Y-119707142D01*
X107645238Y-119754761D01*
X107740476Y-119802380D01*
X107930952Y-119802380D01*
X108026190Y-119754761D01*
X108073809Y-119707142D01*
X108121428Y-119611904D01*
X108121428Y-119373809D01*
X108073809Y-119278571D01*
X108026190Y-119230952D01*
X107930952Y-119183333D01*
X107740476Y-119183333D01*
X107645238Y-119230952D01*
X107597619Y-119278571D01*
X107550000Y-119373809D01*
X105552380Y-117402380D02*
X105076190Y-117402380D01*
X105076190Y-116402380D01*
X105647619Y-117497619D02*
X106409523Y-117497619D01*
X106647619Y-117402380D02*
X106647619Y-116402380D01*
X106885714Y-116402380D01*
X107028571Y-116450000D01*
X107123809Y-116545238D01*
X107171428Y-116640476D01*
X107219047Y-116830952D01*
X107219047Y-116973809D01*
X107171428Y-117164285D01*
X107123809Y-117259523D01*
X107028571Y-117354761D01*
X106885714Y-117402380D01*
X106647619Y-117402380D01*
X108123809Y-116402380D02*
X107647619Y-116402380D01*
X107600000Y-116878571D01*
X107647619Y-116830952D01*
X107742857Y-116783333D01*
X107980952Y-116783333D01*
X108076190Y-116830952D01*
X108123809Y-116878571D01*
X108171428Y-116973809D01*
X108171428Y-117211904D01*
X108123809Y-117307142D01*
X108076190Y-117354761D01*
X107980952Y-117402380D01*
X107742857Y-117402380D01*
X107647619Y-117354761D01*
X107600000Y-117307142D01*
D12*
G04 #@! TO.C,J2*
X95245000Y-83350000D02*
X95245000Y-104210000D01*
X95245000Y-104210000D02*
X85895000Y-104210000D01*
X85895000Y-104210000D02*
X85895000Y-83350000D01*
X85895000Y-83350000D02*
X95245000Y-83350000D01*
X85645000Y-83100000D02*
X85645000Y-85640000D01*
X85645000Y-83100000D02*
X88185000Y-83100000D01*
G04 #@! TO.C,J3*
X85745000Y-106450000D02*
X88285000Y-106450000D01*
X85745000Y-106450000D02*
X85745000Y-108990000D01*
X85995000Y-106700000D02*
X95345000Y-106700000D01*
X85995000Y-127560000D02*
X85995000Y-106700000D01*
X95345000Y-127560000D02*
X85995000Y-127560000D01*
X95345000Y-106700000D02*
X95345000Y-127560000D01*
G04 #@! TO.C,J5*
X96255000Y-104250000D02*
X96255000Y-83390000D01*
X96255000Y-83390000D02*
X105605000Y-83390000D01*
X105605000Y-83390000D02*
X105605000Y-104250000D01*
X105605000Y-104250000D02*
X96255000Y-104250000D01*
X105855000Y-104500000D02*
X105855000Y-101960000D01*
X105855000Y-104500000D02*
X103315000Y-104500000D01*
G04 #@! TO.C,J6*
X99470000Y-123340000D02*
X104670000Y-123340000D01*
X99470000Y-113120000D02*
X99470000Y-123340000D01*
X104670000Y-110520000D02*
X104670000Y-123340000D01*
X99470000Y-113120000D02*
X102070000Y-113120000D01*
X102070000Y-113120000D02*
X102070000Y-110520000D01*
X102070000Y-110520000D02*
X104670000Y-110520000D01*
X99470000Y-111850000D02*
X99470000Y-110520000D01*
X99470000Y-110520000D02*
X100800000Y-110520000D01*
G04 #@! TO.C,J2*
D13*
X90236666Y-81548380D02*
X90236666Y-82262666D01*
X90189047Y-82405523D01*
X90093809Y-82500761D01*
X89950952Y-82548380D01*
X89855714Y-82548380D01*
X90665238Y-81643619D02*
X90712857Y-81596000D01*
X90808095Y-81548380D01*
X91046190Y-81548380D01*
X91141428Y-81596000D01*
X91189047Y-81643619D01*
X91236666Y-81738857D01*
X91236666Y-81834095D01*
X91189047Y-81976952D01*
X90617619Y-82548380D01*
X91236666Y-82548380D01*
G04 #@! TO.C,J3*
X90336666Y-104898380D02*
X90336666Y-105612666D01*
X90289047Y-105755523D01*
X90193809Y-105850761D01*
X90050952Y-105898380D01*
X89955714Y-105898380D01*
X90717619Y-104898380D02*
X91336666Y-104898380D01*
X91003333Y-105279333D01*
X91146190Y-105279333D01*
X91241428Y-105326952D01*
X91289047Y-105374571D01*
X91336666Y-105469809D01*
X91336666Y-105707904D01*
X91289047Y-105803142D01*
X91241428Y-105850761D01*
X91146190Y-105898380D01*
X90860476Y-105898380D01*
X90765238Y-105850761D01*
X90717619Y-105803142D01*
G04 #@! TO.C,J5*
X100596666Y-104956380D02*
X100596666Y-105670666D01*
X100549047Y-105813523D01*
X100453809Y-105908761D01*
X100310952Y-105956380D01*
X100215714Y-105956380D01*
X101549047Y-104956380D02*
X101072857Y-104956380D01*
X101025238Y-105432571D01*
X101072857Y-105384952D01*
X101168095Y-105337333D01*
X101406190Y-105337333D01*
X101501428Y-105384952D01*
X101549047Y-105432571D01*
X101596666Y-105527809D01*
X101596666Y-105765904D01*
X101549047Y-105861142D01*
X101501428Y-105908761D01*
X101406190Y-105956380D01*
X101168095Y-105956380D01*
X101072857Y-105908761D01*
X101025238Y-105861142D01*
G04 #@! TO.C,J6*
X101736666Y-108972380D02*
X101736666Y-109686666D01*
X101689047Y-109829523D01*
X101593809Y-109924761D01*
X101450952Y-109972380D01*
X101355714Y-109972380D01*
X102641428Y-108972380D02*
X102450952Y-108972380D01*
X102355714Y-109020000D01*
X102308095Y-109067619D01*
X102212857Y-109210476D01*
X102165238Y-109400952D01*
X102165238Y-109781904D01*
X102212857Y-109877142D01*
X102260476Y-109924761D01*
X102355714Y-109972380D01*
X102546190Y-109972380D01*
X102641428Y-109924761D01*
X102689047Y-109877142D01*
X102736666Y-109781904D01*
X102736666Y-109543809D01*
X102689047Y-109448571D01*
X102641428Y-109400952D01*
X102546190Y-109353333D01*
X102355714Y-109353333D01*
X102260476Y-109400952D01*
X102212857Y-109448571D01*
X102165238Y-109543809D01*
G04 #@! TD*
M02*
