G04 #@! TF.GenerationSoftware,KiCad,Pcbnew,5.0.2-bee76a0~70~ubuntu18.04.1*
G04 #@! TF.CreationDate,2019-12-09T23:25:50+09:00*
G04 #@! TF.ProjectId,LCD_adapter,4c43445f-6164-4617-9074-65722e6b6963,rev?*
G04 #@! TF.SameCoordinates,Original*
G04 #@! TF.FileFunction,Copper,L1,Top*
G04 #@! TF.FilePolarity,Positive*
%FSLAX46Y46*%
G04 Gerber Fmt 4.6, Leading zero omitted, Abs format (unit mm)*
G04 Created by KiCad (PCBNEW 5.0.2-bee76a0~70~ubuntu18.04.1) date Mon 09 Dec 2019 11:25:50 PM JST*
%MOMM*%
%LPD*%
G01*
G04 APERTURE LIST*
G04 #@! TA.AperFunction,ComponentPad*
%ADD10R,1.727200X1.727200*%
G04 #@! TD*
G04 #@! TA.AperFunction,ComponentPad*
%ADD11O,1.727200X1.727200*%
G04 #@! TD*
G04 #@! TA.AperFunction,ComponentPad*
%ADD12R,1.700000X1.700000*%
G04 #@! TD*
G04 #@! TA.AperFunction,ComponentPad*
%ADD13O,1.700000X1.700000*%
G04 #@! TD*
G04 #@! TA.AperFunction,ViaPad*
%ADD14C,0.800000*%
G04 #@! TD*
G04 #@! TA.AperFunction,Conductor*
%ADD15C,0.300000*%
G04 #@! TD*
G04 #@! TA.AperFunction,Conductor*
%ADD16C,0.250000*%
G04 #@! TD*
G04 #@! TA.AperFunction,Conductor*
%ADD17C,0.254000*%
G04 #@! TD*
G04 APERTURE END LIST*
D10*
G04 #@! TO.P,J2,1*
G04 #@! TO.N,BEEPER*
X89300000Y-88700000D03*
D11*
G04 #@! TO.P,J2,2*
G04 #@! TO.N,BTN_ENC*
X91840000Y-88700000D03*
G04 #@! TO.P,J2,3*
G04 #@! TO.N,LCD_EN*
X89300000Y-91240000D03*
G04 #@! TO.P,J2,4*
G04 #@! TO.N,LCD_RS*
X91840000Y-91240000D03*
G04 #@! TO.P,J2,5*
G04 #@! TO.N,LCD_D4*
X89300000Y-93780000D03*
G04 #@! TO.P,J2,6*
G04 #@! TO.N,LCD_D5*
X91840000Y-93780000D03*
G04 #@! TO.P,J2,7*
G04 #@! TO.N,LCD_D6*
X89300000Y-96320000D03*
G04 #@! TO.P,J2,8*
G04 #@! TO.N,LCD_D7*
X91840000Y-96320000D03*
G04 #@! TO.P,J2,9*
G04 #@! TO.N,GND*
X89300000Y-98860000D03*
G04 #@! TO.P,J2,10*
G04 #@! TO.N,+5V*
X91840000Y-98860000D03*
G04 #@! TD*
G04 #@! TO.P,J3,10*
G04 #@! TO.N,KILL*
X91940000Y-122210000D03*
G04 #@! TO.P,J3,9*
G04 #@! TO.N,GND*
X89400000Y-122210000D03*
G04 #@! TO.P,J3,8*
G04 #@! TO.N,EN*
X91940000Y-119670000D03*
G04 #@! TO.P,J3,7*
G04 #@! TO.N,SD_DET*
X89400000Y-119670000D03*
G04 #@! TO.P,J3,6*
G04 #@! TO.N,MOSI*
X91940000Y-117130000D03*
G04 #@! TO.P,J3,5*
G04 #@! TO.N,BTN_EN1*
X89400000Y-117130000D03*
G04 #@! TO.P,J3,4*
G04 #@! TO.N,SS*
X91940000Y-114590000D03*
G04 #@! TO.P,J3,3*
G04 #@! TO.N,BTN_EN2*
X89400000Y-114590000D03*
G04 #@! TO.P,J3,2*
G04 #@! TO.N,SCK*
X91940000Y-112050000D03*
D10*
G04 #@! TO.P,J3,1*
G04 #@! TO.N,MISO*
X89400000Y-112050000D03*
G04 #@! TD*
G04 #@! TO.P,J5,1*
G04 #@! TO.N,BEEPER*
X102200000Y-98900000D03*
D11*
G04 #@! TO.P,J5,2*
G04 #@! TO.N,BTN_ENC*
X99660000Y-98900000D03*
G04 #@! TO.P,J5,3*
G04 #@! TO.N,BTN_EN1*
X102200000Y-96360000D03*
G04 #@! TO.P,J5,4*
G04 #@! TO.N,EN*
X99660000Y-96360000D03*
G04 #@! TO.P,J5,5*
G04 #@! TO.N,BTN_EN2*
X102200000Y-93820000D03*
G04 #@! TO.P,J5,6*
G04 #@! TO.N,LCD_D4*
X99660000Y-93820000D03*
G04 #@! TO.P,J5,7*
G04 #@! TO.N,LCD_RS*
X102200000Y-91280000D03*
G04 #@! TO.P,J5,8*
G04 #@! TO.N,LCD_EN*
X99660000Y-91280000D03*
G04 #@! TO.P,J5,9*
G04 #@! TO.N,GND*
X102200000Y-88740000D03*
G04 #@! TO.P,J5,10*
G04 #@! TO.N,+5V*
X99660000Y-88740000D03*
G04 #@! TD*
D12*
G04 #@! TO.P,J6,1*
G04 #@! TO.N,MOSI*
X100800000Y-111850000D03*
D13*
G04 #@! TO.P,J6,2*
G04 #@! TO.N,N/C*
X103340000Y-111850000D03*
G04 #@! TO.P,J6,3*
G04 #@! TO.N,MISO*
X100800000Y-114390000D03*
G04 #@! TO.P,J6,4*
G04 #@! TO.N,KILL*
X103340000Y-114390000D03*
G04 #@! TO.P,J6,5*
G04 #@! TO.N,SCK*
X100800000Y-116930000D03*
G04 #@! TO.P,J6,6*
G04 #@! TO.N,LCD_D5*
X103340000Y-116930000D03*
G04 #@! TO.P,J6,7*
G04 #@! TO.N,SS*
X100800000Y-119470000D03*
G04 #@! TO.P,J6,8*
G04 #@! TO.N,LCD_D6*
X103340000Y-119470000D03*
G04 #@! TO.P,J6,9*
G04 #@! TO.N,SD_DET*
X100800000Y-122010000D03*
G04 #@! TO.P,J6,10*
G04 #@! TO.N,LCD_D7*
X103340000Y-122010000D03*
G04 #@! TD*
D14*
G04 #@! TO.N,GND*
X97550000Y-92650000D03*
X94300000Y-93100000D03*
X97550000Y-96300000D03*
X97600000Y-88150000D03*
X95150000Y-88200000D03*
X90700000Y-109100000D03*
X95900000Y-109050000D03*
X94250000Y-112100000D03*
X93650000Y-115100000D03*
X93600000Y-118250000D03*
X94800000Y-122200000D03*
X96350000Y-119750000D03*
X97450000Y-115450000D03*
X96050000Y-98750000D03*
X96400000Y-124850000D03*
X92450000Y-105550000D03*
X100850000Y-85750000D03*
X93850000Y-96800000D03*
X103050000Y-109450000D03*
G04 #@! TO.N,LCD_D5*
X97450000Y-101850000D03*
X100450000Y-104850000D03*
G04 #@! TO.N,LCD_D6*
X98800000Y-107050000D03*
G04 #@! TO.N,LCD_D7*
X96850000Y-103150000D03*
X99600000Y-105850000D03*
X103200000Y-107650000D03*
G04 #@! TO.N,SCK*
X94950000Y-116900000D03*
G04 #@! TO.N,MISO*
X98300000Y-110500000D03*
G04 #@! TD*
D15*
G04 #@! TO.N,+5V*
X99600000Y-87200000D02*
X99600000Y-88600000D01*
X98450000Y-86050000D02*
X99600000Y-87200000D01*
X90626399Y-87223601D02*
X91800000Y-86050000D01*
X91800000Y-86050000D02*
X98450000Y-86050000D01*
X90626399Y-97646399D02*
X90626399Y-87223601D01*
X91840000Y-98860000D02*
X90626399Y-97646399D01*
D16*
G04 #@! TO.N,GND*
X93650000Y-112700000D02*
X94250000Y-112100000D01*
X93650000Y-115100000D02*
X93650000Y-112700000D01*
X94850000Y-118250000D02*
X96350000Y-119750000D01*
X93600000Y-118250000D02*
X94850000Y-118250000D01*
X96350000Y-120650000D02*
X96350000Y-119750000D01*
X94800000Y-122200000D02*
X96350000Y-120650000D01*
X97550000Y-88200000D02*
X97600000Y-88150000D01*
X95150000Y-88200000D02*
X97550000Y-88200000D01*
X97600000Y-92600000D02*
X97550000Y-92650000D01*
X97600000Y-88150000D02*
X97600000Y-92600000D01*
X97550000Y-92650000D02*
X97550000Y-96300000D01*
G04 #@! TO.N,BTN_ENC*
X98438686Y-98900000D02*
X95650000Y-96111314D01*
X99660000Y-98900000D02*
X98438686Y-98900000D01*
X95650000Y-96111314D02*
X95650000Y-91150000D01*
X95650000Y-91150000D02*
X93300000Y-88800000D01*
X93300000Y-88800000D02*
X92000000Y-88800000D01*
X92000000Y-88800000D02*
X92050000Y-88800000D01*
G04 #@! TO.N,LCD_D5*
X93061314Y-93780000D02*
X94750000Y-95468686D01*
X91840000Y-93780000D02*
X93061314Y-93780000D01*
X94750000Y-95468686D02*
X94750000Y-99300000D01*
X94750000Y-99300000D02*
X97300000Y-101850000D01*
X97300000Y-101850000D02*
X97450000Y-101850000D01*
X100450000Y-104850000D02*
X101650000Y-104850000D01*
X101650000Y-104850000D02*
X105250000Y-108450000D01*
X105250000Y-108450000D02*
X105250000Y-115600000D01*
X105250000Y-115600000D02*
X104000000Y-116850000D01*
X104000000Y-116850000D02*
X103550000Y-116850000D01*
G04 #@! TO.N,LCD_D6*
X102164999Y-109849314D02*
X102164999Y-118714999D01*
X98800000Y-107050000D02*
X99365685Y-107050000D01*
X99365685Y-107050000D02*
X102164999Y-109849314D01*
X102164999Y-118714999D02*
X102850000Y-119400000D01*
X102850000Y-119400000D02*
X103400000Y-119400000D01*
G04 #@! TO.N,LCD_D7*
X91840000Y-96320000D02*
X94170000Y-98650000D01*
X94170000Y-98650000D02*
X94170000Y-99430000D01*
X94170000Y-99430000D02*
X94200000Y-99460000D01*
X94200000Y-99460000D02*
X94200000Y-100500000D01*
X94200000Y-100500000D02*
X96850000Y-103150000D01*
X99600000Y-105850000D02*
X101400000Y-105850000D01*
X101400000Y-105850000D02*
X103200000Y-107650000D01*
G04 #@! TO.N,SD_DET*
X90588601Y-122617731D02*
X91370870Y-123400000D01*
X89400000Y-119670000D02*
X90588601Y-120858601D01*
X90588601Y-120858601D02*
X90588601Y-122617731D01*
X91370870Y-123400000D02*
X99600000Y-123400000D01*
X99600000Y-123400000D02*
X100700000Y-122300000D01*
X100700000Y-122300000D02*
X101050000Y-121950000D01*
G04 #@! TO.N,MOSI*
X93161314Y-117130000D02*
X98491314Y-111800000D01*
X91940000Y-117130000D02*
X93161314Y-117130000D01*
X98491314Y-111800000D02*
X100800000Y-111800000D01*
X100800000Y-111800000D02*
X100650000Y-111800000D01*
G04 #@! TO.N,BTN_EN1*
X100848601Y-97711399D02*
X100848601Y-101951399D01*
X102200000Y-96360000D02*
X100848601Y-97711399D01*
X100848601Y-101951399D02*
X96200000Y-106600000D01*
X96200000Y-106600000D02*
X90200000Y-106600000D01*
X90200000Y-106600000D02*
X87350000Y-109450000D01*
X87350000Y-109450000D02*
X87350000Y-116000000D01*
X87350000Y-116000000D02*
X88350000Y-117000000D01*
X88350000Y-117000000D02*
X89400000Y-117000000D01*
G04 #@! TO.N,BTN_EN2*
X102200000Y-93820000D02*
X104050000Y-95670000D01*
X104050000Y-99386410D02*
X96186410Y-107250000D01*
X104050000Y-95670000D02*
X104050000Y-99386410D01*
X90300000Y-107250000D02*
X87800010Y-109749990D01*
X96186410Y-107250000D02*
X90300000Y-107250000D01*
X87800010Y-109749990D02*
X87800010Y-114150000D01*
X87800010Y-114150000D02*
X87800010Y-114150010D01*
X87800010Y-114150010D02*
X88400000Y-114750000D01*
X88400000Y-114750000D02*
X89600000Y-114750000D01*
G04 #@! TO.N,SCK*
X100800000Y-116930000D02*
X94980000Y-116930000D01*
X94980000Y-116930000D02*
X94950000Y-116900000D01*
G04 #@! TO.N,MISO*
X89836400Y-110500000D02*
X98300000Y-110500000D01*
X89400000Y-112050000D02*
X89400000Y-110936400D01*
X89400000Y-110936400D02*
X89836400Y-110500000D01*
G04 #@! TD*
D17*
G04 #@! TO.N,GND*
G36*
X109265001Y-129265000D02*
X82735000Y-129265000D01*
X82735000Y-122569026D01*
X87945042Y-122569026D01*
X88117312Y-122984947D01*
X88511510Y-123416821D01*
X89040973Y-123664968D01*
X89273000Y-123544469D01*
X89273000Y-122337000D01*
X88066183Y-122337000D01*
X87945042Y-122569026D01*
X82735000Y-122569026D01*
X82735000Y-109450000D01*
X86575112Y-109450000D01*
X86590000Y-109524847D01*
X86590001Y-115925148D01*
X86575112Y-116000000D01*
X86634097Y-116296537D01*
X86738022Y-116452071D01*
X86802072Y-116547929D01*
X86865528Y-116590329D01*
X87759671Y-117484473D01*
X87802071Y-117547929D01*
X87978640Y-117665909D01*
X87988350Y-117714725D01*
X88319570Y-118210430D01*
X88603281Y-118400000D01*
X88319570Y-118589570D01*
X87988350Y-119085275D01*
X87872041Y-119670000D01*
X87988350Y-120254725D01*
X88319570Y-120750430D01*
X88621021Y-120951854D01*
X88511510Y-121003179D01*
X88117312Y-121435053D01*
X87945042Y-121850974D01*
X88066183Y-122083000D01*
X89273000Y-122083000D01*
X89273000Y-122063000D01*
X89527000Y-122063000D01*
X89527000Y-122083000D01*
X89547000Y-122083000D01*
X89547000Y-122337000D01*
X89527000Y-122337000D01*
X89527000Y-123544469D01*
X89759027Y-123664968D01*
X90288490Y-123416821D01*
X90300133Y-123404065D01*
X90780543Y-123884475D01*
X90822941Y-123947929D01*
X90886394Y-123990327D01*
X90886396Y-123990329D01*
X91011772Y-124074102D01*
X91074333Y-124115904D01*
X91296018Y-124160000D01*
X91296022Y-124160000D01*
X91370869Y-124174888D01*
X91445716Y-124160000D01*
X99525153Y-124160000D01*
X99600000Y-124174888D01*
X99674847Y-124160000D01*
X99674852Y-124160000D01*
X99896537Y-124115904D01*
X100147929Y-123947929D01*
X100190331Y-123884470D01*
X100592069Y-123482732D01*
X100653744Y-123495000D01*
X100946256Y-123495000D01*
X101379418Y-123408839D01*
X101870625Y-123080625D01*
X102070000Y-122782239D01*
X102269375Y-123080625D01*
X102760582Y-123408839D01*
X103193744Y-123495000D01*
X103486256Y-123495000D01*
X103919418Y-123408839D01*
X104410625Y-123080625D01*
X104738839Y-122589418D01*
X104854092Y-122010000D01*
X104738839Y-121430582D01*
X104410625Y-120939375D01*
X104112239Y-120740000D01*
X104410625Y-120540625D01*
X104738839Y-120049418D01*
X104854092Y-119470000D01*
X104738839Y-118890582D01*
X104410625Y-118399375D01*
X104112239Y-118200000D01*
X104410625Y-118000625D01*
X104738839Y-117509418D01*
X104819154Y-117105648D01*
X105734473Y-116190329D01*
X105797929Y-116147929D01*
X105965904Y-115896537D01*
X106010000Y-115674852D01*
X106010000Y-115674847D01*
X106024888Y-115600000D01*
X106010000Y-115525153D01*
X106010000Y-108524848D01*
X106024888Y-108450000D01*
X106010000Y-108375152D01*
X106010000Y-108375148D01*
X105965904Y-108153463D01*
X105965904Y-108153462D01*
X105840329Y-107965527D01*
X105797929Y-107902071D01*
X105734473Y-107859671D01*
X102240331Y-104365530D01*
X102197929Y-104302071D01*
X101946537Y-104134096D01*
X101724852Y-104090000D01*
X101724847Y-104090000D01*
X101650000Y-104075112D01*
X101575153Y-104090000D01*
X101153711Y-104090000D01*
X101036280Y-103972569D01*
X100684397Y-103826815D01*
X104534473Y-99976739D01*
X104597929Y-99934339D01*
X104765904Y-99682947D01*
X104810000Y-99461262D01*
X104810000Y-99461258D01*
X104824888Y-99386410D01*
X104810000Y-99311562D01*
X104810000Y-95744846D01*
X104824888Y-95669999D01*
X104810000Y-95595152D01*
X104810000Y-95595148D01*
X104765904Y-95373463D01*
X104597929Y-95122071D01*
X104534473Y-95079671D01*
X103652775Y-94197974D01*
X103727959Y-93820000D01*
X103611650Y-93235275D01*
X103280430Y-92739570D01*
X102996719Y-92550000D01*
X103280430Y-92360430D01*
X103611650Y-91864725D01*
X103727959Y-91280000D01*
X103611650Y-90695275D01*
X103280430Y-90199570D01*
X102978979Y-89998146D01*
X103088490Y-89946821D01*
X103482688Y-89514947D01*
X103654958Y-89099026D01*
X103533817Y-88867000D01*
X102327000Y-88867000D01*
X102327000Y-88887000D01*
X102073000Y-88887000D01*
X102073000Y-88867000D01*
X102053000Y-88867000D01*
X102053000Y-88613000D01*
X102073000Y-88613000D01*
X102073000Y-87405531D01*
X102327000Y-87405531D01*
X102327000Y-88613000D01*
X103533817Y-88613000D01*
X103654958Y-88380974D01*
X103482688Y-87965053D01*
X103088490Y-87533179D01*
X102559027Y-87285032D01*
X102327000Y-87405531D01*
X102073000Y-87405531D01*
X101840973Y-87285032D01*
X101311510Y-87533179D01*
X100933037Y-87947826D01*
X100740430Y-87659570D01*
X100385000Y-87422079D01*
X100385000Y-87277312D01*
X100400378Y-87200000D01*
X100385000Y-87122688D01*
X100385000Y-87122684D01*
X100339454Y-86893708D01*
X100165953Y-86634047D01*
X100100408Y-86590251D01*
X99059749Y-85549592D01*
X99015953Y-85484047D01*
X98756292Y-85310546D01*
X98527316Y-85265000D01*
X98527312Y-85265000D01*
X98450000Y-85249622D01*
X98372688Y-85265000D01*
X91877310Y-85265000D01*
X91799999Y-85249622D01*
X91722688Y-85265000D01*
X91722684Y-85265000D01*
X91493708Y-85310546D01*
X91493706Y-85310547D01*
X91493707Y-85310547D01*
X91299591Y-85440251D01*
X91299589Y-85440253D01*
X91234047Y-85484047D01*
X91190253Y-85549589D01*
X90125989Y-86613854D01*
X90060447Y-86657648D01*
X90016653Y-86723190D01*
X90016650Y-86723193D01*
X89886945Y-86917310D01*
X89832911Y-87188960D01*
X88436400Y-87188960D01*
X88188635Y-87238243D01*
X87978591Y-87378591D01*
X87838243Y-87588635D01*
X87788960Y-87836400D01*
X87788960Y-89563600D01*
X87838243Y-89811365D01*
X87978591Y-90021409D01*
X88188635Y-90161757D01*
X88214651Y-90166932D01*
X87888350Y-90655275D01*
X87772041Y-91240000D01*
X87888350Y-91824725D01*
X88219570Y-92320430D01*
X88503281Y-92510000D01*
X88219570Y-92699570D01*
X87888350Y-93195275D01*
X87772041Y-93780000D01*
X87888350Y-94364725D01*
X88219570Y-94860430D01*
X88503281Y-95050000D01*
X88219570Y-95239570D01*
X87888350Y-95735275D01*
X87772041Y-96320000D01*
X87888350Y-96904725D01*
X88219570Y-97400430D01*
X88521021Y-97601854D01*
X88411510Y-97653179D01*
X88017312Y-98085053D01*
X87845042Y-98500974D01*
X87966183Y-98733000D01*
X89173000Y-98733000D01*
X89173000Y-98713000D01*
X89427000Y-98713000D01*
X89427000Y-98733000D01*
X89447000Y-98733000D01*
X89447000Y-98987000D01*
X89427000Y-98987000D01*
X89427000Y-100194469D01*
X89659027Y-100314968D01*
X90188490Y-100066821D01*
X90566963Y-99652174D01*
X90759570Y-99940430D01*
X91255275Y-100271650D01*
X91692402Y-100358600D01*
X91987598Y-100358600D01*
X92424725Y-100271650D01*
X92920430Y-99940430D01*
X93251650Y-99444725D01*
X93357546Y-98912348D01*
X93410000Y-98964802D01*
X93410000Y-99355153D01*
X93395112Y-99430000D01*
X93410000Y-99504847D01*
X93410000Y-99504852D01*
X93440000Y-99655670D01*
X93440001Y-100425149D01*
X93425112Y-100500000D01*
X93440001Y-100574852D01*
X93484097Y-100796537D01*
X93652072Y-101047929D01*
X93715528Y-101090329D01*
X95815000Y-103189802D01*
X95815000Y-103355874D01*
X95972569Y-103736280D01*
X96263720Y-104027431D01*
X96644126Y-104185000D01*
X97055874Y-104185000D01*
X97436280Y-104027431D01*
X97727431Y-103736280D01*
X97885000Y-103355874D01*
X97885000Y-102944126D01*
X97830541Y-102812651D01*
X98036280Y-102727431D01*
X98327431Y-102436280D01*
X98485000Y-102055874D01*
X98485000Y-101644126D01*
X98327431Y-101263720D01*
X98036280Y-100972569D01*
X97655874Y-100815000D01*
X97339802Y-100815000D01*
X95510000Y-98985199D01*
X95510000Y-97046115D01*
X97848357Y-99384473D01*
X97890757Y-99447929D01*
X98142149Y-99615904D01*
X98363834Y-99660000D01*
X98363838Y-99660000D01*
X98365715Y-99660373D01*
X98579570Y-99980430D01*
X99075275Y-100311650D01*
X99512402Y-100398600D01*
X99807598Y-100398600D01*
X100088602Y-100342705D01*
X100088602Y-101636596D01*
X95885199Y-105840000D01*
X90274848Y-105840000D01*
X90200000Y-105825112D01*
X90125152Y-105840000D01*
X90125148Y-105840000D01*
X89951605Y-105874520D01*
X89903462Y-105884096D01*
X89716418Y-106009076D01*
X89652071Y-106052071D01*
X89609671Y-106115527D01*
X86865530Y-108859669D01*
X86802071Y-108902071D01*
X86634096Y-109153464D01*
X86590000Y-109375149D01*
X86590000Y-109375153D01*
X86575112Y-109450000D01*
X82735000Y-109450000D01*
X82735000Y-99219026D01*
X87845042Y-99219026D01*
X88017312Y-99634947D01*
X88411510Y-100066821D01*
X88940973Y-100314968D01*
X89173000Y-100194469D01*
X89173000Y-98987000D01*
X87966183Y-98987000D01*
X87845042Y-99219026D01*
X82735000Y-99219026D01*
X82735000Y-81735000D01*
X109265000Y-81735000D01*
X109265001Y-129265000D01*
X109265001Y-129265000D01*
G37*
X109265001Y-129265000D02*
X82735000Y-129265000D01*
X82735000Y-122569026D01*
X87945042Y-122569026D01*
X88117312Y-122984947D01*
X88511510Y-123416821D01*
X89040973Y-123664968D01*
X89273000Y-123544469D01*
X89273000Y-122337000D01*
X88066183Y-122337000D01*
X87945042Y-122569026D01*
X82735000Y-122569026D01*
X82735000Y-109450000D01*
X86575112Y-109450000D01*
X86590000Y-109524847D01*
X86590001Y-115925148D01*
X86575112Y-116000000D01*
X86634097Y-116296537D01*
X86738022Y-116452071D01*
X86802072Y-116547929D01*
X86865528Y-116590329D01*
X87759671Y-117484473D01*
X87802071Y-117547929D01*
X87978640Y-117665909D01*
X87988350Y-117714725D01*
X88319570Y-118210430D01*
X88603281Y-118400000D01*
X88319570Y-118589570D01*
X87988350Y-119085275D01*
X87872041Y-119670000D01*
X87988350Y-120254725D01*
X88319570Y-120750430D01*
X88621021Y-120951854D01*
X88511510Y-121003179D01*
X88117312Y-121435053D01*
X87945042Y-121850974D01*
X88066183Y-122083000D01*
X89273000Y-122083000D01*
X89273000Y-122063000D01*
X89527000Y-122063000D01*
X89527000Y-122083000D01*
X89547000Y-122083000D01*
X89547000Y-122337000D01*
X89527000Y-122337000D01*
X89527000Y-123544469D01*
X89759027Y-123664968D01*
X90288490Y-123416821D01*
X90300133Y-123404065D01*
X90780543Y-123884475D01*
X90822941Y-123947929D01*
X90886394Y-123990327D01*
X90886396Y-123990329D01*
X91011772Y-124074102D01*
X91074333Y-124115904D01*
X91296018Y-124160000D01*
X91296022Y-124160000D01*
X91370869Y-124174888D01*
X91445716Y-124160000D01*
X99525153Y-124160000D01*
X99600000Y-124174888D01*
X99674847Y-124160000D01*
X99674852Y-124160000D01*
X99896537Y-124115904D01*
X100147929Y-123947929D01*
X100190331Y-123884470D01*
X100592069Y-123482732D01*
X100653744Y-123495000D01*
X100946256Y-123495000D01*
X101379418Y-123408839D01*
X101870625Y-123080625D01*
X102070000Y-122782239D01*
X102269375Y-123080625D01*
X102760582Y-123408839D01*
X103193744Y-123495000D01*
X103486256Y-123495000D01*
X103919418Y-123408839D01*
X104410625Y-123080625D01*
X104738839Y-122589418D01*
X104854092Y-122010000D01*
X104738839Y-121430582D01*
X104410625Y-120939375D01*
X104112239Y-120740000D01*
X104410625Y-120540625D01*
X104738839Y-120049418D01*
X104854092Y-119470000D01*
X104738839Y-118890582D01*
X104410625Y-118399375D01*
X104112239Y-118200000D01*
X104410625Y-118000625D01*
X104738839Y-117509418D01*
X104819154Y-117105648D01*
X105734473Y-116190329D01*
X105797929Y-116147929D01*
X105965904Y-115896537D01*
X106010000Y-115674852D01*
X106010000Y-115674847D01*
X106024888Y-115600000D01*
X106010000Y-115525153D01*
X106010000Y-108524848D01*
X106024888Y-108450000D01*
X106010000Y-108375152D01*
X106010000Y-108375148D01*
X105965904Y-108153463D01*
X105965904Y-108153462D01*
X105840329Y-107965527D01*
X105797929Y-107902071D01*
X105734473Y-107859671D01*
X102240331Y-104365530D01*
X102197929Y-104302071D01*
X101946537Y-104134096D01*
X101724852Y-104090000D01*
X101724847Y-104090000D01*
X101650000Y-104075112D01*
X101575153Y-104090000D01*
X101153711Y-104090000D01*
X101036280Y-103972569D01*
X100684397Y-103826815D01*
X104534473Y-99976739D01*
X104597929Y-99934339D01*
X104765904Y-99682947D01*
X104810000Y-99461262D01*
X104810000Y-99461258D01*
X104824888Y-99386410D01*
X104810000Y-99311562D01*
X104810000Y-95744846D01*
X104824888Y-95669999D01*
X104810000Y-95595152D01*
X104810000Y-95595148D01*
X104765904Y-95373463D01*
X104597929Y-95122071D01*
X104534473Y-95079671D01*
X103652775Y-94197974D01*
X103727959Y-93820000D01*
X103611650Y-93235275D01*
X103280430Y-92739570D01*
X102996719Y-92550000D01*
X103280430Y-92360430D01*
X103611650Y-91864725D01*
X103727959Y-91280000D01*
X103611650Y-90695275D01*
X103280430Y-90199570D01*
X102978979Y-89998146D01*
X103088490Y-89946821D01*
X103482688Y-89514947D01*
X103654958Y-89099026D01*
X103533817Y-88867000D01*
X102327000Y-88867000D01*
X102327000Y-88887000D01*
X102073000Y-88887000D01*
X102073000Y-88867000D01*
X102053000Y-88867000D01*
X102053000Y-88613000D01*
X102073000Y-88613000D01*
X102073000Y-87405531D01*
X102327000Y-87405531D01*
X102327000Y-88613000D01*
X103533817Y-88613000D01*
X103654958Y-88380974D01*
X103482688Y-87965053D01*
X103088490Y-87533179D01*
X102559027Y-87285032D01*
X102327000Y-87405531D01*
X102073000Y-87405531D01*
X101840973Y-87285032D01*
X101311510Y-87533179D01*
X100933037Y-87947826D01*
X100740430Y-87659570D01*
X100385000Y-87422079D01*
X100385000Y-87277312D01*
X100400378Y-87200000D01*
X100385000Y-87122688D01*
X100385000Y-87122684D01*
X100339454Y-86893708D01*
X100165953Y-86634047D01*
X100100408Y-86590251D01*
X99059749Y-85549592D01*
X99015953Y-85484047D01*
X98756292Y-85310546D01*
X98527316Y-85265000D01*
X98527312Y-85265000D01*
X98450000Y-85249622D01*
X98372688Y-85265000D01*
X91877310Y-85265000D01*
X91799999Y-85249622D01*
X91722688Y-85265000D01*
X91722684Y-85265000D01*
X91493708Y-85310546D01*
X91493706Y-85310547D01*
X91493707Y-85310547D01*
X91299591Y-85440251D01*
X91299589Y-85440253D01*
X91234047Y-85484047D01*
X91190253Y-85549589D01*
X90125989Y-86613854D01*
X90060447Y-86657648D01*
X90016653Y-86723190D01*
X90016650Y-86723193D01*
X89886945Y-86917310D01*
X89832911Y-87188960D01*
X88436400Y-87188960D01*
X88188635Y-87238243D01*
X87978591Y-87378591D01*
X87838243Y-87588635D01*
X87788960Y-87836400D01*
X87788960Y-89563600D01*
X87838243Y-89811365D01*
X87978591Y-90021409D01*
X88188635Y-90161757D01*
X88214651Y-90166932D01*
X87888350Y-90655275D01*
X87772041Y-91240000D01*
X87888350Y-91824725D01*
X88219570Y-92320430D01*
X88503281Y-92510000D01*
X88219570Y-92699570D01*
X87888350Y-93195275D01*
X87772041Y-93780000D01*
X87888350Y-94364725D01*
X88219570Y-94860430D01*
X88503281Y-95050000D01*
X88219570Y-95239570D01*
X87888350Y-95735275D01*
X87772041Y-96320000D01*
X87888350Y-96904725D01*
X88219570Y-97400430D01*
X88521021Y-97601854D01*
X88411510Y-97653179D01*
X88017312Y-98085053D01*
X87845042Y-98500974D01*
X87966183Y-98733000D01*
X89173000Y-98733000D01*
X89173000Y-98713000D01*
X89427000Y-98713000D01*
X89427000Y-98733000D01*
X89447000Y-98733000D01*
X89447000Y-98987000D01*
X89427000Y-98987000D01*
X89427000Y-100194469D01*
X89659027Y-100314968D01*
X90188490Y-100066821D01*
X90566963Y-99652174D01*
X90759570Y-99940430D01*
X91255275Y-100271650D01*
X91692402Y-100358600D01*
X91987598Y-100358600D01*
X92424725Y-100271650D01*
X92920430Y-99940430D01*
X93251650Y-99444725D01*
X93357546Y-98912348D01*
X93410000Y-98964802D01*
X93410000Y-99355153D01*
X93395112Y-99430000D01*
X93410000Y-99504847D01*
X93410000Y-99504852D01*
X93440000Y-99655670D01*
X93440001Y-100425149D01*
X93425112Y-100500000D01*
X93440001Y-100574852D01*
X93484097Y-100796537D01*
X93652072Y-101047929D01*
X93715528Y-101090329D01*
X95815000Y-103189802D01*
X95815000Y-103355874D01*
X95972569Y-103736280D01*
X96263720Y-104027431D01*
X96644126Y-104185000D01*
X97055874Y-104185000D01*
X97436280Y-104027431D01*
X97727431Y-103736280D01*
X97885000Y-103355874D01*
X97885000Y-102944126D01*
X97830541Y-102812651D01*
X98036280Y-102727431D01*
X98327431Y-102436280D01*
X98485000Y-102055874D01*
X98485000Y-101644126D01*
X98327431Y-101263720D01*
X98036280Y-100972569D01*
X97655874Y-100815000D01*
X97339802Y-100815000D01*
X95510000Y-98985199D01*
X95510000Y-97046115D01*
X97848357Y-99384473D01*
X97890757Y-99447929D01*
X98142149Y-99615904D01*
X98363834Y-99660000D01*
X98363838Y-99660000D01*
X98365715Y-99660373D01*
X98579570Y-99980430D01*
X99075275Y-100311650D01*
X99512402Y-100398600D01*
X99807598Y-100398600D01*
X100088602Y-100342705D01*
X100088602Y-101636596D01*
X95885199Y-105840000D01*
X90274848Y-105840000D01*
X90200000Y-105825112D01*
X90125152Y-105840000D01*
X90125148Y-105840000D01*
X89951605Y-105874520D01*
X89903462Y-105884096D01*
X89716418Y-106009076D01*
X89652071Y-106052071D01*
X89609671Y-106115527D01*
X86865530Y-108859669D01*
X86802071Y-108902071D01*
X86634096Y-109153464D01*
X86590000Y-109375149D01*
X86590000Y-109375153D01*
X86575112Y-109450000D01*
X82735000Y-109450000D01*
X82735000Y-99219026D01*
X87845042Y-99219026D01*
X88017312Y-99634947D01*
X88411510Y-100066821D01*
X88940973Y-100314968D01*
X89173000Y-100194469D01*
X89173000Y-98987000D01*
X87966183Y-98987000D01*
X87845042Y-99219026D01*
X82735000Y-99219026D01*
X82735000Y-81735000D01*
X109265000Y-81735000D01*
X109265001Y-129265000D01*
G36*
X94072569Y-117486280D02*
X94363720Y-117777431D01*
X94744126Y-117935000D01*
X95155874Y-117935000D01*
X95536280Y-117777431D01*
X95623711Y-117690000D01*
X99521822Y-117690000D01*
X99729375Y-118000625D01*
X100027761Y-118200000D01*
X99729375Y-118399375D01*
X99401161Y-118890582D01*
X99285908Y-119470000D01*
X99401161Y-120049418D01*
X99729375Y-120540625D01*
X100027761Y-120740000D01*
X99729375Y-120939375D01*
X99401161Y-121430582D01*
X99285908Y-122010000D01*
X99390314Y-122534885D01*
X99285199Y-122640000D01*
X93382427Y-122640000D01*
X93467959Y-122210000D01*
X93351650Y-121625275D01*
X93020430Y-121129570D01*
X92736719Y-120940000D01*
X93020430Y-120750430D01*
X93351650Y-120254725D01*
X93467959Y-119670000D01*
X93351650Y-119085275D01*
X93020430Y-118589570D01*
X92736719Y-118400000D01*
X93020430Y-118210430D01*
X93234286Y-117890373D01*
X93236161Y-117890000D01*
X93236166Y-117890000D01*
X93457851Y-117845904D01*
X93709243Y-117677929D01*
X93751645Y-117614470D01*
X94016119Y-117349996D01*
X94072569Y-117486280D01*
X94072569Y-117486280D01*
G37*
X94072569Y-117486280D02*
X94363720Y-117777431D01*
X94744126Y-117935000D01*
X95155874Y-117935000D01*
X95536280Y-117777431D01*
X95623711Y-117690000D01*
X99521822Y-117690000D01*
X99729375Y-118000625D01*
X100027761Y-118200000D01*
X99729375Y-118399375D01*
X99401161Y-118890582D01*
X99285908Y-119470000D01*
X99401161Y-120049418D01*
X99729375Y-120540625D01*
X100027761Y-120740000D01*
X99729375Y-120939375D01*
X99401161Y-121430582D01*
X99285908Y-122010000D01*
X99390314Y-122534885D01*
X99285199Y-122640000D01*
X93382427Y-122640000D01*
X93467959Y-122210000D01*
X93351650Y-121625275D01*
X93020430Y-121129570D01*
X92736719Y-120940000D01*
X93020430Y-120750430D01*
X93351650Y-120254725D01*
X93467959Y-119670000D01*
X93351650Y-119085275D01*
X93020430Y-118589570D01*
X92736719Y-118400000D01*
X93020430Y-118210430D01*
X93234286Y-117890373D01*
X93236161Y-117890000D01*
X93236166Y-117890000D01*
X93457851Y-117845904D01*
X93709243Y-117677929D01*
X93751645Y-117614470D01*
X94016119Y-117349996D01*
X94072569Y-117486280D01*
G36*
X99302560Y-112700000D02*
X99351843Y-112947765D01*
X99492191Y-113157809D01*
X99702235Y-113298157D01*
X99747619Y-113307184D01*
X99729375Y-113319375D01*
X99401161Y-113810582D01*
X99285908Y-114390000D01*
X99401161Y-114969418D01*
X99729375Y-115460625D01*
X100027761Y-115660000D01*
X99729375Y-115859375D01*
X99521822Y-116170000D01*
X95683711Y-116170000D01*
X95536280Y-116022569D01*
X95399997Y-115966119D01*
X98806117Y-112560000D01*
X99302560Y-112560000D01*
X99302560Y-112700000D01*
X99302560Y-112700000D01*
G37*
X99302560Y-112700000D02*
X99351843Y-112947765D01*
X99492191Y-113157809D01*
X99702235Y-113298157D01*
X99747619Y-113307184D01*
X99729375Y-113319375D01*
X99401161Y-113810582D01*
X99285908Y-114390000D01*
X99401161Y-114969418D01*
X99729375Y-115460625D01*
X100027761Y-115660000D01*
X99729375Y-115859375D01*
X99521822Y-116170000D01*
X95683711Y-116170000D01*
X95536280Y-116022569D01*
X95399997Y-115966119D01*
X98806117Y-112560000D01*
X99302560Y-112560000D01*
X99302560Y-112700000D01*
G36*
X97713720Y-111377431D02*
X97802363Y-111414148D01*
X93079115Y-116137398D01*
X93020430Y-116049570D01*
X92736719Y-115860000D01*
X93020430Y-115670430D01*
X93351650Y-115174725D01*
X93467959Y-114590000D01*
X93351650Y-114005275D01*
X93020430Y-113509570D01*
X92736719Y-113320000D01*
X93020430Y-113130430D01*
X93351650Y-112634725D01*
X93467959Y-112050000D01*
X93351650Y-111465275D01*
X93214489Y-111260000D01*
X97596289Y-111260000D01*
X97713720Y-111377431D01*
X97713720Y-111377431D01*
G37*
X97713720Y-111377431D02*
X97802363Y-111414148D01*
X93079115Y-116137398D01*
X93020430Y-116049570D01*
X92736719Y-115860000D01*
X93020430Y-115670430D01*
X93351650Y-115174725D01*
X93467959Y-114590000D01*
X93351650Y-114005275D01*
X93020430Y-113509570D01*
X92736719Y-113320000D01*
X93020430Y-113130430D01*
X93351650Y-112634725D01*
X93467959Y-112050000D01*
X93351650Y-111465275D01*
X93214489Y-111260000D01*
X97596289Y-111260000D01*
X97713720Y-111377431D01*
G36*
X97765000Y-106844126D02*
X97765000Y-107255874D01*
X97922569Y-107636280D01*
X98213720Y-107927431D01*
X98594126Y-108085000D01*
X99005874Y-108085000D01*
X99232155Y-107991271D01*
X101404999Y-110164116D01*
X101404999Y-110352560D01*
X99950000Y-110352560D01*
X99702235Y-110401843D01*
X99492191Y-110542191D01*
X99351843Y-110752235D01*
X99302560Y-111000000D01*
X99302560Y-111040000D01*
X99196601Y-111040000D01*
X99335000Y-110705874D01*
X99335000Y-110294126D01*
X99177431Y-109913720D01*
X98886280Y-109622569D01*
X98505874Y-109465000D01*
X98094126Y-109465000D01*
X97713720Y-109622569D01*
X97596289Y-109740000D01*
X89911248Y-109740000D01*
X89836400Y-109725112D01*
X89761552Y-109740000D01*
X89761548Y-109740000D01*
X89588296Y-109774462D01*
X89539862Y-109784096D01*
X89446118Y-109846734D01*
X89288471Y-109952071D01*
X89246069Y-110015530D01*
X88915528Y-110346071D01*
X88852072Y-110388471D01*
X88809672Y-110451927D01*
X88809671Y-110451928D01*
X88751518Y-110538960D01*
X88560010Y-110538960D01*
X88560010Y-110064791D01*
X90614802Y-108010000D01*
X96111563Y-108010000D01*
X96186410Y-108024888D01*
X96261257Y-108010000D01*
X96261262Y-108010000D01*
X96482947Y-107965904D01*
X96734339Y-107797929D01*
X96776741Y-107734470D01*
X97834236Y-106676975D01*
X97765000Y-106844126D01*
X97765000Y-106844126D01*
G37*
X97765000Y-106844126D02*
X97765000Y-107255874D01*
X97922569Y-107636280D01*
X98213720Y-107927431D01*
X98594126Y-108085000D01*
X99005874Y-108085000D01*
X99232155Y-107991271D01*
X101404999Y-110164116D01*
X101404999Y-110352560D01*
X99950000Y-110352560D01*
X99702235Y-110401843D01*
X99492191Y-110542191D01*
X99351843Y-110752235D01*
X99302560Y-111000000D01*
X99302560Y-111040000D01*
X99196601Y-111040000D01*
X99335000Y-110705874D01*
X99335000Y-110294126D01*
X99177431Y-109913720D01*
X98886280Y-109622569D01*
X98505874Y-109465000D01*
X98094126Y-109465000D01*
X97713720Y-109622569D01*
X97596289Y-109740000D01*
X89911248Y-109740000D01*
X89836400Y-109725112D01*
X89761552Y-109740000D01*
X89761548Y-109740000D01*
X89588296Y-109774462D01*
X89539862Y-109784096D01*
X89446118Y-109846734D01*
X89288471Y-109952071D01*
X89246069Y-110015530D01*
X88915528Y-110346071D01*
X88852072Y-110388471D01*
X88809672Y-110451927D01*
X88809671Y-110451928D01*
X88751518Y-110538960D01*
X88560010Y-110538960D01*
X88560010Y-110064791D01*
X90614802Y-108010000D01*
X96111563Y-108010000D01*
X96186410Y-108024888D01*
X96261257Y-108010000D01*
X96261262Y-108010000D01*
X96482947Y-107965904D01*
X96734339Y-107797929D01*
X96776741Y-107734470D01*
X97834236Y-106676975D01*
X97765000Y-106844126D01*
G36*
X102165000Y-107689802D02*
X102165000Y-107855874D01*
X102322569Y-108236280D01*
X102613720Y-108527431D01*
X102994126Y-108685000D01*
X103405874Y-108685000D01*
X103786280Y-108527431D01*
X104019455Y-108294256D01*
X104490000Y-108764802D01*
X104490000Y-110898169D01*
X104410625Y-110779375D01*
X103919418Y-110451161D01*
X103486256Y-110365000D01*
X103193744Y-110365000D01*
X102924999Y-110418457D01*
X102924999Y-109924162D01*
X102939887Y-109849314D01*
X102924999Y-109774466D01*
X102924999Y-109774462D01*
X102880903Y-109552777D01*
X102880903Y-109552776D01*
X102755328Y-109364841D01*
X102712928Y-109301385D01*
X102649472Y-109258985D01*
X100137940Y-106747454D01*
X100186280Y-106727431D01*
X100303711Y-106610000D01*
X101085199Y-106610000D01*
X102165000Y-107689802D01*
X102165000Y-107689802D01*
G37*
X102165000Y-107689802D02*
X102165000Y-107855874D01*
X102322569Y-108236280D01*
X102613720Y-108527431D01*
X102994126Y-108685000D01*
X103405874Y-108685000D01*
X103786280Y-108527431D01*
X104019455Y-108294256D01*
X104490000Y-108764802D01*
X104490000Y-110898169D01*
X104410625Y-110779375D01*
X103919418Y-110451161D01*
X103486256Y-110365000D01*
X103193744Y-110365000D01*
X102924999Y-110418457D01*
X102924999Y-109924162D01*
X102939887Y-109849314D01*
X102924999Y-109774466D01*
X102924999Y-109774462D01*
X102880903Y-109552777D01*
X102880903Y-109552776D01*
X102755328Y-109364841D01*
X102712928Y-109301385D01*
X102649472Y-109258985D01*
X100137940Y-106747454D01*
X100186280Y-106727431D01*
X100303711Y-106610000D01*
X101085199Y-106610000D01*
X102165000Y-107689802D01*
G36*
X98801275Y-87511432D02*
X98579570Y-87659570D01*
X98248350Y-88155275D01*
X98132041Y-88740000D01*
X98248350Y-89324725D01*
X98579570Y-89820430D01*
X98863281Y-90010000D01*
X98579570Y-90199570D01*
X98248350Y-90695275D01*
X98132041Y-91280000D01*
X98248350Y-91864725D01*
X98579570Y-92360430D01*
X98863281Y-92550000D01*
X98579570Y-92739570D01*
X98248350Y-93235275D01*
X98132041Y-93820000D01*
X98248350Y-94404725D01*
X98579570Y-94900430D01*
X98863281Y-95090000D01*
X98579570Y-95279570D01*
X98248350Y-95775275D01*
X98132041Y-96360000D01*
X98248350Y-96944725D01*
X98579570Y-97440430D01*
X98863281Y-97630000D01*
X98579570Y-97819570D01*
X98520885Y-97907398D01*
X96410000Y-95796513D01*
X96410000Y-91224847D01*
X96424888Y-91150000D01*
X96410000Y-91075153D01*
X96410000Y-91075148D01*
X96365904Y-90853463D01*
X96197929Y-90602071D01*
X96134473Y-90559671D01*
X93890331Y-88315530D01*
X93847929Y-88252071D01*
X93596537Y-88084096D01*
X93374852Y-88040000D01*
X93374847Y-88040000D01*
X93300000Y-88025112D01*
X93225153Y-88040000D01*
X93201353Y-88040000D01*
X92920430Y-87619570D01*
X92424725Y-87288350D01*
X91987598Y-87201400D01*
X91758757Y-87201400D01*
X92125158Y-86835000D01*
X98124843Y-86835000D01*
X98801275Y-87511432D01*
X98801275Y-87511432D01*
G37*
X98801275Y-87511432D02*
X98579570Y-87659570D01*
X98248350Y-88155275D01*
X98132041Y-88740000D01*
X98248350Y-89324725D01*
X98579570Y-89820430D01*
X98863281Y-90010000D01*
X98579570Y-90199570D01*
X98248350Y-90695275D01*
X98132041Y-91280000D01*
X98248350Y-91864725D01*
X98579570Y-92360430D01*
X98863281Y-92550000D01*
X98579570Y-92739570D01*
X98248350Y-93235275D01*
X98132041Y-93820000D01*
X98248350Y-94404725D01*
X98579570Y-94900430D01*
X98863281Y-95090000D01*
X98579570Y-95279570D01*
X98248350Y-95775275D01*
X98132041Y-96360000D01*
X98248350Y-96944725D01*
X98579570Y-97440430D01*
X98863281Y-97630000D01*
X98579570Y-97819570D01*
X98520885Y-97907398D01*
X96410000Y-95796513D01*
X96410000Y-91224847D01*
X96424888Y-91150000D01*
X96410000Y-91075153D01*
X96410000Y-91075148D01*
X96365904Y-90853463D01*
X96197929Y-90602071D01*
X96134473Y-90559671D01*
X93890331Y-88315530D01*
X93847929Y-88252071D01*
X93596537Y-88084096D01*
X93374852Y-88040000D01*
X93374847Y-88040000D01*
X93300000Y-88025112D01*
X93225153Y-88040000D01*
X93201353Y-88040000D01*
X92920430Y-87619570D01*
X92424725Y-87288350D01*
X91987598Y-87201400D01*
X91758757Y-87201400D01*
X92125158Y-86835000D01*
X98124843Y-86835000D01*
X98801275Y-87511432D01*
G36*
X93990000Y-95783488D02*
X93990001Y-97395199D01*
X93292775Y-96697974D01*
X93367959Y-96320000D01*
X93251650Y-95735275D01*
X92920430Y-95239570D01*
X92636719Y-95050000D01*
X92920430Y-94860430D01*
X92979115Y-94772602D01*
X93990000Y-95783488D01*
X93990000Y-95783488D01*
G37*
X93990000Y-95783488D02*
X93990001Y-97395199D01*
X93292775Y-96697974D01*
X93367959Y-96320000D01*
X93251650Y-95735275D01*
X92920430Y-95239570D01*
X92636719Y-95050000D01*
X92920430Y-94860430D01*
X92979115Y-94772602D01*
X93990000Y-95783488D01*
G36*
X94890001Y-91464803D02*
X94890000Y-94533885D01*
X93651645Y-93295530D01*
X93609243Y-93232071D01*
X93357851Y-93064096D01*
X93136166Y-93020000D01*
X93136161Y-93020000D01*
X93134286Y-93019627D01*
X92920430Y-92699570D01*
X92636719Y-92510000D01*
X92920430Y-92320430D01*
X93251650Y-91824725D01*
X93367959Y-91240000D01*
X93251650Y-90655275D01*
X92920430Y-90159570D01*
X92636719Y-89970000D01*
X92920430Y-89780430D01*
X93034665Y-89609466D01*
X94890001Y-91464803D01*
X94890001Y-91464803D01*
G37*
X94890001Y-91464803D02*
X94890000Y-94533885D01*
X93651645Y-93295530D01*
X93609243Y-93232071D01*
X93357851Y-93064096D01*
X93136166Y-93020000D01*
X93136161Y-93020000D01*
X93134286Y-93019627D01*
X92920430Y-92699570D01*
X92636719Y-92510000D01*
X92920430Y-92320430D01*
X93251650Y-91824725D01*
X93367959Y-91240000D01*
X93251650Y-90655275D01*
X92920430Y-90159570D01*
X92636719Y-89970000D01*
X92920430Y-89780430D01*
X93034665Y-89609466D01*
X94890001Y-91464803D01*
G04 #@! TD*
M02*
