M48
;DRILL file {KiCad 5.0.2-bee76a0~70~ubuntu18.04.1} date Mon 09 Dec 2019 11:25:49 PM JST
;FORMAT={-:-/ absolute / inch / decimal}
FMAT,2
INCH,TZ
T1C0.0157
T2C0.0394
T3C0.0400
%
G90
G05
T1
X3.5709Y-4.2953
X3.6398Y-4.1555
X3.685Y-4.6555
X3.687Y-4.5315
X3.6949Y-3.811
X3.7106Y-4.4134
X3.7126Y-3.6654
X3.7323Y-4.811
X3.7382Y-4.6024
X3.7461Y-3.4724
X3.7756Y-4.2933
X3.7815Y-3.8878
X3.7933Y-4.7146
X3.7953Y-4.9154
X3.813Y-4.061
X3.8366Y-4.0098
X3.8366Y-4.5453
X3.8406Y-3.6476
X3.8406Y-3.7913
X3.8425Y-3.4705
X3.8701Y-4.3504
X3.8898Y-4.2146
X3.9213Y-4.1673
X3.9547Y-4.128
X3.9705Y-3.376
X4.0571Y-4.3091
X4.063Y-4.2382
T2
X3.9685Y-4.4035
X3.9685Y-4.5035
X3.9685Y-4.6035
X3.9685Y-4.7035
X3.9685Y-4.8035
X4.0685Y-4.4035
X4.0685Y-4.5035
X4.0685Y-4.6035
X4.0685Y-4.7035
X4.0685Y-4.8035
T3
X3.5157Y-3.4921
X3.5157Y-3.5921
X3.5157Y-3.6921
X3.5157Y-3.7921
X3.5157Y-3.8921
X3.6157Y-3.4921
X3.6157Y-3.5921
X3.6157Y-3.6921
X3.6157Y-3.7921
X3.6157Y-3.8921
X3.5197Y-4.4114
X3.5197Y-4.5114
X3.5197Y-4.6114
X3.5197Y-4.7114
X3.5197Y-4.8114
X3.6197Y-4.4114
X3.6197Y-4.5114
X3.6197Y-4.6114
X3.6197Y-4.7114
X3.6197Y-4.8114
X3.9236Y-3.4937
X3.9236Y-3.5937
X3.9236Y-3.6937
X3.9236Y-3.7937
X3.9236Y-3.8937
X4.0236Y-3.4937
X4.0236Y-3.5937
X4.0236Y-3.6937
X4.0236Y-3.7937
X4.0236Y-3.8937
T0
M30
