G04 #@! TF.GenerationSoftware,KiCad,Pcbnew,5.0.2-bee76a0~70~ubuntu18.04.1*
G04 #@! TF.CreationDate,2019-05-30T11:23:20+09:00*
G04 #@! TF.ProjectId,MRR_ESPE,4d52525f-4553-4504-952e-6b696361645f,v0.1*
G04 #@! TF.SameCoordinates,Original*
G04 #@! TF.FileFunction,Legend,Bot*
G04 #@! TF.FilePolarity,Positive*
%FSLAX46Y46*%
G04 Gerber Fmt 4.6, Leading zero omitted, Abs format (unit mm)*
G04 Created by KiCad (PCBNEW 5.0.2-bee76a0~70~ubuntu18.04.1) date Thu 30 May 2019 11:23:20 AM JST*
%MOMM*%
%LPD*%
G01*
G04 APERTURE LIST*
%ADD10C,0.200000*%
%ADD11C,0.300000*%
%ADD12C,0.150000*%
G04 APERTURE END LIST*
D10*
X72661904Y-80450000D02*
X72757142Y-80402380D01*
X72900000Y-80402380D01*
X73042857Y-80450000D01*
X73138095Y-80545238D01*
X73185714Y-80640476D01*
X73233333Y-80830952D01*
X73233333Y-80973809D01*
X73185714Y-81164285D01*
X73138095Y-81259523D01*
X73042857Y-81354761D01*
X72900000Y-81402380D01*
X72804761Y-81402380D01*
X72661904Y-81354761D01*
X72614285Y-81307142D01*
X72614285Y-80973809D01*
X72804761Y-80973809D01*
X72185714Y-81402380D02*
X72185714Y-80402380D01*
X71614285Y-81402380D01*
X71614285Y-80402380D01*
X71138095Y-81402380D02*
X71138095Y-80402380D01*
X70900000Y-80402380D01*
X70757142Y-80450000D01*
X70661904Y-80545238D01*
X70614285Y-80640476D01*
X70566666Y-80830952D01*
X70566666Y-80973809D01*
X70614285Y-81164285D01*
X70661904Y-81259523D01*
X70757142Y-81354761D01*
X70900000Y-81402380D01*
X71138095Y-81402380D01*
X79910476Y-80272380D02*
X80386666Y-80272380D01*
X80434285Y-80748571D01*
X80386666Y-80700952D01*
X80291428Y-80653333D01*
X80053333Y-80653333D01*
X79958095Y-80700952D01*
X79910476Y-80748571D01*
X79862857Y-80843809D01*
X79862857Y-81081904D01*
X79910476Y-81177142D01*
X79958095Y-81224761D01*
X80053333Y-81272380D01*
X80291428Y-81272380D01*
X80386666Y-81224761D01*
X80434285Y-81177142D01*
X79577142Y-80272380D02*
X79243809Y-81272380D01*
X78910476Y-80272380D01*
X144150000Y-97200000D02*
X134300000Y-97150000D01*
X144050000Y-85750000D02*
X134200000Y-85750000D01*
X143900000Y-74900000D02*
X134350000Y-74950000D01*
X142052380Y-101859523D02*
X141052380Y-101859523D01*
X141528571Y-101859523D02*
X141528571Y-102430952D01*
X142052380Y-102430952D02*
X141052380Y-102430952D01*
X141052380Y-103097619D02*
X141052380Y-103288095D01*
X141100000Y-103383333D01*
X141195238Y-103478571D01*
X141385714Y-103526190D01*
X141719047Y-103526190D01*
X141909523Y-103478571D01*
X142004761Y-103383333D01*
X142052380Y-103288095D01*
X142052380Y-103097619D01*
X142004761Y-103002380D01*
X141909523Y-102907142D01*
X141719047Y-102859523D01*
X141385714Y-102859523D01*
X141195238Y-102907142D01*
X141100000Y-103002380D01*
X141052380Y-103097619D01*
X141052380Y-103811904D02*
X141052380Y-104383333D01*
X142052380Y-104097619D02*
X141052380Y-104097619D01*
X143228571Y-101811904D02*
X143228571Y-102145238D01*
X143752380Y-102288095D02*
X143752380Y-101811904D01*
X142752380Y-101811904D01*
X142752380Y-102288095D01*
X143752380Y-102716666D02*
X142752380Y-102716666D01*
X143752380Y-103288095D01*
X142752380Y-103288095D01*
X143752380Y-103764285D02*
X142752380Y-103764285D01*
X142752380Y-104002380D01*
X142800000Y-104145238D01*
X142895238Y-104240476D01*
X142990476Y-104288095D01*
X143180952Y-104335714D01*
X143323809Y-104335714D01*
X143514285Y-104288095D01*
X143609523Y-104240476D01*
X143704761Y-104145238D01*
X143752380Y-104002380D01*
X143752380Y-103764285D01*
X142052380Y-90202380D02*
X141052380Y-90202380D01*
X141528571Y-90202380D02*
X141528571Y-90773809D01*
X142052380Y-90773809D02*
X141052380Y-90773809D01*
X141528571Y-91250000D02*
X141528571Y-91583333D01*
X142052380Y-91726190D02*
X142052380Y-91250000D01*
X141052380Y-91250000D01*
X141052380Y-91726190D01*
X141766666Y-92107142D02*
X141766666Y-92583333D01*
X142052380Y-92011904D02*
X141052380Y-92345238D01*
X142052380Y-92678571D01*
X141052380Y-92869047D02*
X141052380Y-93440476D01*
X142052380Y-93154761D02*
X141052380Y-93154761D01*
X143228571Y-90869047D02*
X143276190Y-91011904D01*
X143323809Y-91059523D01*
X143419047Y-91107142D01*
X143561904Y-91107142D01*
X143657142Y-91059523D01*
X143704761Y-91011904D01*
X143752380Y-90916666D01*
X143752380Y-90535714D01*
X142752380Y-90535714D01*
X142752380Y-90869047D01*
X142800000Y-90964285D01*
X142847619Y-91011904D01*
X142942857Y-91059523D01*
X143038095Y-91059523D01*
X143133333Y-91011904D01*
X143180952Y-90964285D01*
X143228571Y-90869047D01*
X143228571Y-90535714D01*
X143228571Y-91535714D02*
X143228571Y-91869047D01*
X143752380Y-92011904D02*
X143752380Y-91535714D01*
X142752380Y-91535714D01*
X142752380Y-92011904D01*
X143752380Y-92440476D02*
X142752380Y-92440476D01*
X142752380Y-92678571D01*
X142800000Y-92821428D01*
X142895238Y-92916666D01*
X142990476Y-92964285D01*
X143180952Y-93011904D01*
X143323809Y-93011904D01*
X143514285Y-92964285D01*
X143609523Y-92916666D01*
X143704761Y-92821428D01*
X143752380Y-92678571D01*
X143752380Y-92440476D01*
X142602380Y-78964285D02*
X143602380Y-79297619D01*
X142602380Y-79630952D01*
X143078571Y-80297619D02*
X143126190Y-80440476D01*
X143173809Y-80488095D01*
X143269047Y-80535714D01*
X143411904Y-80535714D01*
X143507142Y-80488095D01*
X143554761Y-80440476D01*
X143602380Y-80345238D01*
X143602380Y-79964285D01*
X142602380Y-79964285D01*
X142602380Y-80297619D01*
X142650000Y-80392857D01*
X142697619Y-80440476D01*
X142792857Y-80488095D01*
X142888095Y-80488095D01*
X142983333Y-80440476D01*
X143030952Y-80392857D01*
X143078571Y-80297619D01*
X143078571Y-79964285D01*
X143078571Y-80964285D02*
X143078571Y-81297619D01*
X143602380Y-81440476D02*
X143602380Y-80964285D01*
X142602380Y-80964285D01*
X142602380Y-81440476D01*
X143602380Y-81869047D02*
X142602380Y-81869047D01*
X142602380Y-82107142D01*
X142650000Y-82250000D01*
X142745238Y-82345238D01*
X142840476Y-82392857D01*
X143030952Y-82440476D01*
X143173809Y-82440476D01*
X143364285Y-82392857D01*
X143459523Y-82345238D01*
X143554761Y-82250000D01*
X143602380Y-82107142D01*
X143602380Y-81869047D01*
X142602380Y-69454761D02*
X143602380Y-69788095D01*
X142602380Y-70121428D01*
X143602380Y-70454761D02*
X142602380Y-70454761D01*
X143602380Y-70930952D02*
X142602380Y-70930952D01*
X143602380Y-71502380D01*
X142602380Y-71502380D01*
X142317142Y-106136428D02*
X142317142Y-104993571D01*
X142242142Y-99686428D02*
X142242142Y-98543571D01*
X142813571Y-99115000D02*
X141670714Y-99115000D01*
X142057142Y-89006428D02*
X142057142Y-87863571D01*
X142628571Y-88435000D02*
X141485714Y-88435000D01*
X142132142Y-95456428D02*
X142132142Y-94313571D01*
D11*
X141398095Y-67722857D02*
X142921904Y-67722857D01*
X142160000Y-68484761D02*
X142160000Y-66960952D01*
X142052857Y-73541904D02*
X142052857Y-72018095D01*
X141438095Y-83612857D02*
X142961904Y-83612857D01*
X142200000Y-84374761D02*
X142200000Y-82850952D01*
X142082857Y-78331904D02*
X142082857Y-76808095D01*
D10*
X135437714Y-52746380D02*
X135104380Y-53746380D01*
X134771047Y-52746380D01*
X134056761Y-53698761D02*
X134152000Y-53746380D01*
X134342476Y-53746380D01*
X134437714Y-53698761D01*
X134485333Y-53603523D01*
X134485333Y-53222571D01*
X134437714Y-53127333D01*
X134342476Y-53079714D01*
X134152000Y-53079714D01*
X134056761Y-53127333D01*
X134009142Y-53222571D01*
X134009142Y-53317809D01*
X134485333Y-53413047D01*
X133580571Y-53746380D02*
X133580571Y-53079714D01*
X133580571Y-53270190D02*
X133532952Y-53174952D01*
X133485333Y-53127333D01*
X133390095Y-53079714D01*
X133294857Y-53079714D01*
X133009142Y-53698761D02*
X132913904Y-53746380D01*
X132723428Y-53746380D01*
X132628190Y-53698761D01*
X132580571Y-53603523D01*
X132580571Y-53555904D01*
X132628190Y-53460666D01*
X132723428Y-53413047D01*
X132866285Y-53413047D01*
X132961523Y-53365428D01*
X133009142Y-53270190D01*
X133009142Y-53222571D01*
X132961523Y-53127333D01*
X132866285Y-53079714D01*
X132723428Y-53079714D01*
X132628190Y-53127333D01*
X132151999Y-53746380D02*
X132151999Y-53079714D01*
X132151999Y-52746380D02*
X132199619Y-52794000D01*
X132151999Y-52841619D01*
X132104380Y-52794000D01*
X132151999Y-52746380D01*
X132151999Y-52841619D01*
X131532952Y-53746380D02*
X131628190Y-53698761D01*
X131675809Y-53651142D01*
X131723428Y-53555904D01*
X131723428Y-53270190D01*
X131675809Y-53174952D01*
X131628190Y-53127333D01*
X131532952Y-53079714D01*
X131390095Y-53079714D01*
X131294857Y-53127333D01*
X131247238Y-53174952D01*
X131199619Y-53270190D01*
X131199619Y-53555904D01*
X131247238Y-53651142D01*
X131294857Y-53698761D01*
X131390095Y-53746380D01*
X131532952Y-53746380D01*
X130771047Y-53079714D02*
X130771047Y-53746380D01*
X130771047Y-53174952D02*
X130723428Y-53127333D01*
X130628190Y-53079714D01*
X130485333Y-53079714D01*
X130390095Y-53127333D01*
X130342476Y-53222571D01*
X130342476Y-53746380D01*
X128675809Y-53746380D02*
X128675809Y-52746380D01*
X128675809Y-53698761D02*
X128771047Y-53746380D01*
X128961523Y-53746380D01*
X129056761Y-53698761D01*
X129104380Y-53651142D01*
X129151999Y-53555904D01*
X129151999Y-53270190D01*
X129104380Y-53174952D01*
X129056761Y-53127333D01*
X128961523Y-53079714D01*
X128771047Y-53079714D01*
X128675809Y-53127333D01*
X127771047Y-53746380D02*
X127771047Y-53222571D01*
X127818666Y-53127333D01*
X127913904Y-53079714D01*
X128104380Y-53079714D01*
X128199619Y-53127333D01*
X127771047Y-53698761D02*
X127866285Y-53746380D01*
X128104380Y-53746380D01*
X128199619Y-53698761D01*
X128247238Y-53603523D01*
X128247238Y-53508285D01*
X128199619Y-53413047D01*
X128104380Y-53365428D01*
X127866285Y-53365428D01*
X127771047Y-53317809D01*
X127437714Y-53079714D02*
X127056761Y-53079714D01*
X127294857Y-52746380D02*
X127294857Y-53603523D01*
X127247238Y-53698761D01*
X127151999Y-53746380D01*
X127056761Y-53746380D01*
X126342476Y-53698761D02*
X126437714Y-53746380D01*
X126628190Y-53746380D01*
X126723428Y-53698761D01*
X126771047Y-53603523D01*
X126771047Y-53222571D01*
X126723428Y-53127333D01*
X126628190Y-53079714D01*
X126437714Y-53079714D01*
X126342476Y-53127333D01*
X126294857Y-53222571D01*
X126294857Y-53317809D01*
X126771047Y-53413047D01*
X125866285Y-53651142D02*
X125818666Y-53698761D01*
X125866285Y-53746380D01*
X125913904Y-53698761D01*
X125866285Y-53651142D01*
X125866285Y-53746380D01*
X125866285Y-53127333D02*
X125818666Y-53174952D01*
X125866285Y-53222571D01*
X125913904Y-53174952D01*
X125866285Y-53127333D01*
X125866285Y-53222571D01*
X124675809Y-52841619D02*
X124628190Y-52794000D01*
X124532952Y-52746380D01*
X124294857Y-52746380D01*
X124199619Y-52794000D01*
X124151999Y-52841619D01*
X124104380Y-52936857D01*
X124104380Y-53032095D01*
X124151999Y-53174952D01*
X124723428Y-53746380D01*
X124104380Y-53746380D01*
X123485333Y-52746380D02*
X123390095Y-52746380D01*
X123294857Y-52794000D01*
X123247238Y-52841619D01*
X123199619Y-52936857D01*
X123151999Y-53127333D01*
X123151999Y-53365428D01*
X123199619Y-53555904D01*
X123247238Y-53651142D01*
X123294857Y-53698761D01*
X123390095Y-53746380D01*
X123485333Y-53746380D01*
X123580571Y-53698761D01*
X123628190Y-53651142D01*
X123675809Y-53555904D01*
X123723428Y-53365428D01*
X123723428Y-53127333D01*
X123675809Y-52936857D01*
X123628190Y-52841619D01*
X123580571Y-52794000D01*
X123485333Y-52746380D01*
X122199619Y-53746380D02*
X122771047Y-53746380D01*
X122485333Y-53746380D02*
X122485333Y-52746380D01*
X122580571Y-52889238D01*
X122675809Y-52984476D01*
X122771047Y-53032095D01*
X121723428Y-53746380D02*
X121532952Y-53746380D01*
X121437714Y-53698761D01*
X121390095Y-53651142D01*
X121294857Y-53508285D01*
X121247238Y-53317809D01*
X121247238Y-52936857D01*
X121294857Y-52841619D01*
X121342476Y-52794000D01*
X121437714Y-52746380D01*
X121628190Y-52746380D01*
X121723428Y-52794000D01*
X121771047Y-52841619D01*
X121818666Y-52936857D01*
X121818666Y-53174952D01*
X121771047Y-53270190D01*
X121723428Y-53317809D01*
X121628190Y-53365428D01*
X121437714Y-53365428D01*
X121342476Y-53317809D01*
X121294857Y-53270190D01*
X121247238Y-53174952D01*
X120818666Y-53365428D02*
X120056761Y-53365428D01*
X119390095Y-52746380D02*
X119294857Y-52746380D01*
X119199619Y-52794000D01*
X119151999Y-52841619D01*
X119104380Y-52936857D01*
X119056761Y-53127333D01*
X119056761Y-53365428D01*
X119104380Y-53555904D01*
X119151999Y-53651142D01*
X119199619Y-53698761D01*
X119294857Y-53746380D01*
X119390095Y-53746380D01*
X119485333Y-53698761D01*
X119532952Y-53651142D01*
X119580571Y-53555904D01*
X119628190Y-53365428D01*
X119628190Y-53127333D01*
X119580571Y-52936857D01*
X119532952Y-52841619D01*
X119485333Y-52794000D01*
X119390095Y-52746380D01*
X118151999Y-52746380D02*
X118628190Y-52746380D01*
X118675809Y-53222571D01*
X118628190Y-53174952D01*
X118532952Y-53127333D01*
X118294857Y-53127333D01*
X118199619Y-53174952D01*
X118151999Y-53222571D01*
X118104380Y-53317809D01*
X118104380Y-53555904D01*
X118151999Y-53651142D01*
X118199619Y-53698761D01*
X118294857Y-53746380D01*
X118532952Y-53746380D01*
X118628190Y-53698761D01*
X118675809Y-53651142D01*
X117675809Y-53365428D02*
X116913904Y-53365428D01*
X116485333Y-52841619D02*
X116437714Y-52794000D01*
X116342476Y-52746380D01*
X116104380Y-52746380D01*
X116009142Y-52794000D01*
X115961523Y-52841619D01*
X115913904Y-52936857D01*
X115913904Y-53032095D01*
X115961523Y-53174952D01*
X116532952Y-53746380D01*
X115913904Y-53746380D01*
X115342476Y-53174952D02*
X115437714Y-53127333D01*
X115485333Y-53079714D01*
X115532952Y-52984476D01*
X115532952Y-52936857D01*
X115485333Y-52841619D01*
X115437714Y-52794000D01*
X115342476Y-52746380D01*
X115151999Y-52746380D01*
X115056761Y-52794000D01*
X115009142Y-52841619D01*
X114961523Y-52936857D01*
X114961523Y-52984476D01*
X115009142Y-53079714D01*
X115056761Y-53127333D01*
X115151999Y-53174952D01*
X115342476Y-53174952D01*
X115437714Y-53222571D01*
X115485333Y-53270190D01*
X115532952Y-53365428D01*
X115532952Y-53555904D01*
X115485333Y-53651142D01*
X115437714Y-53698761D01*
X115342476Y-53746380D01*
X115151999Y-53746380D01*
X115056761Y-53698761D01*
X115009142Y-53651142D01*
X114961523Y-53555904D01*
X114961523Y-53365428D01*
X115009142Y-53270190D01*
X115056761Y-53222571D01*
X115151999Y-53174952D01*
X141432476Y-46706380D02*
X141432476Y-45706380D01*
X141194380Y-45706380D01*
X141051523Y-45754000D01*
X140956285Y-45849238D01*
X140908666Y-45944476D01*
X140861047Y-46134952D01*
X140861047Y-46277809D01*
X140908666Y-46468285D01*
X140956285Y-46563523D01*
X141051523Y-46658761D01*
X141194380Y-46706380D01*
X141432476Y-46706380D01*
X140051523Y-46658761D02*
X140146761Y-46706380D01*
X140337238Y-46706380D01*
X140432476Y-46658761D01*
X140480095Y-46563523D01*
X140480095Y-46182571D01*
X140432476Y-46087333D01*
X140337238Y-46039714D01*
X140146761Y-46039714D01*
X140051523Y-46087333D01*
X140003904Y-46182571D01*
X140003904Y-46277809D01*
X140480095Y-46373047D01*
X139670571Y-46039714D02*
X139432476Y-46706380D01*
X139194380Y-46039714D01*
X138432476Y-46658761D02*
X138527714Y-46706380D01*
X138718190Y-46706380D01*
X138813428Y-46658761D01*
X138861047Y-46563523D01*
X138861047Y-46182571D01*
X138813428Y-46087333D01*
X138718190Y-46039714D01*
X138527714Y-46039714D01*
X138432476Y-46087333D01*
X138384857Y-46182571D01*
X138384857Y-46277809D01*
X138861047Y-46373047D01*
X137813428Y-46706380D02*
X137908666Y-46658761D01*
X137956285Y-46563523D01*
X137956285Y-45706380D01*
X137289619Y-46706380D02*
X137384857Y-46658761D01*
X137432476Y-46611142D01*
X137480095Y-46515904D01*
X137480095Y-46230190D01*
X137432476Y-46134952D01*
X137384857Y-46087333D01*
X137289619Y-46039714D01*
X137146761Y-46039714D01*
X137051523Y-46087333D01*
X137003904Y-46134952D01*
X136956285Y-46230190D01*
X136956285Y-46515904D01*
X137003904Y-46611142D01*
X137051523Y-46658761D01*
X137146761Y-46706380D01*
X137289619Y-46706380D01*
X136527714Y-46039714D02*
X136527714Y-47039714D01*
X136527714Y-46087333D02*
X136432476Y-46039714D01*
X136242000Y-46039714D01*
X136146761Y-46087333D01*
X136099142Y-46134952D01*
X136051523Y-46230190D01*
X136051523Y-46515904D01*
X136099142Y-46611142D01*
X136146761Y-46658761D01*
X136242000Y-46706380D01*
X136432476Y-46706380D01*
X136527714Y-46658761D01*
X135242000Y-46658761D02*
X135337238Y-46706380D01*
X135527714Y-46706380D01*
X135622952Y-46658761D01*
X135670571Y-46563523D01*
X135670571Y-46182571D01*
X135622952Y-46087333D01*
X135527714Y-46039714D01*
X135337238Y-46039714D01*
X135242000Y-46087333D01*
X135194380Y-46182571D01*
X135194380Y-46277809D01*
X135670571Y-46373047D01*
X134337238Y-46706380D02*
X134337238Y-45706380D01*
X134337238Y-46658761D02*
X134432476Y-46706380D01*
X134622952Y-46706380D01*
X134718190Y-46658761D01*
X134765809Y-46611142D01*
X134813428Y-46515904D01*
X134813428Y-46230190D01*
X134765809Y-46134952D01*
X134718190Y-46087333D01*
X134622952Y-46039714D01*
X134432476Y-46039714D01*
X134337238Y-46087333D01*
X133099142Y-46706380D02*
X133099142Y-45706380D01*
X133099142Y-46087333D02*
X133003904Y-46039714D01*
X132813428Y-46039714D01*
X132718190Y-46087333D01*
X132670571Y-46134952D01*
X132622952Y-46230190D01*
X132622952Y-46515904D01*
X132670571Y-46611142D01*
X132718190Y-46658761D01*
X132813428Y-46706380D01*
X133003904Y-46706380D01*
X133099142Y-46658761D01*
X132289619Y-46039714D02*
X132051523Y-46706380D01*
X131813428Y-46039714D02*
X132051523Y-46706380D01*
X132146761Y-46944476D01*
X132194380Y-46992095D01*
X132289619Y-47039714D01*
X130670571Y-46706380D02*
X130670571Y-45706380D01*
X130337238Y-46420666D01*
X130003904Y-45706380D01*
X130003904Y-46706380D01*
X129099142Y-46706380D02*
X129099142Y-46182571D01*
X129146761Y-46087333D01*
X129242000Y-46039714D01*
X129432476Y-46039714D01*
X129527714Y-46087333D01*
X129099142Y-46658761D02*
X129194380Y-46706380D01*
X129432476Y-46706380D01*
X129527714Y-46658761D01*
X129575333Y-46563523D01*
X129575333Y-46468285D01*
X129527714Y-46373047D01*
X129432476Y-46325428D01*
X129194380Y-46325428D01*
X129099142Y-46277809D01*
X128622952Y-46039714D02*
X128622952Y-47039714D01*
X128622952Y-46087333D02*
X128527714Y-46039714D01*
X128337238Y-46039714D01*
X128242000Y-46087333D01*
X128194380Y-46134952D01*
X128146761Y-46230190D01*
X128146761Y-46515904D01*
X128194380Y-46611142D01*
X128242000Y-46658761D01*
X128337238Y-46706380D01*
X128527714Y-46706380D01*
X128622952Y-46658761D01*
X127575333Y-46706380D02*
X127670571Y-46658761D01*
X127718190Y-46563523D01*
X127718190Y-45706380D01*
X126813428Y-46658761D02*
X126908666Y-46706380D01*
X127099142Y-46706380D01*
X127194380Y-46658761D01*
X127242000Y-46563523D01*
X127242000Y-46182571D01*
X127194380Y-46087333D01*
X127099142Y-46039714D01*
X126908666Y-46039714D01*
X126813428Y-46087333D01*
X126765809Y-46182571D01*
X126765809Y-46277809D01*
X127242000Y-46373047D01*
X125003904Y-46706380D02*
X125337238Y-46230190D01*
X125575333Y-46706380D02*
X125575333Y-45706380D01*
X125194380Y-45706380D01*
X125099142Y-45754000D01*
X125051523Y-45801619D01*
X125003904Y-45896857D01*
X125003904Y-46039714D01*
X125051523Y-46134952D01*
X125099142Y-46182571D01*
X125194380Y-46230190D01*
X125575333Y-46230190D01*
X124146761Y-46706380D02*
X124146761Y-46182571D01*
X124194380Y-46087333D01*
X124289619Y-46039714D01*
X124480095Y-46039714D01*
X124575333Y-46087333D01*
X124146761Y-46658761D02*
X124242000Y-46706380D01*
X124480095Y-46706380D01*
X124575333Y-46658761D01*
X124622952Y-46563523D01*
X124622952Y-46468285D01*
X124575333Y-46373047D01*
X124480095Y-46325428D01*
X124242000Y-46325428D01*
X124146761Y-46277809D01*
X123670571Y-46706380D02*
X123670571Y-46039714D01*
X123670571Y-45706380D02*
X123718190Y-45754000D01*
X123670571Y-45801619D01*
X123622952Y-45754000D01*
X123670571Y-45706380D01*
X123670571Y-45801619D01*
X123194380Y-46039714D02*
X123194380Y-46706380D01*
X123194380Y-46134952D02*
X123146761Y-46087333D01*
X123051523Y-46039714D01*
X122908666Y-46039714D01*
X122813428Y-46087333D01*
X122765809Y-46182571D01*
X122765809Y-46706380D01*
X120956285Y-46706380D02*
X121289619Y-46230190D01*
X121527714Y-46706380D02*
X121527714Y-45706380D01*
X121146761Y-45706380D01*
X121051523Y-45754000D01*
X121003904Y-45801619D01*
X120956285Y-45896857D01*
X120956285Y-46039714D01*
X121003904Y-46134952D01*
X121051523Y-46182571D01*
X121146761Y-46230190D01*
X121527714Y-46230190D01*
X120146761Y-46658761D02*
X120242000Y-46706380D01*
X120432476Y-46706380D01*
X120527714Y-46658761D01*
X120575333Y-46563523D01*
X120575333Y-46182571D01*
X120527714Y-46087333D01*
X120432476Y-46039714D01*
X120242000Y-46039714D01*
X120146761Y-46087333D01*
X120099142Y-46182571D01*
X120099142Y-46277809D01*
X120575333Y-46373047D01*
X119718190Y-46658761D02*
X119622952Y-46706380D01*
X119432476Y-46706380D01*
X119337238Y-46658761D01*
X119289619Y-46563523D01*
X119289619Y-46515904D01*
X119337238Y-46420666D01*
X119432476Y-46373047D01*
X119575333Y-46373047D01*
X119670571Y-46325428D01*
X119718190Y-46230190D01*
X119718190Y-46182571D01*
X119670571Y-46087333D01*
X119575333Y-46039714D01*
X119432476Y-46039714D01*
X119337238Y-46087333D01*
X118480095Y-46658761D02*
X118575333Y-46706380D01*
X118765809Y-46706380D01*
X118861047Y-46658761D01*
X118908666Y-46563523D01*
X118908666Y-46182571D01*
X118861047Y-46087333D01*
X118765809Y-46039714D01*
X118575333Y-46039714D01*
X118480095Y-46087333D01*
X118432476Y-46182571D01*
X118432476Y-46277809D01*
X118908666Y-46373047D01*
X117575333Y-46706380D02*
X117575333Y-46182571D01*
X117622952Y-46087333D01*
X117718190Y-46039714D01*
X117908666Y-46039714D01*
X118003904Y-46087333D01*
X117575333Y-46658761D02*
X117670571Y-46706380D01*
X117908666Y-46706380D01*
X118003904Y-46658761D01*
X118051523Y-46563523D01*
X118051523Y-46468285D01*
X118003904Y-46373047D01*
X117908666Y-46325428D01*
X117670571Y-46325428D01*
X117575333Y-46277809D01*
X117099142Y-46706380D02*
X117099142Y-46039714D01*
X117099142Y-46230190D02*
X117051523Y-46134952D01*
X117003904Y-46087333D01*
X116908666Y-46039714D01*
X116813428Y-46039714D01*
X116051523Y-46658761D02*
X116146761Y-46706380D01*
X116337238Y-46706380D01*
X116432476Y-46658761D01*
X116480095Y-46611142D01*
X116527714Y-46515904D01*
X116527714Y-46230190D01*
X116480095Y-46134952D01*
X116432476Y-46087333D01*
X116337238Y-46039714D01*
X116146761Y-46039714D01*
X116051523Y-46087333D01*
X115622952Y-46706380D02*
X115622952Y-45706380D01*
X115194380Y-46706380D02*
X115194380Y-46182571D01*
X115242000Y-46087333D01*
X115337238Y-46039714D01*
X115480095Y-46039714D01*
X115575333Y-46087333D01*
X115622952Y-46134952D01*
X113384857Y-46611142D02*
X113432476Y-46658761D01*
X113575333Y-46706380D01*
X113670571Y-46706380D01*
X113813428Y-46658761D01*
X113908666Y-46563523D01*
X113956285Y-46468285D01*
X114003904Y-46277809D01*
X114003904Y-46134952D01*
X113956285Y-45944476D01*
X113908666Y-45849238D01*
X113813428Y-45754000D01*
X113670571Y-45706380D01*
X113575333Y-45706380D01*
X113432476Y-45754000D01*
X113384857Y-45801619D01*
X112813428Y-46706380D02*
X112908666Y-46658761D01*
X112956285Y-46611142D01*
X113003904Y-46515904D01*
X113003904Y-46230190D01*
X112956285Y-46134952D01*
X112908666Y-46087333D01*
X112813428Y-46039714D01*
X112670571Y-46039714D01*
X112575333Y-46087333D01*
X112527714Y-46134952D01*
X112480095Y-46230190D01*
X112480095Y-46515904D01*
X112527714Y-46611142D01*
X112575333Y-46658761D01*
X112670571Y-46706380D01*
X112813428Y-46706380D01*
X112051523Y-46611142D02*
X112003904Y-46658761D01*
X112051523Y-46706380D01*
X112099142Y-46658761D01*
X112051523Y-46611142D01*
X112051523Y-46706380D01*
X111527714Y-46658761D02*
X111527714Y-46706380D01*
X111575333Y-46801619D01*
X111622952Y-46849238D01*
X109861047Y-46706380D02*
X110337238Y-46706380D01*
X110337238Y-45706380D01*
X109670571Y-46039714D02*
X109289619Y-46039714D01*
X109527714Y-45706380D02*
X109527714Y-46563523D01*
X109480095Y-46658761D01*
X109384857Y-46706380D01*
X109289619Y-46706380D01*
X108527714Y-46706380D02*
X108527714Y-45706380D01*
X108527714Y-46658761D02*
X108622952Y-46706380D01*
X108813428Y-46706380D01*
X108908666Y-46658761D01*
X108956285Y-46611142D01*
X109003904Y-46515904D01*
X109003904Y-46230190D01*
X108956285Y-46134952D01*
X108908666Y-46087333D01*
X108813428Y-46039714D01*
X108622952Y-46039714D01*
X108527714Y-46087333D01*
X108051523Y-46611142D02*
X108003904Y-46658761D01*
X108051523Y-46706380D01*
X108099142Y-46658761D01*
X108051523Y-46611142D01*
X108051523Y-46706380D01*
X140932952Y-48886380D02*
X141409142Y-48886380D01*
X141409142Y-47886380D01*
X140599619Y-48886380D02*
X140599619Y-48219714D01*
X140599619Y-47886380D02*
X140647238Y-47934000D01*
X140599619Y-47981619D01*
X140552000Y-47934000D01*
X140599619Y-47886380D01*
X140599619Y-47981619D01*
X139694857Y-48838761D02*
X139790095Y-48886380D01*
X139980571Y-48886380D01*
X140075809Y-48838761D01*
X140123428Y-48791142D01*
X140171047Y-48695904D01*
X140171047Y-48410190D01*
X140123428Y-48314952D01*
X140075809Y-48267333D01*
X139980571Y-48219714D01*
X139790095Y-48219714D01*
X139694857Y-48267333D01*
X138885333Y-48838761D02*
X138980571Y-48886380D01*
X139171047Y-48886380D01*
X139266285Y-48838761D01*
X139313904Y-48743523D01*
X139313904Y-48362571D01*
X139266285Y-48267333D01*
X139171047Y-48219714D01*
X138980571Y-48219714D01*
X138885333Y-48267333D01*
X138837714Y-48362571D01*
X138837714Y-48457809D01*
X139313904Y-48553047D01*
X138409142Y-48219714D02*
X138409142Y-48886380D01*
X138409142Y-48314952D02*
X138361523Y-48267333D01*
X138266285Y-48219714D01*
X138123428Y-48219714D01*
X138028190Y-48267333D01*
X137980571Y-48362571D01*
X137980571Y-48886380D01*
X137552000Y-48838761D02*
X137456761Y-48886380D01*
X137266285Y-48886380D01*
X137171047Y-48838761D01*
X137123428Y-48743523D01*
X137123428Y-48695904D01*
X137171047Y-48600666D01*
X137266285Y-48553047D01*
X137409142Y-48553047D01*
X137504380Y-48505428D01*
X137552000Y-48410190D01*
X137552000Y-48362571D01*
X137504380Y-48267333D01*
X137409142Y-48219714D01*
X137266285Y-48219714D01*
X137171047Y-48267333D01*
X136313904Y-48838761D02*
X136409142Y-48886380D01*
X136599619Y-48886380D01*
X136694857Y-48838761D01*
X136742476Y-48743523D01*
X136742476Y-48362571D01*
X136694857Y-48267333D01*
X136599619Y-48219714D01*
X136409142Y-48219714D01*
X136313904Y-48267333D01*
X136266285Y-48362571D01*
X136266285Y-48457809D01*
X136742476Y-48553047D01*
X135409142Y-48886380D02*
X135409142Y-47886380D01*
X135409142Y-48838761D02*
X135504380Y-48886380D01*
X135694857Y-48886380D01*
X135790095Y-48838761D01*
X135837714Y-48791142D01*
X135885333Y-48695904D01*
X135885333Y-48410190D01*
X135837714Y-48314952D01*
X135790095Y-48267333D01*
X135694857Y-48219714D01*
X135504380Y-48219714D01*
X135409142Y-48267333D01*
X133742476Y-48219714D02*
X133742476Y-48886380D01*
X134171047Y-48219714D02*
X134171047Y-48743523D01*
X134123428Y-48838761D01*
X134028190Y-48886380D01*
X133885333Y-48886380D01*
X133790095Y-48838761D01*
X133742476Y-48791142D01*
X133266285Y-48219714D02*
X133266285Y-48886380D01*
X133266285Y-48314952D02*
X133218666Y-48267333D01*
X133123428Y-48219714D01*
X132980571Y-48219714D01*
X132885333Y-48267333D01*
X132837714Y-48362571D01*
X132837714Y-48886380D01*
X131932952Y-48886380D02*
X131932952Y-47886380D01*
X131932952Y-48838761D02*
X132028190Y-48886380D01*
X132218666Y-48886380D01*
X132313904Y-48838761D01*
X132361523Y-48791142D01*
X132409142Y-48695904D01*
X132409142Y-48410190D01*
X132361523Y-48314952D01*
X132313904Y-48267333D01*
X132218666Y-48219714D01*
X132028190Y-48219714D01*
X131932952Y-48267333D01*
X131075809Y-48838761D02*
X131171047Y-48886380D01*
X131361523Y-48886380D01*
X131456761Y-48838761D01*
X131504380Y-48743523D01*
X131504380Y-48362571D01*
X131456761Y-48267333D01*
X131361523Y-48219714D01*
X131171047Y-48219714D01*
X131075809Y-48267333D01*
X131028190Y-48362571D01*
X131028190Y-48457809D01*
X131504380Y-48553047D01*
X130599619Y-48886380D02*
X130599619Y-48219714D01*
X130599619Y-48410190D02*
X130552000Y-48314952D01*
X130504380Y-48267333D01*
X130409142Y-48219714D01*
X130313904Y-48219714D01*
X128647238Y-48791142D02*
X128694857Y-48838761D01*
X128837714Y-48886380D01*
X128932952Y-48886380D01*
X129075809Y-48838761D01*
X129171047Y-48743523D01*
X129218666Y-48648285D01*
X129266285Y-48457809D01*
X129266285Y-48314952D01*
X129218666Y-48124476D01*
X129171047Y-48029238D01*
X129075809Y-47934000D01*
X128932952Y-47886380D01*
X128837714Y-47886380D01*
X128694857Y-47934000D01*
X128647238Y-47981619D01*
X128218666Y-48362571D02*
X127885333Y-48362571D01*
X127742476Y-48886380D02*
X128218666Y-48886380D01*
X128218666Y-47886380D01*
X127742476Y-47886380D01*
X126742476Y-48886380D02*
X127075809Y-48410190D01*
X127313904Y-48886380D02*
X127313904Y-47886380D01*
X126932952Y-47886380D01*
X126837714Y-47934000D01*
X126790095Y-47981619D01*
X126742476Y-48076857D01*
X126742476Y-48219714D01*
X126790095Y-48314952D01*
X126837714Y-48362571D01*
X126932952Y-48410190D01*
X127313904Y-48410190D01*
X126313904Y-48886380D02*
X126313904Y-47886380D01*
X125742476Y-48886380D01*
X125742476Y-47886380D01*
X124313904Y-47886380D02*
X124123428Y-47886380D01*
X124028190Y-47934000D01*
X123932952Y-48029238D01*
X123885333Y-48219714D01*
X123885333Y-48553047D01*
X123932952Y-48743523D01*
X124028190Y-48838761D01*
X124123428Y-48886380D01*
X124313904Y-48886380D01*
X124409142Y-48838761D01*
X124504380Y-48743523D01*
X124552000Y-48553047D01*
X124552000Y-48219714D01*
X124504380Y-48029238D01*
X124409142Y-47934000D01*
X124313904Y-47886380D01*
X123456761Y-48886380D02*
X123456761Y-47886380D01*
X123456761Y-48362571D02*
X122885333Y-48362571D01*
X122885333Y-48886380D02*
X122885333Y-47886380D01*
X121932952Y-48886380D02*
X122409142Y-48886380D01*
X122409142Y-47886380D01*
X120932952Y-48219714D02*
X120694857Y-48886380D01*
X120456761Y-48219714D01*
X120075809Y-48791142D02*
X120028190Y-48838761D01*
X120075809Y-48886380D01*
X120123428Y-48838761D01*
X120075809Y-48791142D01*
X120075809Y-48886380D01*
X119075809Y-48886380D02*
X119647238Y-48886380D01*
X119361523Y-48886380D02*
X119361523Y-47886380D01*
X119456761Y-48029238D01*
X119552000Y-48124476D01*
X119647238Y-48172095D01*
X118647238Y-48791142D02*
X118599619Y-48838761D01*
X118647238Y-48886380D01*
X118694857Y-48838761D01*
X118647238Y-48791142D01*
X118647238Y-48886380D01*
X118218666Y-47981619D02*
X118171047Y-47934000D01*
X118075809Y-47886380D01*
X117837714Y-47886380D01*
X117742476Y-47934000D01*
X117694857Y-47981619D01*
X117647238Y-48076857D01*
X117647238Y-48172095D01*
X117694857Y-48314952D01*
X118266285Y-48886380D01*
X117647238Y-48886380D01*
X90775666Y-80495380D02*
X91109000Y-80019190D01*
X91347095Y-80495380D02*
X91347095Y-79495380D01*
X90966142Y-79495380D01*
X90870904Y-79543000D01*
X90823285Y-79590619D01*
X90775666Y-79685857D01*
X90775666Y-79828714D01*
X90823285Y-79923952D01*
X90870904Y-79971571D01*
X90966142Y-80019190D01*
X91347095Y-80019190D01*
X90442333Y-79495380D02*
X89775666Y-80495380D01*
X89775666Y-79495380D02*
X90442333Y-80495380D01*
X91495904Y-76995380D02*
X90924476Y-76995380D01*
X91210190Y-77995380D02*
X91210190Y-76995380D01*
X90686380Y-76995380D02*
X90019714Y-77995380D01*
X90019714Y-76995380D02*
X90686380Y-77995380D01*
X84244714Y-80595380D02*
X84244714Y-79595380D01*
X83673285Y-80595380D01*
X83673285Y-79595380D01*
X82625666Y-80500142D02*
X82673285Y-80547761D01*
X82816142Y-80595380D01*
X82911380Y-80595380D01*
X83054238Y-80547761D01*
X83149476Y-80452523D01*
X83197095Y-80357285D01*
X83244714Y-80166809D01*
X83244714Y-80023952D01*
X83197095Y-79833476D01*
X83149476Y-79738238D01*
X83054238Y-79643000D01*
X82911380Y-79595380D01*
X82816142Y-79595380D01*
X82673285Y-79643000D01*
X82625666Y-79690619D01*
X84244714Y-77945380D02*
X84244714Y-76945380D01*
X83673285Y-77945380D01*
X83673285Y-76945380D01*
X82625666Y-77850142D02*
X82673285Y-77897761D01*
X82816142Y-77945380D01*
X82911380Y-77945380D01*
X83054238Y-77897761D01*
X83149476Y-77802523D01*
X83197095Y-77707285D01*
X83244714Y-77516809D01*
X83244714Y-77373952D01*
X83197095Y-77183476D01*
X83149476Y-77088238D01*
X83054238Y-76993000D01*
X82911380Y-76945380D01*
X82816142Y-76945380D01*
X82673285Y-76993000D01*
X82625666Y-77040619D01*
X83770904Y-74418000D02*
X83866142Y-74370380D01*
X84009000Y-74370380D01*
X84151857Y-74418000D01*
X84247095Y-74513238D01*
X84294714Y-74608476D01*
X84342333Y-74798952D01*
X84342333Y-74941809D01*
X84294714Y-75132285D01*
X84247095Y-75227523D01*
X84151857Y-75322761D01*
X84009000Y-75370380D01*
X83913761Y-75370380D01*
X83770904Y-75322761D01*
X83723285Y-75275142D01*
X83723285Y-74941809D01*
X83913761Y-74941809D01*
X83294714Y-75370380D02*
X83294714Y-74370380D01*
X82723285Y-75370380D01*
X82723285Y-74370380D01*
X82247095Y-75370380D02*
X82247095Y-74370380D01*
X82009000Y-74370380D01*
X81866142Y-74418000D01*
X81770904Y-74513238D01*
X81723285Y-74608476D01*
X81675666Y-74798952D01*
X81675666Y-74941809D01*
X81723285Y-75132285D01*
X81770904Y-75227523D01*
X81866142Y-75322761D01*
X82009000Y-75370380D01*
X82247095Y-75370380D01*
X91895904Y-74568000D02*
X91991142Y-74520380D01*
X92134000Y-74520380D01*
X92276857Y-74568000D01*
X92372095Y-74663238D01*
X92419714Y-74758476D01*
X92467333Y-74948952D01*
X92467333Y-75091809D01*
X92419714Y-75282285D01*
X92372095Y-75377523D01*
X92276857Y-75472761D01*
X92134000Y-75520380D01*
X92038761Y-75520380D01*
X91895904Y-75472761D01*
X91848285Y-75425142D01*
X91848285Y-75091809D01*
X92038761Y-75091809D01*
X91419714Y-75520380D02*
X91419714Y-74520380D01*
X90848285Y-75520380D01*
X90848285Y-74520380D01*
X90372095Y-75520380D02*
X90372095Y-74520380D01*
X90134000Y-74520380D01*
X89991142Y-74568000D01*
X89895904Y-74663238D01*
X89848285Y-74758476D01*
X89800666Y-74948952D01*
X89800666Y-75091809D01*
X89848285Y-75282285D01*
X89895904Y-75377523D01*
X89991142Y-75472761D01*
X90134000Y-75520380D01*
X90372095Y-75520380D01*
X90774476Y-71920380D02*
X91250666Y-71920380D01*
X91298285Y-72396571D01*
X91250666Y-72348952D01*
X91155428Y-72301333D01*
X90917333Y-72301333D01*
X90822095Y-72348952D01*
X90774476Y-72396571D01*
X90726857Y-72491809D01*
X90726857Y-72729904D01*
X90774476Y-72825142D01*
X90822095Y-72872761D01*
X90917333Y-72920380D01*
X91155428Y-72920380D01*
X91250666Y-72872761D01*
X91298285Y-72825142D01*
X90441142Y-71920380D02*
X90107809Y-72920380D01*
X89774476Y-71920380D01*
X83549476Y-71845380D02*
X84025666Y-71845380D01*
X84073285Y-72321571D01*
X84025666Y-72273952D01*
X83930428Y-72226333D01*
X83692333Y-72226333D01*
X83597095Y-72273952D01*
X83549476Y-72321571D01*
X83501857Y-72416809D01*
X83501857Y-72654904D01*
X83549476Y-72750142D01*
X83597095Y-72797761D01*
X83692333Y-72845380D01*
X83930428Y-72845380D01*
X84025666Y-72797761D01*
X84073285Y-72750142D01*
X83216142Y-71845380D02*
X82882809Y-72845380D01*
X82549476Y-71845380D01*
D12*
G04 #@! TO.C,J4*
X100975000Y-51175000D02*
X103975000Y-51175000D01*
X100525000Y-50275000D02*
X100525000Y-50575000D01*
X100225000Y-50275000D02*
X100525000Y-50275000D01*
X100225000Y-50575000D02*
X100225000Y-50275000D01*
X100525000Y-50575000D02*
X100225000Y-50575000D01*
X105525000Y-50175000D02*
X105525000Y-42975000D01*
X105525000Y-37175000D02*
X105525000Y-40175000D01*
X102825000Y-37175000D02*
X105525000Y-37175000D01*
X90825000Y-40175000D02*
X90825000Y-37875000D01*
X90825000Y-42975000D02*
X90825000Y-50175000D01*
X100975000Y-51175000D02*
X100975000Y-52475000D01*
X101775000Y-37475000D02*
X102825000Y-37175000D01*
X100675000Y-37675000D02*
X101775000Y-37475000D01*
X99525000Y-37825000D02*
X100675000Y-37675000D01*
X98175000Y-37875000D02*
X99525000Y-37825000D01*
X90825000Y-37875000D02*
X98175000Y-37875000D01*
G04 #@! TD*
M02*
