G04 #@! TF.GenerationSoftware,KiCad,Pcbnew,5.0.2-bee76a0~70~ubuntu18.04.1*
G04 #@! TF.CreationDate,2019-07-02T21:44:17+09:00*
G04 #@! TF.ProjectId,MRR_ESPE,4d52525f-4553-4504-952e-6b696361645f,v0.3*
G04 #@! TF.SameCoordinates,Original*
G04 #@! TF.FileFunction,Paste,Bot*
G04 #@! TF.FilePolarity,Positive*
%FSLAX46Y46*%
G04 Gerber Fmt 4.6, Leading zero omitted, Abs format (unit mm)*
G04 Created by KiCad (PCBNEW 5.0.2-bee76a0~70~ubuntu18.04.1) date Tue 02 Jul 2019 09:44:17 PM JST*
%MOMM*%
%LPD*%
G01*
G04 APERTURE LIST*
%ADD10C,0.254000*%
G04 APERTURE END LIST*
D10*
G36*
X122970166Y-111334921D02*
X116389743Y-111432990D01*
X111633000Y-111380397D01*
X111633000Y-104267000D01*
X122811814Y-104267000D01*
X122970166Y-111334921D01*
X122970166Y-111334921D01*
G37*
X122970166Y-111334921D02*
X116389743Y-111432990D01*
X111633000Y-111380397D01*
X111633000Y-104267000D01*
X122811814Y-104267000D01*
X122970166Y-111334921D01*
G36*
X57785000Y-61849000D02*
X49403000Y-61849000D01*
X49403000Y-53975000D01*
X57785000Y-53975000D01*
X57785000Y-61849000D01*
X57785000Y-61849000D01*
G37*
X57785000Y-61849000D02*
X49403000Y-61849000D01*
X49403000Y-53975000D01*
X57785000Y-53975000D01*
X57785000Y-61849000D01*
G36*
X129704197Y-80607803D02*
X129745399Y-80635333D01*
X129792959Y-80644996D01*
X139673000Y-80725964D01*
X139673000Y-85124054D01*
X128567106Y-85216636D01*
X126315970Y-83465752D01*
X126271672Y-83443545D01*
X126238000Y-83439000D01*
X121285000Y-83439000D01*
X121285000Y-77851000D01*
X126947394Y-77851000D01*
X129704197Y-80607803D01*
X129704197Y-80607803D01*
G37*
X129704197Y-80607803D02*
X129745399Y-80635333D01*
X129792959Y-80644996D01*
X139673000Y-80725964D01*
X139673000Y-85124054D01*
X128567106Y-85216636D01*
X126315970Y-83465752D01*
X126271672Y-83443545D01*
X126238000Y-83439000D01*
X121285000Y-83439000D01*
X121285000Y-77851000D01*
X126947394Y-77851000D01*
X129704197Y-80607803D01*
G36*
X133006197Y-75781803D02*
X133047399Y-75809333D01*
X133095846Y-75819000D01*
X139673000Y-75826967D01*
X139673000Y-79672394D01*
X130604992Y-79629231D01*
X123020959Y-72803602D01*
X122978367Y-72778275D01*
X122936000Y-72771000D01*
X113284000Y-72771000D01*
X113235399Y-72780667D01*
X113194197Y-72808197D01*
X112432197Y-73570197D01*
X112404667Y-73611399D01*
X112395000Y-73660000D01*
X112395000Y-76835000D01*
X108077000Y-76835000D01*
X108077000Y-72950606D01*
X112066606Y-68961000D01*
X126185394Y-68961000D01*
X133006197Y-75781803D01*
X133006197Y-75781803D01*
G37*
X133006197Y-75781803D02*
X133047399Y-75809333D01*
X133095846Y-75819000D01*
X139673000Y-75826967D01*
X139673000Y-79672394D01*
X130604992Y-79629231D01*
X123020959Y-72803602D01*
X122978367Y-72778275D01*
X122936000Y-72771000D01*
X113284000Y-72771000D01*
X113235399Y-72780667D01*
X113194197Y-72808197D01*
X112432197Y-73570197D01*
X112404667Y-73611399D01*
X112395000Y-73660000D01*
X112395000Y-76835000D01*
X108077000Y-76835000D01*
X108077000Y-72950606D01*
X112066606Y-68961000D01*
X126185394Y-68961000D01*
X133006197Y-75781803D01*
G36*
X139723000Y-74473000D02*
X134378485Y-74473000D01*
X134425531Y-70427000D01*
X139723000Y-70427000D01*
X139723000Y-74473000D01*
X139723000Y-74473000D01*
G37*
X139723000Y-74473000D02*
X134378485Y-74473000D01*
X134425531Y-70427000D01*
X139723000Y-70427000D01*
X139723000Y-74473000D01*
G36*
X139673000Y-69473000D02*
X134927000Y-69473000D01*
X134927000Y-63777000D01*
X139673000Y-63777000D01*
X139673000Y-69473000D01*
X139673000Y-69473000D01*
G37*
X139673000Y-69473000D02*
X134927000Y-69473000D01*
X134927000Y-63777000D01*
X139673000Y-63777000D01*
X139673000Y-69473000D01*
G36*
X141275608Y-98025070D02*
X141348294Y-101473000D01*
X135180606Y-101473000D01*
X134493000Y-100785394D01*
X134493000Y-97919001D01*
X141275608Y-98025070D01*
X141275608Y-98025070D01*
G37*
X141275608Y-98025070D02*
X141348294Y-101473000D01*
X135180606Y-101473000D01*
X134493000Y-100785394D01*
X134493000Y-97919001D01*
X141275608Y-98025070D01*
G36*
X126697154Y-97653231D02*
X126746000Y-97663000D01*
X130240961Y-97663000D01*
X134266830Y-102695336D01*
X134304739Y-102727248D01*
X134366000Y-102743000D01*
X138645548Y-102743000D01*
X140081000Y-103699968D01*
X140081000Y-107061000D01*
X124333000Y-107061000D01*
X124333000Y-103886000D01*
X124323333Y-103837399D01*
X124295803Y-103796197D01*
X123533803Y-103034197D01*
X123492601Y-103006667D01*
X123444000Y-102997000D01*
X107823000Y-102997000D01*
X107823000Y-96393000D01*
X123672600Y-96393000D01*
X126697154Y-97653231D01*
X126697154Y-97653231D01*
G37*
X126697154Y-97653231D02*
X126746000Y-97663000D01*
X130240961Y-97663000D01*
X134266830Y-102695336D01*
X134304739Y-102727248D01*
X134366000Y-102743000D01*
X138645548Y-102743000D01*
X140081000Y-103699968D01*
X140081000Y-107061000D01*
X124333000Y-107061000D01*
X124333000Y-103886000D01*
X124323333Y-103837399D01*
X124295803Y-103796197D01*
X123533803Y-103034197D01*
X123492601Y-103006667D01*
X123444000Y-102997000D01*
X107823000Y-102997000D01*
X107823000Y-96393000D01*
X123672600Y-96393000D01*
X126697154Y-97653231D01*
G36*
X120269000Y-91694000D02*
X120278667Y-91742601D01*
X120306197Y-91783803D01*
X120347399Y-91811333D01*
X120396000Y-91821000D01*
X139573000Y-91821000D01*
X139573000Y-96647000D01*
X127275998Y-96647000D01*
X123740715Y-95384399D01*
X123698000Y-95377000D01*
X104775000Y-95377000D01*
X104775000Y-77851000D01*
X120269000Y-77851000D01*
X120269000Y-91694000D01*
X120269000Y-91694000D01*
G37*
X120269000Y-91694000D02*
X120278667Y-91742601D01*
X120306197Y-91783803D01*
X120347399Y-91811333D01*
X120396000Y-91821000D01*
X139573000Y-91821000D01*
X139573000Y-96647000D01*
X127275998Y-96647000D01*
X123740715Y-95384399D01*
X123698000Y-95377000D01*
X104775000Y-95377000D01*
X104775000Y-77851000D01*
X120269000Y-77851000D01*
X120269000Y-91694000D01*
G36*
X128188697Y-86457564D02*
X128232222Y-86481251D01*
X128271770Y-86486988D01*
X139623000Y-86328783D01*
X139623000Y-90922192D01*
X121285000Y-90805804D01*
X121285000Y-85217000D01*
X126700020Y-85217000D01*
X128188697Y-86457564D01*
X128188697Y-86457564D01*
G37*
X128188697Y-86457564D02*
X128232222Y-86481251D01*
X128271770Y-86486988D01*
X139623000Y-86328783D01*
X139623000Y-90922192D01*
X121285000Y-90805804D01*
X121285000Y-85217000D01*
X126700020Y-85217000D01*
X128188697Y-86457564D01*
M02*
