M48
;DRILL file {KiCad 5.0.2-bee76a0~70~ubuntu18.04.1} date Tue 02 Jul 2019 09:44:14 PM JST
;FORMAT={-:-/ absolute / inch / decimal}
FMAT,2
INCH,TZ
T1C0.0118
T2C0.0157
T3C0.0236
T4C0.0315
T5C0.0335
T6C0.0374
T7C0.0394
T8C0.0400
T9C0.0512
%
G90
G05
T1
X4.5791Y-1.7464
X4.5791Y-1.7936
X4.6224Y-1.7464
X4.6224Y-1.7936
X4.6736Y-1.7464
X4.6736Y-1.7936
X4.7209Y-1.7464
X4.7209Y-1.7936
T2
X1.81Y-2.7
X1.82Y-2.8
X1.85Y-5.06
X1.87Y-1.81
X1.88Y-2.96
X1.91Y-2.04
X1.96Y-1.77
X1.97Y-1.87
X1.97Y-2.01
X2.02Y-1.88
X2.02Y-1.99
X2.02Y-4.06
X2.05Y-2.22
X2.05Y-2.28
X2.05Y-2.35
X2.06Y-2.95
X2.11Y-2.22
X2.11Y-2.28
X2.11Y-2.35
X2.12Y-3.39
X2.14Y-1.99
X2.14Y-4.75
X2.17Y-2.22
X2.17Y-2.28
X2.17Y-2.35
X2.19Y-1.99
X2.19Y-4.88
X2.22Y-1.73
X2.23Y-1.67
X2.24Y-3.48
X2.24Y-3.63
X2.27Y-1.9872
X2.27Y-3.99
X2.28Y-3.03
X2.28Y-3.4
X2.29Y-4.08
X2.31Y-3.68
X2.33Y-3.24
X2.35Y-3.63
X2.36Y-3.49
X2.36Y-3.81
X2.36Y-3.98
X2.37Y-2.63
X2.39Y-3.77
X2.4Y-2.45
X2.42Y-1.86
X2.44Y-2.39
X2.45Y-3.62
X2.49Y-3.29
X2.49Y-3.46
X2.49Y-4.3282
X2.52Y-2.59
X2.53Y-4.39
X2.54Y-2.03
X2.54Y-2.64
X2.54Y-2.68
X2.54Y-2.72
X2.57Y-2.47
X2.57Y-3.16
X2.58Y-4.2
X2.61Y-4.27
X2.62Y-2.78
X2.63Y-2.85
X2.6303Y-5.2138
X2.65Y-2.71
X2.66Y-2.29
X2.67Y-2.57
X2.67Y-4.32
X2.68Y-2.62
X2.6831Y-5.2138
X2.6898Y-2.4098
X2.69Y-4.21
X2.72Y-2.73
X2.7358Y-5.2138
X2.752Y-4.3937
X2.7598Y-1.7298
X2.7614Y-4.6335
X2.7665Y-4.8929
X2.8Y-4.3
X2.8066Y-4.3866
X2.8127Y-4.6447
X2.82Y-3.1
X2.82Y-3.48
X2.82Y-3.58
X2.82Y-4.06
X2.83Y-2.52
X2.8543Y-4.7791
X2.8594Y-3.58
X2.86Y-3.48
X2.8728Y-4.8913
X2.92Y-3.49
X2.9491Y-4.8083
X2.95Y-1.74
X2.97Y-3.54
X2.98Y-1.85
X3.Y-3.59
X3.0052Y-3.4452
X3.01Y-2.49
X3.0503Y-4.3478
X3.07Y-2.13
X3.0721Y-5.0031
X3.08Y-3.9
X3.1Y-1.94
X3.1Y-4.
X3.11Y-2.86
X3.13Y-2.46
X3.17Y-1.58
X3.18Y-2.25
X3.1878Y-3.89
X3.19Y-1.79
X3.2Y-1.66
X3.21Y-2.97
X3.22Y-3.98
X3.23Y-1.76
X3.23Y-2.1
X3.23Y-3.4
X3.23Y-3.78
X3.24Y-1.99
X3.24Y-4.19
X3.2409Y-3.2992
X3.246Y-2.8582
X3.247Y-3.3397
X3.25Y-2.75
X3.25Y-3.2
X3.26Y-4.08
X3.26Y-4.4
X3.27Y-2.22
X3.27Y-3.62
X3.27Y-3.93
X3.27Y-4.16
X3.28Y-3.7
X3.3Y-3.79
X3.3Y-4.05
X3.31Y-2.13
X3.32Y-2.74
X3.33Y-1.71
X3.33Y-3.95
X3.34Y-2.55
X3.35Y-3.22
X3.35Y-3.62
X3.36Y-2.66
X3.364Y-2.754
X3.39Y-2.21
X3.41Y-4.17
X3.42Y-3.
X3.4239Y-3.389
X3.44Y-2.55
X3.45Y-4.06
X3.46Y-1.97
X3.4632Y-3.3915
X3.48Y-1.81
X3.48Y-3.27
X3.483Y-4.0815
X3.4998Y-3.2102
X3.5Y-2.18
X3.5018Y-3.3028
X3.51Y-1.61
X3.5189Y-5.2031
X3.52Y-2.95
X3.52Y-3.35
X3.53Y-4.39
X3.5369Y-4.7681
X3.55Y-1.99
X3.56Y-1.78
X3.57Y-1.74
X3.57Y-3.02
X3.5862Y-5.2157
X3.61Y-4.35
X3.66Y-3.02
X3.67Y-1.94
X3.67Y-3.77
X3.6705Y-5.2094
X3.68Y-3.97
X3.6898Y-3.0698
X3.7Y-4.17
X3.71Y-3.85
X3.7143Y-3.51
X3.72Y-3.17
X3.73Y-4.0585
X3.7384Y-4.8226
X3.739Y-4.7748
X3.78Y-3.98
X3.8127Y-4.3324
X3.8233Y-4.8944
X3.828Y-4.7319
X3.85Y-4.2592
X3.85Y-4.32
X3.8585Y-3.97
X3.86Y-2.44
X3.87Y-1.57
X3.88Y-4.04
X3.89Y-2.9
X3.8915Y-3.38
X3.9Y-3.05
X3.91Y-2.42
X3.9185Y-4.9238
X3.92Y-4.09
X3.92Y-4.18
X3.93Y-4.13
X3.94Y-3.03
X3.95Y-2.9781
X3.9502Y-4.0198
X3.99Y-2.55
X4.Y-4.02
X4.01Y-1.71
X4.02Y-3.86
X4.02Y-4.3163
X4.03Y-4.1215
X4.05Y-2.42
X4.05Y-2.54
X4.05Y-3.62
X4.07Y-3.7677
X4.1084Y-4.13
X4.14Y-4.23
X4.15Y-1.92
X4.15Y-3.89
X4.1531Y-3.9331
X4.1531Y-3.9769
X4.16Y-1.77
X4.17Y-2.73
X4.17Y-3.85
X4.172Y-3.3984
X4.1775Y-3.5075
X4.18Y-2.61
X4.1806Y-3.2843
X4.19Y-4.14
X4.2074Y-3.4488
X4.2125Y-3.3398
X4.2169Y-3.2201
X4.23Y-4.28
X4.2361Y-3.3965
X4.24Y-2.21
X4.2417Y-3.5067
X4.248Y-3.2732
X4.25Y-2.54
X4.25Y-3.64
X4.26Y-3.71
X4.261Y-4.5256
X4.27Y-4.3198
X4.2704Y-3.3323
X4.2779Y-3.4457
X4.28Y-2.87
X4.2834Y-3.2189
X4.309Y-3.2799
X4.3133Y-3.5031
X4.3141Y-3.3933
X4.32Y-3.68
X4.32Y-4.3198
X4.33Y-2.93
X4.3361Y-4.7836
X4.3409Y-3.3343
X4.35Y-2.86
X4.3539Y-3.2209
X4.3539Y-3.4433
X4.36Y-1.65
X4.36Y-3.72
X4.37Y-2.98
X4.376Y-5.2008
X4.3785Y-4.5422
X4.385Y-3.2787
X4.39Y-1.57
X4.3913Y-3.5031
X4.4Y-2.77
X4.4019Y-3.3866
X4.41Y-3.66
X4.4235Y-3.3343
X4.43Y-2.61
X4.433Y-3.2209
X4.4373Y-3.4394
X4.45Y-2.74
X4.45Y-2.84
X4.4559Y-5.2031
X4.4571Y-4.5303
X4.4649Y-3.5031
X4.4672Y-3.2768
X4.47Y-3.72
X4.4724Y-3.3902
X4.4972Y-3.2157
X4.5066Y-3.3268
X4.5176Y-3.4413
X4.52Y-2.77
X4.53Y-3.66
X4.5432Y-3.2807
X4.5483Y-3.5024
X4.5558Y-3.3941
X4.5677Y-5.1988
X4.57Y-3.72
X4.5726Y-4.1481
X4.5726Y-4.2308
X4.5726Y-4.3099
X4.5747Y-3.2197
X4.5905Y-3.3299
X4.5924Y-3.4441
X4.61Y-4.62
X4.6135Y-4.2725
X4.6181Y-3.829
X4.6187Y-4.1902
X4.6189Y-3.9089
X4.622Y-3.9983
X4.63Y-3.66
X4.6517Y-4.3087
X4.6537Y-4.1497
X4.6537Y-4.2308
X4.6583Y-3.8656
X4.6583Y-3.9577
X4.66Y-3.72
X4.6911Y-4.2698
X4.6939Y-4.1887
X4.6945Y-3.9132
X4.6972Y-3.8278
X4.6972Y-4.0006
X4.72Y-2.83
X4.7289Y-4.1469
X4.7289Y-4.3087
X4.7324Y-4.2288
X4.7346Y-3.8668
X4.7374Y-3.9597
X4.74Y-3.66
X4.75Y-3.72
X4.7616Y-4.1831
X4.762Y-4.2721
X4.7701Y-3.8258
X4.7799Y-3.9124
X4.7819Y-3.9971
X4.79Y-3.41
X4.8Y-3.24
X4.8Y-3.28
X4.8Y-3.36
X4.8053Y-4.3044
X4.8065Y-4.1469
X4.8072Y-4.228
X4.81Y-2.18
X4.81Y-3.66
X4.8154Y-3.9605
X4.82Y-2.6
X4.82Y-3.85
X4.83Y-2.74
X4.84Y-3.36
X4.84Y-3.41
X4.848Y-3.914
X4.85Y-3.28
X4.8528Y-4.0006
X4.86Y-3.24
X4.86Y-3.72
X4.87Y-3.96
X4.89Y-3.36
X4.89Y-3.41
X4.91Y-3.28
X4.92Y-2.76
X4.92Y-3.24
X4.93Y-3.66
X4.93Y-3.75
X4.95Y-3.36
X4.95Y-3.41
X4.96Y-2.82
X4.96Y-2.89
X4.96Y-3.28
X4.98Y-3.24
X4.98Y-3.71
X5.01Y-3.19
X5.01Y-3.29
X5.02Y-1.91
X5.02Y-3.13
X5.02Y-3.24
X5.02Y-3.44
X5.02Y-3.55
X5.02Y-3.66
X5.03Y-2.95
X5.03Y-3.5
X5.04Y-3.74
X5.07Y-3.46
X5.07Y-3.55
X5.09Y-3.69
X5.1Y-1.72
X5.12Y-3.76
X5.14Y-3.22
X5.14Y-3.55
X5.1437Y-2.5177
X5.15Y-3.3
X5.16Y-3.05
X5.16Y-3.4311
X5.18Y-2.57
X5.18Y-3.51
X5.19Y-2.52
X5.19Y-3.0913
X5.19Y-3.26
X5.2Y-2.97
X5.2Y-3.34
X5.2Y-3.6567
X5.23Y-3.23
X5.23Y-3.3
X5.23Y-3.46
X5.23Y-3.54
X5.23Y-3.7528
X5.25Y-3.
X5.26Y-3.05
X5.26Y-3.1
X5.27Y-1.77
X5.27Y-3.2
X5.27Y-3.33
X5.27Y-3.42
X5.298Y-2.2079
X5.3189Y-5.0244
X5.3197Y-3.5327
X5.33Y-2.39
X5.33Y-2.47
X5.33Y-2.56
X5.3425Y-4.9508
X5.3677Y-4.7259
X5.3996Y-4.8976
X5.41Y-1.77
X5.41Y-1.84
X5.4281Y-2.56
X5.43Y-2.71
X5.47Y-1.83
X5.48Y-2.66
X5.5Y-2.71
X5.52Y-1.87
X5.6142Y-4.2512
X5.6142Y-4.3185
X5.6142Y-4.3752
T3
X1.8346Y-4.7087
X2.6732Y-4.8425
X2.7362Y-4.7445
X3.5197Y-4.8504
X3.5878Y-4.7846
X4.3701Y-4.8425
X4.4252Y-4.7441
X4.4488Y-4.8465
X5.3957Y-2.2008
X5.3976Y-2.313
X5.4622Y-2.1673
X5.5465Y-2.2569
X5.5472Y-2.1654
X5.6056Y-2.502
X5.6057Y-2.3181
X5.6072Y-2.4126
X5.6417Y-2.1831
T4
X1.97Y-4.46
X1.97Y-4.96
X2.07Y-4.46
X2.07Y-4.96
X2.17Y-4.46
X2.17Y-4.96
X2.27Y-4.46
X2.27Y-4.96
X2.37Y-4.46
X2.37Y-4.96
X2.47Y-4.46
X2.47Y-4.96
X2.57Y-4.46
X2.57Y-4.96
X2.67Y-4.46
X2.67Y-4.96
X3.67Y-4.46
X3.67Y-4.96
X3.77Y-4.46
X3.77Y-4.96
X3.87Y-4.46
X3.87Y-4.96
X3.97Y-4.46
X3.97Y-4.96
X4.07Y-4.46
X4.07Y-4.96
X4.17Y-4.46
X4.17Y-4.96
X4.27Y-4.46
X4.27Y-4.96
X4.37Y-4.46
X4.37Y-4.96
X4.51Y-4.46
X4.51Y-4.96
X4.61Y-4.46
X4.61Y-4.96
X4.71Y-4.46
X4.71Y-4.96
X4.81Y-4.46
X4.81Y-4.96
X4.91Y-4.46
X4.91Y-4.96
X5.01Y-4.46
X5.01Y-4.96
X5.11Y-4.46
X5.11Y-4.96
X5.21Y-4.46
X5.21Y-4.96
X2.82Y-4.46
X2.82Y-4.96
X2.92Y-4.46
X2.92Y-4.96
X3.02Y-4.46
X3.02Y-4.96
X3.12Y-4.46
X3.12Y-4.96
X3.22Y-4.46
X3.22Y-4.96
X3.32Y-4.46
X3.32Y-4.96
X3.42Y-4.46
X3.42Y-4.96
X3.52Y-4.46
X3.52Y-4.96
T5
X4.0316Y-1.6276
X4.2284Y-1.6276
T6
X2.45Y-3.7331
X2.45Y-3.8316
X2.45Y-3.93
X2.19Y-3.7331
X2.19Y-3.8316
X2.19Y-3.93
X1.93Y-3.7331
X1.93Y-3.8316
X1.93Y-3.93
X2.7Y-3.7331
X2.7Y-3.8316
X2.7Y-3.93
T7
X4.81Y-4.6076
X4.81Y-4.7076
X4.81Y-4.8076
X5.215Y-5.2008
X5.315Y-5.2008
X3.87Y-5.2
X3.87Y-5.3
X3.97Y-5.2
X3.97Y-5.3
X4.07Y-5.2
X4.07Y-5.3
X4.17Y-5.2
X4.17Y-5.3
X2.01Y-3.38
X2.01Y-3.4784
X4.16Y-4.61
X4.16Y-4.71
X4.16Y-4.81
X3.32Y-4.61
X3.32Y-4.71
X3.32Y-4.81
X2.2932Y-1.5626
X2.3932Y-1.5626
X2.4932Y-1.5626
X2.5932Y-1.5626
X2.6932Y-1.5626
X2.7932Y-1.5626
X2.8932Y-1.5626
X2.9932Y-1.5626
X2.17Y-5.2
X2.27Y-5.2
X2.37Y-5.2
X2.47Y-5.2
X4.71Y-5.2
X4.81Y-5.2
X4.91Y-5.2
X5.01Y-5.2
X3.25Y-4.27
X3.35Y-4.27
X3.45Y-4.27
X3.55Y-4.27
X4.06Y-4.61
X4.06Y-4.71
X4.06Y-4.81
X4.26Y-4.61
X4.26Y-4.71
X4.26Y-4.81
X2.37Y-4.61
X2.37Y-4.71
X2.37Y-4.81
X5.6152Y-4.8553
X5.6152Y-4.9553
X3.42Y-4.61
X3.42Y-4.71
X3.42Y-4.81
X2.9723Y-2.96
X2.9723Y-3.06
X2.9723Y-3.16
X2.9723Y-3.26
X5.6142Y-4.5531
X5.6142Y-4.6531
X3.02Y-5.2
X3.12Y-5.2
X3.22Y-5.2
X3.32Y-5.2
X5.1102Y-4.6071
X5.1102Y-4.7071
X5.1102Y-4.8071
X2.47Y-4.61
X2.47Y-4.71
X2.47Y-4.81
X2.57Y-4.61
X2.57Y-4.71
X2.57Y-4.81
X3.6Y-3.12
X3.6Y-3.22
X3.6Y-3.32
X3.6Y-3.42
X3.6Y-3.52
X3.6Y-3.62
X3.6Y-3.72
X3.6Y-3.82
X3.6Y-3.92
X3.6Y-4.02
X3.959Y-4.61
X3.959Y-4.71
X3.959Y-4.81
X5.01Y-4.6071
X5.01Y-4.7071
X5.01Y-4.8071
X2.01Y-3.06
X2.01Y-3.1584
X2.269Y-4.6097
X2.269Y-4.7097
X2.269Y-4.8097
X2.69Y-3.14
X2.69Y-3.24
X2.69Y-3.34
X2.69Y-3.44
X4.91Y-4.6076
X4.91Y-4.7076
X4.91Y-4.8076
X3.119Y-4.61
X3.119Y-4.71
X3.119Y-4.81
X3.22Y-4.61
X3.22Y-4.71
X3.22Y-4.81
T8
X3.7023Y-2.7172
X3.7023Y-2.8172
X3.8023Y-2.7172
X3.8023Y-2.8172
X3.9023Y-2.7172
X3.9023Y-2.8172
X4.0023Y-2.7172
X4.0023Y-2.8172
X2.78Y-2.27
X2.78Y-2.37
X2.78Y-2.47
X2.78Y-2.57
X2.78Y-2.67
X2.88Y-2.27
X2.88Y-2.37
X2.88Y-2.47
X2.88Y-2.57
X2.88Y-2.67
T9
X5.3481Y-2.6752
X5.3481Y-2.8752
X5.3481Y-3.0752
X5.3481Y-3.2752
X5.3481Y-3.498
X5.3481Y-3.698
X5.3481Y-3.9203
X5.3481Y-4.1203
T3
X3.9922Y-1.5351G85X3.9922Y-1.5075
G05
X4.2678Y-1.5075G85X4.2678Y-1.5351
G05
T0
M30
