G04 #@! TF.GenerationSoftware,KiCad,Pcbnew,5.0.2-bee76a0~70~ubuntu18.04.1*
G04 #@! TF.CreationDate,2019-07-27T20:10:28+09:00*
G04 #@! TF.ProjectId,MRR_ESPE,4d52525f-4553-4504-952e-6b696361645f,v0.4*
G04 #@! TF.SameCoordinates,Original*
G04 #@! TF.FileFunction,Legend,Bot*
G04 #@! TF.FilePolarity,Positive*
%FSLAX46Y46*%
G04 Gerber Fmt 4.6, Leading zero omitted, Abs format (unit mm)*
G04 Created by KiCad (PCBNEW 5.0.2-bee76a0~70~ubuntu18.04.1) date Sat 27 Jul 2019 08:10:28 PM JST*
%MOMM*%
%LPD*%
G01*
G04 APERTURE LIST*
%ADD10C,0.200000*%
%ADD11C,0.300000*%
G04 APERTURE END LIST*
D10*
X139084142Y-98615428D02*
X139084142Y-97472571D01*
D11*
X139004857Y-70611904D02*
X139004857Y-69088095D01*
D10*
X72389904Y-72398000D02*
X72485142Y-72350380D01*
X72628000Y-72350380D01*
X72770857Y-72398000D01*
X72866095Y-72493238D01*
X72913714Y-72588476D01*
X72961333Y-72778952D01*
X72961333Y-72921809D01*
X72913714Y-73112285D01*
X72866095Y-73207523D01*
X72770857Y-73302761D01*
X72628000Y-73350380D01*
X72532761Y-73350380D01*
X72389904Y-73302761D01*
X72342285Y-73255142D01*
X72342285Y-72921809D01*
X72532761Y-72921809D01*
X71913714Y-73350380D02*
X71913714Y-72350380D01*
X71342285Y-73350380D01*
X71342285Y-72350380D01*
X70866095Y-73350380D02*
X70866095Y-72350380D01*
X70628000Y-72350380D01*
X70485142Y-72398000D01*
X70389904Y-72493238D01*
X70342285Y-72588476D01*
X70294666Y-72778952D01*
X70294666Y-72921809D01*
X70342285Y-73112285D01*
X70389904Y-73207523D01*
X70485142Y-73302761D01*
X70628000Y-73350380D01*
X70866095Y-73350380D01*
X79656476Y-72398380D02*
X80132666Y-72398380D01*
X80180285Y-72874571D01*
X80132666Y-72826952D01*
X80037428Y-72779333D01*
X79799333Y-72779333D01*
X79704095Y-72826952D01*
X79656476Y-72874571D01*
X79608857Y-72969809D01*
X79608857Y-73207904D01*
X79656476Y-73303142D01*
X79704095Y-73350761D01*
X79799333Y-73398380D01*
X80037428Y-73398380D01*
X80132666Y-73350761D01*
X80180285Y-73303142D01*
X79323142Y-72398380D02*
X78989809Y-73398380D01*
X78656476Y-72398380D01*
X139004380Y-93985523D02*
X138004380Y-93985523D01*
X138480571Y-93985523D02*
X138480571Y-94556952D01*
X139004380Y-94556952D02*
X138004380Y-94556952D01*
X138004380Y-95223619D02*
X138004380Y-95414095D01*
X138052000Y-95509333D01*
X138147238Y-95604571D01*
X138337714Y-95652190D01*
X138671047Y-95652190D01*
X138861523Y-95604571D01*
X138956761Y-95509333D01*
X139004380Y-95414095D01*
X139004380Y-95223619D01*
X138956761Y-95128380D01*
X138861523Y-95033142D01*
X138671047Y-94985523D01*
X138337714Y-94985523D01*
X138147238Y-95033142D01*
X138052000Y-95128380D01*
X138004380Y-95223619D01*
X138004380Y-95937904D02*
X138004380Y-96509333D01*
X139004380Y-96223619D02*
X138004380Y-96223619D01*
X140180571Y-93937904D02*
X140180571Y-94271238D01*
X140704380Y-94414095D02*
X140704380Y-93937904D01*
X139704380Y-93937904D01*
X139704380Y-94414095D01*
X140704380Y-94842666D02*
X139704380Y-94842666D01*
X140704380Y-95414095D01*
X139704380Y-95414095D01*
X140704380Y-95890285D02*
X139704380Y-95890285D01*
X139704380Y-96128380D01*
X139752000Y-96271238D01*
X139847238Y-96366476D01*
X139942476Y-96414095D01*
X140132952Y-96461714D01*
X140275809Y-96461714D01*
X140466285Y-96414095D01*
X140561523Y-96366476D01*
X140656761Y-96271238D01*
X140704380Y-96128380D01*
X140704380Y-95890285D01*
X139004380Y-82328380D02*
X138004380Y-82328380D01*
X138480571Y-82328380D02*
X138480571Y-82899809D01*
X139004380Y-82899809D02*
X138004380Y-82899809D01*
X138480571Y-83376000D02*
X138480571Y-83709333D01*
X139004380Y-83852190D02*
X139004380Y-83376000D01*
X138004380Y-83376000D01*
X138004380Y-83852190D01*
X138718666Y-84233142D02*
X138718666Y-84709333D01*
X139004380Y-84137904D02*
X138004380Y-84471238D01*
X139004380Y-84804571D01*
X138004380Y-84995047D02*
X138004380Y-85566476D01*
X139004380Y-85280761D02*
X138004380Y-85280761D01*
X140180571Y-82995047D02*
X140228190Y-83137904D01*
X140275809Y-83185523D01*
X140371047Y-83233142D01*
X140513904Y-83233142D01*
X140609142Y-83185523D01*
X140656761Y-83137904D01*
X140704380Y-83042666D01*
X140704380Y-82661714D01*
X139704380Y-82661714D01*
X139704380Y-82995047D01*
X139752000Y-83090285D01*
X139799619Y-83137904D01*
X139894857Y-83185523D01*
X139990095Y-83185523D01*
X140085333Y-83137904D01*
X140132952Y-83090285D01*
X140180571Y-82995047D01*
X140180571Y-82661714D01*
X140180571Y-83661714D02*
X140180571Y-83995047D01*
X140704380Y-84137904D02*
X140704380Y-83661714D01*
X139704380Y-83661714D01*
X139704380Y-84137904D01*
X140704380Y-84566476D02*
X139704380Y-84566476D01*
X139704380Y-84804571D01*
X139752000Y-84947428D01*
X139847238Y-85042666D01*
X139942476Y-85090285D01*
X140132952Y-85137904D01*
X140275809Y-85137904D01*
X140466285Y-85090285D01*
X140561523Y-85042666D01*
X140656761Y-84947428D01*
X140704380Y-84804571D01*
X140704380Y-84566476D01*
X139554380Y-71090285D02*
X140554380Y-71423619D01*
X139554380Y-71756952D01*
X140030571Y-72423619D02*
X140078190Y-72566476D01*
X140125809Y-72614095D01*
X140221047Y-72661714D01*
X140363904Y-72661714D01*
X140459142Y-72614095D01*
X140506761Y-72566476D01*
X140554380Y-72471238D01*
X140554380Y-72090285D01*
X139554380Y-72090285D01*
X139554380Y-72423619D01*
X139602000Y-72518857D01*
X139649619Y-72566476D01*
X139744857Y-72614095D01*
X139840095Y-72614095D01*
X139935333Y-72566476D01*
X139982952Y-72518857D01*
X140030571Y-72423619D01*
X140030571Y-72090285D01*
X140030571Y-73090285D02*
X140030571Y-73423619D01*
X140554380Y-73566476D02*
X140554380Y-73090285D01*
X139554380Y-73090285D01*
X139554380Y-73566476D01*
X140554380Y-73995047D02*
X139554380Y-73995047D01*
X139554380Y-74233142D01*
X139602000Y-74376000D01*
X139697238Y-74471238D01*
X139792476Y-74518857D01*
X139982952Y-74566476D01*
X140125809Y-74566476D01*
X140316285Y-74518857D01*
X140411523Y-74471238D01*
X140506761Y-74376000D01*
X140554380Y-74233142D01*
X140554380Y-73995047D01*
X139554380Y-61580761D02*
X140554380Y-61914095D01*
X139554380Y-62247428D01*
X140554380Y-62580761D02*
X139554380Y-62580761D01*
X140554380Y-63056952D02*
X139554380Y-63056952D01*
X140554380Y-63628380D01*
X139554380Y-63628380D01*
X139194142Y-91812428D02*
X139194142Y-90669571D01*
X139765571Y-91241000D02*
X138622714Y-91241000D01*
X139009142Y-81132428D02*
X139009142Y-79989571D01*
X139580571Y-80561000D02*
X138437714Y-80561000D01*
X139084142Y-87582428D02*
X139084142Y-86439571D01*
D11*
X138350095Y-59848857D02*
X139873904Y-59848857D01*
X139112000Y-60610761D02*
X139112000Y-59086952D01*
X139004857Y-65667904D02*
X139004857Y-64144095D01*
X138390095Y-75738857D02*
X139913904Y-75738857D01*
X139152000Y-76500761D02*
X139152000Y-74976952D01*
D10*
X114355714Y-59350380D02*
X114022380Y-60350380D01*
X113689047Y-59350380D01*
X112974761Y-60302761D02*
X113070000Y-60350380D01*
X113260476Y-60350380D01*
X113355714Y-60302761D01*
X113403333Y-60207523D01*
X113403333Y-59826571D01*
X113355714Y-59731333D01*
X113260476Y-59683714D01*
X113070000Y-59683714D01*
X112974761Y-59731333D01*
X112927142Y-59826571D01*
X112927142Y-59921809D01*
X113403333Y-60017047D01*
X112498571Y-60350380D02*
X112498571Y-59683714D01*
X112498571Y-59874190D02*
X112450952Y-59778952D01*
X112403333Y-59731333D01*
X112308095Y-59683714D01*
X112212857Y-59683714D01*
X111927142Y-60302761D02*
X111831904Y-60350380D01*
X111641428Y-60350380D01*
X111546190Y-60302761D01*
X111498571Y-60207523D01*
X111498571Y-60159904D01*
X111546190Y-60064666D01*
X111641428Y-60017047D01*
X111784285Y-60017047D01*
X111879523Y-59969428D01*
X111927142Y-59874190D01*
X111927142Y-59826571D01*
X111879523Y-59731333D01*
X111784285Y-59683714D01*
X111641428Y-59683714D01*
X111546190Y-59731333D01*
X111069999Y-60350380D02*
X111069999Y-59683714D01*
X111069999Y-59350380D02*
X111117619Y-59398000D01*
X111069999Y-59445619D01*
X111022380Y-59398000D01*
X111069999Y-59350380D01*
X111069999Y-59445619D01*
X110450952Y-60350380D02*
X110546190Y-60302761D01*
X110593809Y-60255142D01*
X110641428Y-60159904D01*
X110641428Y-59874190D01*
X110593809Y-59778952D01*
X110546190Y-59731333D01*
X110450952Y-59683714D01*
X110308095Y-59683714D01*
X110212857Y-59731333D01*
X110165238Y-59778952D01*
X110117619Y-59874190D01*
X110117619Y-60159904D01*
X110165238Y-60255142D01*
X110212857Y-60302761D01*
X110308095Y-60350380D01*
X110450952Y-60350380D01*
X109689047Y-59683714D02*
X109689047Y-60350380D01*
X109689047Y-59778952D02*
X109641428Y-59731333D01*
X109546190Y-59683714D01*
X109403333Y-59683714D01*
X109308095Y-59731333D01*
X109260476Y-59826571D01*
X109260476Y-60350380D01*
X107593809Y-60350380D02*
X107593809Y-59350380D01*
X107593809Y-60302761D02*
X107689047Y-60350380D01*
X107879523Y-60350380D01*
X107974761Y-60302761D01*
X108022380Y-60255142D01*
X108069999Y-60159904D01*
X108069999Y-59874190D01*
X108022380Y-59778952D01*
X107974761Y-59731333D01*
X107879523Y-59683714D01*
X107689047Y-59683714D01*
X107593809Y-59731333D01*
X106689047Y-60350380D02*
X106689047Y-59826571D01*
X106736666Y-59731333D01*
X106831904Y-59683714D01*
X107022380Y-59683714D01*
X107117619Y-59731333D01*
X106689047Y-60302761D02*
X106784285Y-60350380D01*
X107022380Y-60350380D01*
X107117619Y-60302761D01*
X107165238Y-60207523D01*
X107165238Y-60112285D01*
X107117619Y-60017047D01*
X107022380Y-59969428D01*
X106784285Y-59969428D01*
X106689047Y-59921809D01*
X106355714Y-59683714D02*
X105974761Y-59683714D01*
X106212857Y-59350380D02*
X106212857Y-60207523D01*
X106165238Y-60302761D01*
X106069999Y-60350380D01*
X105974761Y-60350380D01*
X105260476Y-60302761D02*
X105355714Y-60350380D01*
X105546190Y-60350380D01*
X105641428Y-60302761D01*
X105689047Y-60207523D01*
X105689047Y-59826571D01*
X105641428Y-59731333D01*
X105546190Y-59683714D01*
X105355714Y-59683714D01*
X105260476Y-59731333D01*
X105212857Y-59826571D01*
X105212857Y-59921809D01*
X105689047Y-60017047D01*
X104784285Y-60255142D02*
X104736666Y-60302761D01*
X104784285Y-60350380D01*
X104831904Y-60302761D01*
X104784285Y-60255142D01*
X104784285Y-60350380D01*
X104784285Y-59731333D02*
X104736666Y-59778952D01*
X104784285Y-59826571D01*
X104831904Y-59778952D01*
X104784285Y-59731333D01*
X104784285Y-59826571D01*
X103593809Y-59445619D02*
X103546190Y-59398000D01*
X103450952Y-59350380D01*
X103212857Y-59350380D01*
X103117619Y-59398000D01*
X103069999Y-59445619D01*
X103022380Y-59540857D01*
X103022380Y-59636095D01*
X103069999Y-59778952D01*
X103641428Y-60350380D01*
X103022380Y-60350380D01*
X102403333Y-59350380D02*
X102308095Y-59350380D01*
X102212857Y-59398000D01*
X102165238Y-59445619D01*
X102117619Y-59540857D01*
X102069999Y-59731333D01*
X102069999Y-59969428D01*
X102117619Y-60159904D01*
X102165238Y-60255142D01*
X102212857Y-60302761D01*
X102308095Y-60350380D01*
X102403333Y-60350380D01*
X102498571Y-60302761D01*
X102546190Y-60255142D01*
X102593809Y-60159904D01*
X102641428Y-59969428D01*
X102641428Y-59731333D01*
X102593809Y-59540857D01*
X102546190Y-59445619D01*
X102498571Y-59398000D01*
X102403333Y-59350380D01*
X101117619Y-60350380D02*
X101689047Y-60350380D01*
X101403333Y-60350380D02*
X101403333Y-59350380D01*
X101498571Y-59493238D01*
X101593809Y-59588476D01*
X101689047Y-59636095D01*
X100641428Y-60350380D02*
X100450952Y-60350380D01*
X100355714Y-60302761D01*
X100308095Y-60255142D01*
X100212857Y-60112285D01*
X100165238Y-59921809D01*
X100165238Y-59540857D01*
X100212857Y-59445619D01*
X100260476Y-59398000D01*
X100355714Y-59350380D01*
X100546190Y-59350380D01*
X100641428Y-59398000D01*
X100689047Y-59445619D01*
X100736666Y-59540857D01*
X100736666Y-59778952D01*
X100689047Y-59874190D01*
X100641428Y-59921809D01*
X100546190Y-59969428D01*
X100355714Y-59969428D01*
X100260476Y-59921809D01*
X100212857Y-59874190D01*
X100165238Y-59778952D01*
X99736666Y-59969428D02*
X98974761Y-59969428D01*
X98308095Y-59350380D02*
X98212857Y-59350380D01*
X98117619Y-59398000D01*
X98069999Y-59445619D01*
X98022380Y-59540857D01*
X97974761Y-59731333D01*
X97974761Y-59969428D01*
X98022380Y-60159904D01*
X98069999Y-60255142D01*
X98117619Y-60302761D01*
X98212857Y-60350380D01*
X98308095Y-60350380D01*
X98403333Y-60302761D01*
X98450952Y-60255142D01*
X98498571Y-60159904D01*
X98546190Y-59969428D01*
X98546190Y-59731333D01*
X98498571Y-59540857D01*
X98450952Y-59445619D01*
X98403333Y-59398000D01*
X98308095Y-59350380D01*
X97641428Y-59350380D02*
X96974761Y-59350380D01*
X97403333Y-60350380D01*
X96593809Y-59969428D02*
X95831904Y-59969428D01*
X95165238Y-59350380D02*
X95069999Y-59350380D01*
X94974761Y-59398000D01*
X94927142Y-59445619D01*
X94879523Y-59540857D01*
X94831904Y-59731333D01*
X94831904Y-59969428D01*
X94879523Y-60159904D01*
X94927142Y-60255142D01*
X94974761Y-60302761D01*
X95069999Y-60350380D01*
X95165238Y-60350380D01*
X95260476Y-60302761D01*
X95308095Y-60255142D01*
X95355714Y-60159904D01*
X95403333Y-59969428D01*
X95403333Y-59731333D01*
X95355714Y-59540857D01*
X95308095Y-59445619D01*
X95260476Y-59398000D01*
X95165238Y-59350380D01*
X93879523Y-60350380D02*
X94450952Y-60350380D01*
X94165238Y-60350380D02*
X94165238Y-59350380D01*
X94260476Y-59493238D01*
X94355714Y-59588476D01*
X94450952Y-59636095D01*
X120350476Y-53310380D02*
X120350476Y-52310380D01*
X120112380Y-52310380D01*
X119969523Y-52358000D01*
X119874285Y-52453238D01*
X119826666Y-52548476D01*
X119779047Y-52738952D01*
X119779047Y-52881809D01*
X119826666Y-53072285D01*
X119874285Y-53167523D01*
X119969523Y-53262761D01*
X120112380Y-53310380D01*
X120350476Y-53310380D01*
X118969523Y-53262761D02*
X119064761Y-53310380D01*
X119255238Y-53310380D01*
X119350476Y-53262761D01*
X119398095Y-53167523D01*
X119398095Y-52786571D01*
X119350476Y-52691333D01*
X119255238Y-52643714D01*
X119064761Y-52643714D01*
X118969523Y-52691333D01*
X118921904Y-52786571D01*
X118921904Y-52881809D01*
X119398095Y-52977047D01*
X118588571Y-52643714D02*
X118350476Y-53310380D01*
X118112380Y-52643714D01*
X117350476Y-53262761D02*
X117445714Y-53310380D01*
X117636190Y-53310380D01*
X117731428Y-53262761D01*
X117779047Y-53167523D01*
X117779047Y-52786571D01*
X117731428Y-52691333D01*
X117636190Y-52643714D01*
X117445714Y-52643714D01*
X117350476Y-52691333D01*
X117302857Y-52786571D01*
X117302857Y-52881809D01*
X117779047Y-52977047D01*
X116731428Y-53310380D02*
X116826666Y-53262761D01*
X116874285Y-53167523D01*
X116874285Y-52310380D01*
X116207619Y-53310380D02*
X116302857Y-53262761D01*
X116350476Y-53215142D01*
X116398095Y-53119904D01*
X116398095Y-52834190D01*
X116350476Y-52738952D01*
X116302857Y-52691333D01*
X116207619Y-52643714D01*
X116064761Y-52643714D01*
X115969523Y-52691333D01*
X115921904Y-52738952D01*
X115874285Y-52834190D01*
X115874285Y-53119904D01*
X115921904Y-53215142D01*
X115969523Y-53262761D01*
X116064761Y-53310380D01*
X116207619Y-53310380D01*
X115445714Y-52643714D02*
X115445714Y-53643714D01*
X115445714Y-52691333D02*
X115350476Y-52643714D01*
X115160000Y-52643714D01*
X115064761Y-52691333D01*
X115017142Y-52738952D01*
X114969523Y-52834190D01*
X114969523Y-53119904D01*
X115017142Y-53215142D01*
X115064761Y-53262761D01*
X115160000Y-53310380D01*
X115350476Y-53310380D01*
X115445714Y-53262761D01*
X114160000Y-53262761D02*
X114255238Y-53310380D01*
X114445714Y-53310380D01*
X114540952Y-53262761D01*
X114588571Y-53167523D01*
X114588571Y-52786571D01*
X114540952Y-52691333D01*
X114445714Y-52643714D01*
X114255238Y-52643714D01*
X114160000Y-52691333D01*
X114112380Y-52786571D01*
X114112380Y-52881809D01*
X114588571Y-52977047D01*
X113255238Y-53310380D02*
X113255238Y-52310380D01*
X113255238Y-53262761D02*
X113350476Y-53310380D01*
X113540952Y-53310380D01*
X113636190Y-53262761D01*
X113683809Y-53215142D01*
X113731428Y-53119904D01*
X113731428Y-52834190D01*
X113683809Y-52738952D01*
X113636190Y-52691333D01*
X113540952Y-52643714D01*
X113350476Y-52643714D01*
X113255238Y-52691333D01*
X112017142Y-53310380D02*
X112017142Y-52310380D01*
X112017142Y-52691333D02*
X111921904Y-52643714D01*
X111731428Y-52643714D01*
X111636190Y-52691333D01*
X111588571Y-52738952D01*
X111540952Y-52834190D01*
X111540952Y-53119904D01*
X111588571Y-53215142D01*
X111636190Y-53262761D01*
X111731428Y-53310380D01*
X111921904Y-53310380D01*
X112017142Y-53262761D01*
X111207619Y-52643714D02*
X110969523Y-53310380D01*
X110731428Y-52643714D02*
X110969523Y-53310380D01*
X111064761Y-53548476D01*
X111112380Y-53596095D01*
X111207619Y-53643714D01*
X109588571Y-53310380D02*
X109588571Y-52310380D01*
X109255238Y-53024666D01*
X108921904Y-52310380D01*
X108921904Y-53310380D01*
X108017142Y-53310380D02*
X108017142Y-52786571D01*
X108064761Y-52691333D01*
X108160000Y-52643714D01*
X108350476Y-52643714D01*
X108445714Y-52691333D01*
X108017142Y-53262761D02*
X108112380Y-53310380D01*
X108350476Y-53310380D01*
X108445714Y-53262761D01*
X108493333Y-53167523D01*
X108493333Y-53072285D01*
X108445714Y-52977047D01*
X108350476Y-52929428D01*
X108112380Y-52929428D01*
X108017142Y-52881809D01*
X107540952Y-52643714D02*
X107540952Y-53643714D01*
X107540952Y-52691333D02*
X107445714Y-52643714D01*
X107255238Y-52643714D01*
X107160000Y-52691333D01*
X107112380Y-52738952D01*
X107064761Y-52834190D01*
X107064761Y-53119904D01*
X107112380Y-53215142D01*
X107160000Y-53262761D01*
X107255238Y-53310380D01*
X107445714Y-53310380D01*
X107540952Y-53262761D01*
X106493333Y-53310380D02*
X106588571Y-53262761D01*
X106636190Y-53167523D01*
X106636190Y-52310380D01*
X105731428Y-53262761D02*
X105826666Y-53310380D01*
X106017142Y-53310380D01*
X106112380Y-53262761D01*
X106160000Y-53167523D01*
X106160000Y-52786571D01*
X106112380Y-52691333D01*
X106017142Y-52643714D01*
X105826666Y-52643714D01*
X105731428Y-52691333D01*
X105683809Y-52786571D01*
X105683809Y-52881809D01*
X106160000Y-52977047D01*
X103921904Y-53310380D02*
X104255238Y-52834190D01*
X104493333Y-53310380D02*
X104493333Y-52310380D01*
X104112380Y-52310380D01*
X104017142Y-52358000D01*
X103969523Y-52405619D01*
X103921904Y-52500857D01*
X103921904Y-52643714D01*
X103969523Y-52738952D01*
X104017142Y-52786571D01*
X104112380Y-52834190D01*
X104493333Y-52834190D01*
X103064761Y-53310380D02*
X103064761Y-52786571D01*
X103112380Y-52691333D01*
X103207619Y-52643714D01*
X103398095Y-52643714D01*
X103493333Y-52691333D01*
X103064761Y-53262761D02*
X103160000Y-53310380D01*
X103398095Y-53310380D01*
X103493333Y-53262761D01*
X103540952Y-53167523D01*
X103540952Y-53072285D01*
X103493333Y-52977047D01*
X103398095Y-52929428D01*
X103160000Y-52929428D01*
X103064761Y-52881809D01*
X102588571Y-53310380D02*
X102588571Y-52643714D01*
X102588571Y-52310380D02*
X102636190Y-52358000D01*
X102588571Y-52405619D01*
X102540952Y-52358000D01*
X102588571Y-52310380D01*
X102588571Y-52405619D01*
X102112380Y-52643714D02*
X102112380Y-53310380D01*
X102112380Y-52738952D02*
X102064761Y-52691333D01*
X101969523Y-52643714D01*
X101826666Y-52643714D01*
X101731428Y-52691333D01*
X101683809Y-52786571D01*
X101683809Y-53310380D01*
X99874285Y-53310380D02*
X100207619Y-52834190D01*
X100445714Y-53310380D02*
X100445714Y-52310380D01*
X100064761Y-52310380D01*
X99969523Y-52358000D01*
X99921904Y-52405619D01*
X99874285Y-52500857D01*
X99874285Y-52643714D01*
X99921904Y-52738952D01*
X99969523Y-52786571D01*
X100064761Y-52834190D01*
X100445714Y-52834190D01*
X99064761Y-53262761D02*
X99160000Y-53310380D01*
X99350476Y-53310380D01*
X99445714Y-53262761D01*
X99493333Y-53167523D01*
X99493333Y-52786571D01*
X99445714Y-52691333D01*
X99350476Y-52643714D01*
X99160000Y-52643714D01*
X99064761Y-52691333D01*
X99017142Y-52786571D01*
X99017142Y-52881809D01*
X99493333Y-52977047D01*
X98636190Y-53262761D02*
X98540952Y-53310380D01*
X98350476Y-53310380D01*
X98255238Y-53262761D01*
X98207619Y-53167523D01*
X98207619Y-53119904D01*
X98255238Y-53024666D01*
X98350476Y-52977047D01*
X98493333Y-52977047D01*
X98588571Y-52929428D01*
X98636190Y-52834190D01*
X98636190Y-52786571D01*
X98588571Y-52691333D01*
X98493333Y-52643714D01*
X98350476Y-52643714D01*
X98255238Y-52691333D01*
X97398095Y-53262761D02*
X97493333Y-53310380D01*
X97683809Y-53310380D01*
X97779047Y-53262761D01*
X97826666Y-53167523D01*
X97826666Y-52786571D01*
X97779047Y-52691333D01*
X97683809Y-52643714D01*
X97493333Y-52643714D01*
X97398095Y-52691333D01*
X97350476Y-52786571D01*
X97350476Y-52881809D01*
X97826666Y-52977047D01*
X96493333Y-53310380D02*
X96493333Y-52786571D01*
X96540952Y-52691333D01*
X96636190Y-52643714D01*
X96826666Y-52643714D01*
X96921904Y-52691333D01*
X96493333Y-53262761D02*
X96588571Y-53310380D01*
X96826666Y-53310380D01*
X96921904Y-53262761D01*
X96969523Y-53167523D01*
X96969523Y-53072285D01*
X96921904Y-52977047D01*
X96826666Y-52929428D01*
X96588571Y-52929428D01*
X96493333Y-52881809D01*
X96017142Y-53310380D02*
X96017142Y-52643714D01*
X96017142Y-52834190D02*
X95969523Y-52738952D01*
X95921904Y-52691333D01*
X95826666Y-52643714D01*
X95731428Y-52643714D01*
X94969523Y-53262761D02*
X95064761Y-53310380D01*
X95255238Y-53310380D01*
X95350476Y-53262761D01*
X95398095Y-53215142D01*
X95445714Y-53119904D01*
X95445714Y-52834190D01*
X95398095Y-52738952D01*
X95350476Y-52691333D01*
X95255238Y-52643714D01*
X95064761Y-52643714D01*
X94969523Y-52691333D01*
X94540952Y-53310380D02*
X94540952Y-52310380D01*
X94112380Y-53310380D02*
X94112380Y-52786571D01*
X94160000Y-52691333D01*
X94255238Y-52643714D01*
X94398095Y-52643714D01*
X94493333Y-52691333D01*
X94540952Y-52738952D01*
X92302857Y-53215142D02*
X92350476Y-53262761D01*
X92493333Y-53310380D01*
X92588571Y-53310380D01*
X92731428Y-53262761D01*
X92826666Y-53167523D01*
X92874285Y-53072285D01*
X92921904Y-52881809D01*
X92921904Y-52738952D01*
X92874285Y-52548476D01*
X92826666Y-52453238D01*
X92731428Y-52358000D01*
X92588571Y-52310380D01*
X92493333Y-52310380D01*
X92350476Y-52358000D01*
X92302857Y-52405619D01*
X91731428Y-53310380D02*
X91826666Y-53262761D01*
X91874285Y-53215142D01*
X91921904Y-53119904D01*
X91921904Y-52834190D01*
X91874285Y-52738952D01*
X91826666Y-52691333D01*
X91731428Y-52643714D01*
X91588571Y-52643714D01*
X91493333Y-52691333D01*
X91445714Y-52738952D01*
X91398095Y-52834190D01*
X91398095Y-53119904D01*
X91445714Y-53215142D01*
X91493333Y-53262761D01*
X91588571Y-53310380D01*
X91731428Y-53310380D01*
X90969523Y-53215142D02*
X90921904Y-53262761D01*
X90969523Y-53310380D01*
X91017142Y-53262761D01*
X90969523Y-53215142D01*
X90969523Y-53310380D01*
X90445714Y-53262761D02*
X90445714Y-53310380D01*
X90493333Y-53405619D01*
X90540952Y-53453238D01*
X88779047Y-53310380D02*
X89255238Y-53310380D01*
X89255238Y-52310380D01*
X88588571Y-52643714D02*
X88207619Y-52643714D01*
X88445714Y-52310380D02*
X88445714Y-53167523D01*
X88398095Y-53262761D01*
X88302857Y-53310380D01*
X88207619Y-53310380D01*
X87445714Y-53310380D02*
X87445714Y-52310380D01*
X87445714Y-53262761D02*
X87540952Y-53310380D01*
X87731428Y-53310380D01*
X87826666Y-53262761D01*
X87874285Y-53215142D01*
X87921904Y-53119904D01*
X87921904Y-52834190D01*
X87874285Y-52738952D01*
X87826666Y-52691333D01*
X87731428Y-52643714D01*
X87540952Y-52643714D01*
X87445714Y-52691333D01*
X86969523Y-53215142D02*
X86921904Y-53262761D01*
X86969523Y-53310380D01*
X87017142Y-53262761D01*
X86969523Y-53215142D01*
X86969523Y-53310380D01*
X119850952Y-55490380D02*
X120327142Y-55490380D01*
X120327142Y-54490380D01*
X119517619Y-55490380D02*
X119517619Y-54823714D01*
X119517619Y-54490380D02*
X119565238Y-54538000D01*
X119517619Y-54585619D01*
X119470000Y-54538000D01*
X119517619Y-54490380D01*
X119517619Y-54585619D01*
X118612857Y-55442761D02*
X118708095Y-55490380D01*
X118898571Y-55490380D01*
X118993809Y-55442761D01*
X119041428Y-55395142D01*
X119089047Y-55299904D01*
X119089047Y-55014190D01*
X119041428Y-54918952D01*
X118993809Y-54871333D01*
X118898571Y-54823714D01*
X118708095Y-54823714D01*
X118612857Y-54871333D01*
X117803333Y-55442761D02*
X117898571Y-55490380D01*
X118089047Y-55490380D01*
X118184285Y-55442761D01*
X118231904Y-55347523D01*
X118231904Y-54966571D01*
X118184285Y-54871333D01*
X118089047Y-54823714D01*
X117898571Y-54823714D01*
X117803333Y-54871333D01*
X117755714Y-54966571D01*
X117755714Y-55061809D01*
X118231904Y-55157047D01*
X117327142Y-54823714D02*
X117327142Y-55490380D01*
X117327142Y-54918952D02*
X117279523Y-54871333D01*
X117184285Y-54823714D01*
X117041428Y-54823714D01*
X116946190Y-54871333D01*
X116898571Y-54966571D01*
X116898571Y-55490380D01*
X116470000Y-55442761D02*
X116374761Y-55490380D01*
X116184285Y-55490380D01*
X116089047Y-55442761D01*
X116041428Y-55347523D01*
X116041428Y-55299904D01*
X116089047Y-55204666D01*
X116184285Y-55157047D01*
X116327142Y-55157047D01*
X116422380Y-55109428D01*
X116470000Y-55014190D01*
X116470000Y-54966571D01*
X116422380Y-54871333D01*
X116327142Y-54823714D01*
X116184285Y-54823714D01*
X116089047Y-54871333D01*
X115231904Y-55442761D02*
X115327142Y-55490380D01*
X115517619Y-55490380D01*
X115612857Y-55442761D01*
X115660476Y-55347523D01*
X115660476Y-54966571D01*
X115612857Y-54871333D01*
X115517619Y-54823714D01*
X115327142Y-54823714D01*
X115231904Y-54871333D01*
X115184285Y-54966571D01*
X115184285Y-55061809D01*
X115660476Y-55157047D01*
X114327142Y-55490380D02*
X114327142Y-54490380D01*
X114327142Y-55442761D02*
X114422380Y-55490380D01*
X114612857Y-55490380D01*
X114708095Y-55442761D01*
X114755714Y-55395142D01*
X114803333Y-55299904D01*
X114803333Y-55014190D01*
X114755714Y-54918952D01*
X114708095Y-54871333D01*
X114612857Y-54823714D01*
X114422380Y-54823714D01*
X114327142Y-54871333D01*
X112660476Y-54823714D02*
X112660476Y-55490380D01*
X113089047Y-54823714D02*
X113089047Y-55347523D01*
X113041428Y-55442761D01*
X112946190Y-55490380D01*
X112803333Y-55490380D01*
X112708095Y-55442761D01*
X112660476Y-55395142D01*
X112184285Y-54823714D02*
X112184285Y-55490380D01*
X112184285Y-54918952D02*
X112136666Y-54871333D01*
X112041428Y-54823714D01*
X111898571Y-54823714D01*
X111803333Y-54871333D01*
X111755714Y-54966571D01*
X111755714Y-55490380D01*
X110850952Y-55490380D02*
X110850952Y-54490380D01*
X110850952Y-55442761D02*
X110946190Y-55490380D01*
X111136666Y-55490380D01*
X111231904Y-55442761D01*
X111279523Y-55395142D01*
X111327142Y-55299904D01*
X111327142Y-55014190D01*
X111279523Y-54918952D01*
X111231904Y-54871333D01*
X111136666Y-54823714D01*
X110946190Y-54823714D01*
X110850952Y-54871333D01*
X109993809Y-55442761D02*
X110089047Y-55490380D01*
X110279523Y-55490380D01*
X110374761Y-55442761D01*
X110422380Y-55347523D01*
X110422380Y-54966571D01*
X110374761Y-54871333D01*
X110279523Y-54823714D01*
X110089047Y-54823714D01*
X109993809Y-54871333D01*
X109946190Y-54966571D01*
X109946190Y-55061809D01*
X110422380Y-55157047D01*
X109517619Y-55490380D02*
X109517619Y-54823714D01*
X109517619Y-55014190D02*
X109470000Y-54918952D01*
X109422380Y-54871333D01*
X109327142Y-54823714D01*
X109231904Y-54823714D01*
X107565238Y-55395142D02*
X107612857Y-55442761D01*
X107755714Y-55490380D01*
X107850952Y-55490380D01*
X107993809Y-55442761D01*
X108089047Y-55347523D01*
X108136666Y-55252285D01*
X108184285Y-55061809D01*
X108184285Y-54918952D01*
X108136666Y-54728476D01*
X108089047Y-54633238D01*
X107993809Y-54538000D01*
X107850952Y-54490380D01*
X107755714Y-54490380D01*
X107612857Y-54538000D01*
X107565238Y-54585619D01*
X107136666Y-54966571D02*
X106803333Y-54966571D01*
X106660476Y-55490380D02*
X107136666Y-55490380D01*
X107136666Y-54490380D01*
X106660476Y-54490380D01*
X105660476Y-55490380D02*
X105993809Y-55014190D01*
X106231904Y-55490380D02*
X106231904Y-54490380D01*
X105850952Y-54490380D01*
X105755714Y-54538000D01*
X105708095Y-54585619D01*
X105660476Y-54680857D01*
X105660476Y-54823714D01*
X105708095Y-54918952D01*
X105755714Y-54966571D01*
X105850952Y-55014190D01*
X106231904Y-55014190D01*
X105231904Y-55490380D02*
X105231904Y-54490380D01*
X104660476Y-55490380D01*
X104660476Y-54490380D01*
X103231904Y-54490380D02*
X103041428Y-54490380D01*
X102946190Y-54538000D01*
X102850952Y-54633238D01*
X102803333Y-54823714D01*
X102803333Y-55157047D01*
X102850952Y-55347523D01*
X102946190Y-55442761D01*
X103041428Y-55490380D01*
X103231904Y-55490380D01*
X103327142Y-55442761D01*
X103422380Y-55347523D01*
X103470000Y-55157047D01*
X103470000Y-54823714D01*
X103422380Y-54633238D01*
X103327142Y-54538000D01*
X103231904Y-54490380D01*
X102374761Y-55490380D02*
X102374761Y-54490380D01*
X102374761Y-54966571D02*
X101803333Y-54966571D01*
X101803333Y-55490380D02*
X101803333Y-54490380D01*
X100850952Y-55490380D02*
X101327142Y-55490380D01*
X101327142Y-54490380D01*
X99850952Y-54823714D02*
X99612857Y-55490380D01*
X99374761Y-54823714D01*
X98993809Y-55395142D02*
X98946190Y-55442761D01*
X98993809Y-55490380D01*
X99041428Y-55442761D01*
X98993809Y-55395142D01*
X98993809Y-55490380D01*
X97993809Y-55490380D02*
X98565238Y-55490380D01*
X98279523Y-55490380D02*
X98279523Y-54490380D01*
X98374761Y-54633238D01*
X98470000Y-54728476D01*
X98565238Y-54776095D01*
X97565238Y-55395142D02*
X97517619Y-55442761D01*
X97565238Y-55490380D01*
X97612857Y-55442761D01*
X97565238Y-55395142D01*
X97565238Y-55490380D01*
X97136666Y-54585619D02*
X97089047Y-54538000D01*
X96993809Y-54490380D01*
X96755714Y-54490380D01*
X96660476Y-54538000D01*
X96612857Y-54585619D01*
X96565238Y-54680857D01*
X96565238Y-54776095D01*
X96612857Y-54918952D01*
X97184285Y-55490380D01*
X96565238Y-55490380D01*
X82124245Y-63102420D02*
X82457579Y-62626230D01*
X82695674Y-63102420D02*
X82695674Y-62102420D01*
X82314721Y-62102420D01*
X82219483Y-62150040D01*
X82171864Y-62197659D01*
X82124245Y-62292897D01*
X82124245Y-62435754D01*
X82171864Y-62530992D01*
X82219483Y-62578611D01*
X82314721Y-62626230D01*
X82695674Y-62626230D01*
X81790912Y-62102420D02*
X81124245Y-63102420D01*
X81124245Y-62102420D02*
X81790912Y-63102420D01*
X82594483Y-64602420D02*
X82023055Y-64602420D01*
X82308769Y-65602420D02*
X82308769Y-64602420D01*
X81784959Y-64602420D02*
X81118293Y-65602420D01*
X81118293Y-64602420D02*
X81784959Y-65602420D01*
X89893293Y-63002420D02*
X89893293Y-62002420D01*
X89321864Y-63002420D01*
X89321864Y-62002420D01*
X88274245Y-62907182D02*
X88321864Y-62954801D01*
X88464721Y-63002420D01*
X88559959Y-63002420D01*
X88702817Y-62954801D01*
X88798055Y-62859563D01*
X88845674Y-62764325D01*
X88893293Y-62573849D01*
X88893293Y-62430992D01*
X88845674Y-62240516D01*
X88798055Y-62145278D01*
X88702817Y-62050040D01*
X88559959Y-62002420D01*
X88464721Y-62002420D01*
X88321864Y-62050040D01*
X88274245Y-62097659D01*
X89893293Y-65652420D02*
X89893293Y-64652420D01*
X89321864Y-65652420D01*
X89321864Y-64652420D01*
X88274245Y-65557182D02*
X88321864Y-65604801D01*
X88464721Y-65652420D01*
X88559959Y-65652420D01*
X88702817Y-65604801D01*
X88798055Y-65509563D01*
X88845674Y-65414325D01*
X88893293Y-65223849D01*
X88893293Y-65080992D01*
X88845674Y-64890516D01*
X88798055Y-64795278D01*
X88702817Y-64700040D01*
X88559959Y-64652420D01*
X88464721Y-64652420D01*
X88321864Y-64700040D01*
X88274245Y-64747659D01*
X90319483Y-67275040D02*
X90414721Y-67227420D01*
X90557579Y-67227420D01*
X90700436Y-67275040D01*
X90795674Y-67370278D01*
X90843293Y-67465516D01*
X90890912Y-67655992D01*
X90890912Y-67798849D01*
X90843293Y-67989325D01*
X90795674Y-68084563D01*
X90700436Y-68179801D01*
X90557579Y-68227420D01*
X90462340Y-68227420D01*
X90319483Y-68179801D01*
X90271864Y-68132182D01*
X90271864Y-67798849D01*
X90462340Y-67798849D01*
X89843293Y-68227420D02*
X89843293Y-67227420D01*
X89271864Y-68227420D01*
X89271864Y-67227420D01*
X88795674Y-68227420D02*
X88795674Y-67227420D01*
X88557579Y-67227420D01*
X88414721Y-67275040D01*
X88319483Y-67370278D01*
X88271864Y-67465516D01*
X88224245Y-67655992D01*
X88224245Y-67798849D01*
X88271864Y-67989325D01*
X88319483Y-68084563D01*
X88414721Y-68179801D01*
X88557579Y-68227420D01*
X88795674Y-68227420D01*
X82194483Y-67125040D02*
X82289721Y-67077420D01*
X82432579Y-67077420D01*
X82575436Y-67125040D01*
X82670674Y-67220278D01*
X82718293Y-67315516D01*
X82765912Y-67505992D01*
X82765912Y-67648849D01*
X82718293Y-67839325D01*
X82670674Y-67934563D01*
X82575436Y-68029801D01*
X82432579Y-68077420D01*
X82337340Y-68077420D01*
X82194483Y-68029801D01*
X82146864Y-67982182D01*
X82146864Y-67648849D01*
X82337340Y-67648849D01*
X81718293Y-68077420D02*
X81718293Y-67077420D01*
X81146864Y-68077420D01*
X81146864Y-67077420D01*
X80670674Y-68077420D02*
X80670674Y-67077420D01*
X80432579Y-67077420D01*
X80289721Y-67125040D01*
X80194483Y-67220278D01*
X80146864Y-67315516D01*
X80099245Y-67505992D01*
X80099245Y-67648849D01*
X80146864Y-67839325D01*
X80194483Y-67934563D01*
X80289721Y-68029801D01*
X80432579Y-68077420D01*
X80670674Y-68077420D01*
X82173055Y-69677420D02*
X82649245Y-69677420D01*
X82696864Y-70153611D01*
X82649245Y-70105992D01*
X82554007Y-70058373D01*
X82315912Y-70058373D01*
X82220674Y-70105992D01*
X82173055Y-70153611D01*
X82125436Y-70248849D01*
X82125436Y-70486944D01*
X82173055Y-70582182D01*
X82220674Y-70629801D01*
X82315912Y-70677420D01*
X82554007Y-70677420D01*
X82649245Y-70629801D01*
X82696864Y-70582182D01*
X81839721Y-69677420D02*
X81506388Y-70677420D01*
X81173055Y-69677420D01*
X89398055Y-69752420D02*
X89874245Y-69752420D01*
X89921864Y-70228611D01*
X89874245Y-70180992D01*
X89779007Y-70133373D01*
X89540912Y-70133373D01*
X89445674Y-70180992D01*
X89398055Y-70228611D01*
X89350436Y-70323849D01*
X89350436Y-70561944D01*
X89398055Y-70657182D01*
X89445674Y-70704801D01*
X89540912Y-70752420D01*
X89779007Y-70752420D01*
X89874245Y-70704801D01*
X89921864Y-70657182D01*
X89064721Y-69752420D02*
X88731388Y-70752420D01*
X88398055Y-69752420D01*
M02*
